SplineFontDB: 3.0
FontName: SAU-VaigaiNormal
FullName: SAU Vaigai Normal
FamilyName: SAU Vaigai
Weight: Book
Copyright: Copyright (c) 2009-2015, NLCI (http://www.nlci.in/fonts/)
Version: 1.0 Thu Aug 08 15:05:52 1996
ItalicAngle: 0
UnderlinePosition: -240
UnderlineWidth: 20
Ascent: 800
Descent: 200
InvalidEm: 0
LayerCount: 2
Layer: 0 0 "Back" 1
Layer: 1 0 "Fore" 0
XUID: [1021 644 1679464678 9537082]
FSType: 0
OS2Version: 1
OS2_WeightWidthSlopeOnly: 0
OS2_UseTypoMetrics: 1
CreationTime: 1257735721
ModificationTime: 1518184038
PfmFamily: 81
TTFWeight: 400
TTFWidth: 5
LineGap: 0
VLineGap: 0
Panose: 5 0 0 0 0 0 0 0 0 0
OS2TypoAscent: 268
OS2TypoAOffset: 1
OS2TypoDescent: -159
OS2TypoDOffset: 1
OS2TypoLinegap: 0
OS2WinAscent: 18
OS2WinAOffset: 1
OS2WinDescent: 7
OS2WinDOffset: 1
HheadAscent: 18
HheadAOffset: 1
HheadDescent: -7
HheadDOffset: 1
OS2SubXSize: 700
OS2SubYSize: 650
OS2SubXOff: 0
OS2SubYOff: 143
OS2SupXSize: 700
OS2SupYSize: 650
OS2SupXOff: 0
OS2SupYOff: 453
OS2StrikeYSize: 50
OS2StrikeYPos: 259
OS2Vendor: 'Alts'
OS2CodePages: 00000000.00000000
OS2UnicodeRanges: 00100001.00000000.00000000.00000000
Lookup: 4 0 0 "akhnAkhandinTamillookup9" { "akhnAkhandinTamillookup9 subtable"  } ['akhn' ('taml' <'TAM ' 'TAO ' 'dflt' > ) ]
Lookup: 4 0 0 "akhnligs" { "akhnligs subtable"  } ['akhn' ('taml' <'TAM ' 'TAO ' 'dflt' > ) ]
Lookup: 4 0 0 "sub_ligature_pststaml_0" { "sub_ligature_pststaml_0 subtable"  } ['psts' ('taml' <'TAM ' 'TAO ' 'dflt' > ) ]
Lookup: 4 0 0 "sub_ligature_pststaml_2" { "sub_ligature_pststaml_2 subtable"  } ['psts' ('taml' <'TAM ' 'TAO ' 'dflt' > ) ]
Lookup: 4 0 0 "sub_ligature_pststaml_4" { "sub_ligature_pststaml_4 subtable"  } ['psts' ('taml' <'TAM ' 'TAO ' 'dflt' > ) ]
Lookup: 4 0 0 "sub_ligature_pststaml_6" { "sub_ligature_pststaml_6 subtable"  } ['psts' ('taml' <'TAM ' 'TAO ' 'dflt' > ) ]
Lookup: 4 0 0 "sub_ligature_pststaml_8" { "sub_ligature_pststaml_8 subtable"  } ['psts' ('taml' <'TAM ' 'TAO ' 'dflt' > ) ]

StartChar: .notdef
Encoding: 96 -1 0
Width: 1024
GlyphClass: 2
Flags: W
HStem: 0 64<128 896> 1472 64<128 896>
VStem: 64 64<64 1472> 896 64<64 1472>
LayerCount: 2
Fore
SplineSet
64 0 m 1
 64 1536 l 1
 960 1536 l 1
 960 0 l 1
 64 0 l 1
896 64 m 1
 896 1472 l 1
 128 1472 l 1
 128 64 l 1
 896 64 l 1
EndSplineSet
Validated: 1
Ligature2: "sub_ligature_pststaml_8 subtable" u0B95 u0BC2
LCarets2: 1 0
EndChar

StartChar: exclam
Encoding: 1 33 4
Width: 337
GlyphClass: 1
Flags: W
LayerCount: 2
Fore
SplineSet
230 49 m 256
 230 37 230 37 225.5 26 c 128
 221 15 221 15 212.5 6.5 c 128
 204 -2 204 -2 193 -7 c 128
 182 -12 182 -12 170 -12 c 256
 158 -12 158 -12 147 -7 c 128
 136 -2 136 -2 128 6.5 c 128
 120 15 120 15 115.5 26 c 128
 111 37 111 37 111 49 c 256
 111 61 111 61 115.5 72 c 128
 120 83 120 83 128 91 c 128
 136 99 136 99 147 103.5 c 128
 158 108 158 108 170 108 c 256
 182 108 182 108 193 103.5 c 128
 204 99 204 99 212.5 91 c 128
 221 83 221 83 225.5 72 c 128
 230 61 230 61 230 49 c 256
230 620 m 0
 230 618 230 618 228.5 597.5 c 128
 227 577 227 577 225 546 c 128
 223 515 223 515 220 476 c 128
 217 437 217 437 214 397 c 0
 206 302 206 302 197 183 c 1
 149 183 l 1
 139 302 139 302 131 397 c 0
 128 437 128 437 125 476 c 128
 122 515 122 515 120 546 c 128
 118 577 118 577 116.5 597.5 c 128
 115 618 115 618 115 620 c 0
 115 650 115 650 129.5 667 c 128
 144 684 144 684 175 684 c 256
 206 684 206 684 220.5 667 c 128
 235 650 235 650 230 620 c 0
EndSplineSet
EndChar

StartChar: quotedbl
Encoding: 2 34 5
Width: 333
GlyphClass: 1
Flags: W
LayerCount: 2
Fore
SplineSet
94 420 m 1
 78 420 l 1
 43 664 l 1
 43 687 43 687 54 699.5 c 128
 65 712 65 712 85 712 c 256
 105 712 105 712 115 699.5 c 128
 125 687 125 687 125 664 c 1
 94 420 l 1
251 420 m 1
 235 420 l 1
 202 664 l 1
 202 687 202 687 212.5 699.5 c 128
 223 712 223 712 243 712 c 256
 263 712 263 712 273.5 699.5 c 128
 284 687 284 687 284 664 c 1
 251 420 l 1
EndSplineSet
EndChar

StartChar: numbersign
Encoding: 3 35 6
Width: 743
GlyphClass: 1
Flags: W
LayerCount: 2
Fore
SplineSet
324 420 m 1
 275 277 l 1
 420 277 l 1
 469 420 l 1
 324 420 l 1
523 420 m 1
 477 277 l 1
 638 277 l 1
 638 228 l 1
 459 228 l 1
 376 -22 l 1
 327 -6 l 1
 404 228 l 1
 259 228 l 1
 175 -22 l 1
 127 -5 l 1
 207 228 l 1
 65 228 l 1
 65 277 l 1
 223 277 l 1
 271 420 l 1
 109 420 l 1
 109 471 l 1
 288 471 l 1
 368 706 l 1
 418 690 l 1
 341 471 l 1
 486 471 l 1
 565 706 l 1
 618 690 l 1
 542 471 l 1
 682 471 l 1
 682 420 l 1
 523 420 l 1
EndSplineSet
EndChar

StartChar: dollar
Encoding: 4 36 7
Width: 562
GlyphClass: 1
Flags: W
LayerCount: 2
Fore
SplineSet
414 170 m 0
 414 197 414 197 405.5 216.5 c 128
 397 236 397 236 382 249.5 c 128
 367 263 367 263 347.5 272 c 128
 328 281 328 281 308 287 c 1
 308 51 l 1
 328 54 328 54 347.5 62.5 c 128
 367 71 367 71 382 85 c 128
 397 99 397 99 405.5 119.5 c 128
 414 140 414 140 414 170 c 0
262 614 m 1
 242 610 242 610 225 601 c 128
 208 592 208 592 195.5 578 c 128
 183 564 183 564 176 545 c 128
 169 526 169 526 169 502 c 256
 169 478 169 478 178 460.5 c 128
 187 443 187 443 200.5 431 c 128
 214 419 214 419 230.5 411 c 128
 247 403 247 403 262 398 c 1
 262 614 l 1
505 191 m 1
 505 161 505 161 495 135.5 c 128
 485 110 485 110 469 89.5 c 128
 453 69 453 69 432 53.5 c 128
 411 38 411 38 389 27.5 c 128
 367 17 367 17 346.5 11.5 c 128
 326 6 326 6 310 6 c 1
 310 -97 l 1
 264 -97 l 1
 264 6 l 1
 246 6 246 6 222 7 c 128
 198 8 198 8 171.5 10.5 c 128
 145 13 145 13 117.5 17.5 c 128
 90 22 90 22 65 29 c 1
 65 198 l 1
 114 198 l 1
 132 87 l 1
 138 79 138 79 151.5 72.5 c 128
 165 66 165 66 183 62 c 128
 201 58 201 58 221.5 56 c 128
 242 54 242 54 262 54 c 1
 262 306 l 1
 230 313 230 313 197.5 326 c 128
 165 339 165 339 138.5 360 c 128
 112 381 112 381 95.5 412 c 128
 79 443 79 443 79 485 c 0
 79 515 79 515 87 539.5 c 128
 95 564 95 564 109 583 c 128
 123 602 123 602 141.5 616.5 c 128
 160 631 160 631 180.5 641 c 128
 201 651 201 651 222.5 657.5 c 128
 244 664 244 664 263 666 c 1
 263 741 l 1
 308 741 l 1
 308 669 l 1
 340 669 340 669 370.5 665.5 c 128
 401 662 401 662 424 658 c 0
 451 653 451 653 475 648 c 1
 475 491 l 1
 423 491 l 1
 409 596 l 1
 386 621 386 621 307 621 c 1
 307 383 l 1
 328 377 328 377 351 370 c 128
 374 363 374 363 395.5 353 c 128
 417 343 417 343 436.5 329.5 c 128
 456 316 456 316 470.5 296.5 c 128
 485 277 485 277 493.5 251.5 c 128
 502 226 502 226 505 191 c 1
EndSplineSet
EndChar

StartChar: percent
Encoding: 5 37 8
Width: 859
GlyphClass: 1
Flags: W
LayerCount: 2
Fore
SplineSet
262 477 m 256
 262 516 262 516 258 547.5 c 128
 254 579 254 579 245 601 c 128
 236 623 236 623 222 635 c 128
 208 647 208 647 188 647 c 256
 168 647 168 647 153.5 635 c 128
 139 623 139 623 129.5 601 c 128
 120 579 120 579 115.5 547.5 c 128
 111 516 111 516 111 477 c 256
 111 438 111 438 115.5 406.5 c 128
 120 375 120 375 129.5 353 c 128
 139 331 139 331 153.5 319 c 128
 168 307 168 307 188 307 c 256
 208 307 208 307 222 319 c 128
 236 331 236 331 245 353 c 128
 254 375 254 375 258 406.5 c 128
 262 438 262 438 262 477 c 256
750 195 m 256
 750 234 750 234 746 265.5 c 128
 742 297 742 297 733 319 c 128
 724 341 724 341 710 353 c 128
 696 365 696 365 676 365 c 256
 656 365 656 365 641.5 353 c 128
 627 341 627 341 617.5 319 c 128
 608 297 608 297 603.5 265.5 c 128
 599 234 599 234 599 195 c 256
 599 156 599 156 603.5 124.5 c 128
 608 93 608 93 617.5 70.5 c 128
 627 48 627 48 641.5 36 c 128
 656 24 656 24 676 24 c 256
 696 24 696 24 710 36 c 128
 724 48 724 48 733 70.5 c 128
 742 93 742 93 746 124.5 c 128
 750 156 750 156 750 195 c 256
338 478 m 256
 338 434 338 434 329 396 c 128
 320 358 320 358 301 330 c 128
 282 302 282 302 253.5 286 c 128
 225 270 225 270 187 270 c 256
 149 270 149 270 120.5 286 c 128
 92 302 92 302 73 330 c 128
 54 358 54 358 44.5 396 c 128
 35 434 35 434 35 478 c 256
 35 522 35 522 44.5 560.5 c 128
 54 599 54 599 73 627 c 128
 92 655 92 655 120.5 671 c 128
 149 687 149 687 187 687 c 256
 225 687 225 687 253.5 671 c 128
 282 655 282 655 301 627 c 128
 320 599 320 599 329 560.5 c 128
 338 522 338 522 338 478 c 256
250 1 m 1
 188 1 l 1
 612 671 l 1
 674 671 l 1
 250 1 l 1
828 194 m 256
 828 150 828 150 818.5 112 c 128
 809 74 809 74 790 46 c 128
 771 18 771 18 742.5 2 c 128
 714 -14 714 -14 676 -14 c 256
 638 -14 638 -14 609.5 2 c 128
 581 18 581 18 562 46 c 128
 543 74 543 74 533.5 112 c 128
 524 150 524 150 524 194 c 256
 524 238 524 238 533.5 276.5 c 128
 543 315 543 315 562 343 c 128
 581 371 581 371 609.5 387 c 128
 638 403 638 403 676 403 c 256
 714 403 714 403 742.5 387 c 128
 771 371 771 371 790 343 c 128
 809 315 809 315 818.5 276.5 c 128
 828 238 828 238 828 194 c 256
EndSplineSet
EndChar

StartChar: ampersand
Encoding: 6 38 9
Width: 699
GlyphClass: 1
Flags: W
LayerCount: 2
Fore
SplineSet
211 333 m 1
 196 323 196 323 183.5 311 c 128
 171 299 171 299 161.5 284.5 c 128
 152 270 152 270 146.5 252 c 128
 141 234 141 234 141 212 c 0
 141 179 141 179 152 150.5 c 128
 163 122 163 122 182.5 101.5 c 128
 202 81 202 81 228.5 69.5 c 128
 255 58 255 58 285 58 c 0
 307 58 307 58 325.5 62.5 c 128
 344 67 344 67 359.5 74.5 c 128
 375 82 375 82 388.5 92 c 128
 402 102 402 102 414 112 c 1
 211 333 l 1
359 529 m 0
 359 550 359 550 353.5 569.5 c 128
 348 589 348 589 336.5 603.5 c 128
 325 618 325 618 307.5 626.5 c 128
 290 635 290 635 267 635 c 0
 247 635 247 635 230.5 628 c 128
 214 621 214 621 202.5 608.5 c 128
 191 596 191 596 185 579 c 128
 179 562 179 562 179 543 c 0
 179 519 179 519 188.5 497.5 c 128
 198 476 198 476 211.5 458 c 128
 225 440 225 440 241 425 c 128
 257 410 257 410 270 397 c 1
 291 407 291 407 307.5 419.5 c 128
 324 432 324 432 335 448 c 128
 346 464 346 464 352 484 c 128
 358 504 358 504 359 529 c 0
490 3 m 1
 490 26 l 1
 446 76 l 1
 427 61 427 61 406.5 46 c 128
 386 31 386 31 362 19 c 128
 338 7 338 7 309.5 -0.5 c 128
 281 -8 281 -8 246 -8 c 0
 204 -8 204 -8 166.5 6.5 c 128
 129 21 129 21 101 47 c 128
 73 73 73 73 57 109 c 128
 41 145 41 145 41 187 c 0
 41 219 41 219 50.5 246 c 128
 60 273 60 273 77.5 294.5 c 128
 95 316 95 316 119.5 332.5 c 128
 144 349 144 349 173 361 c 1
 165 369 165 369 151 383 c 128
 137 397 137 397 123.5 416.5 c 128
 110 436 110 436 100 460 c 128
 90 484 90 484 90 512 c 0
 90 549 90 549 104 580 c 128
 118 611 118 611 143.5 633 c 128
 169 655 169 655 203.5 667 c 128
 238 679 238 679 278 679 c 0
 316 679 316 679 348 668 c 128
 380 657 380 657 403 637 c 128
 426 617 426 617 439 589.5 c 128
 452 562 452 562 452 530 c 0
 452 494 452 494 439.5 467 c 128
 427 440 427 440 406.5 419.5 c 128
 386 399 386 399 360 384 c 128
 334 369 334 369 307 357 c 1
 474 176 l 1
 481 186 481 186 490 200 c 128
 499 214 499 214 507 229.5 c 128
 515 245 515 245 521 261 c 128
 527 277 527 277 528 291 c 0
 528 295 528 295 522.5 301.5 c 128
 517 308 517 308 511 308 c 2
 457 315 l 1
 457 356 l 1
 662 356 l 1
 662 315 l 1
 591 305 l 1
 584 280 584 280 574 256.5 c 128
 564 233 564 233 553 211.5 c 128
 542 190 542 190 530 171.5 c 128
 518 153 518 153 508 138 c 1
 589 45 l 1
 678 41 l 1
 678 -1 l 1
 490 3 l 1
EndSplineSet
EndChar

StartChar: quotesingle
Encoding: 7 39 10
Width: 170
GlyphClass: 1
Flags: W
LayerCount: 2
Fore
SplineSet
94 420 m 1
 78 420 l 1
 43 664 l 1
 43 687 43 687 53.5 699.5 c 128
 64 712 64 712 84 712 c 256
 104 712 104 712 114.5 699.5 c 128
 125 687 125 687 125 664 c 1
 94 420 l 1
EndSplineSet
EndChar

StartChar: parenleft
Encoding: 8 40 11
Width: 375
GlyphClass: 1
Flags: W
LayerCount: 2
Fore
SplineSet
342 -142 m 1
 290 -137 290 -137 249 -118.5 c 128
 208 -100 208 -100 177 -70.5 c 128
 146 -41 146 -41 124 -2.5 c 128
 102 36 102 36 88.5 81.5 c 128
 75 127 75 127 68.5 178.5 c 128
 62 230 62 230 62 284 c 0
 62 365 62 365 76.5 438.5 c 128
 91 512 91 512 124.5 569.5 c 128
 158 627 158 627 211.5 664 c 128
 265 701 265 701 343 709 c 1
 343 666 l 1
 291 658 291 658 255 628 c 128
 219 598 219 598 196.5 549 c 128
 174 500 174 500 164 433 c 128
 154 366 154 366 154 283 c 256
 154 200 154 200 164 133 c 128
 174 66 174 66 196.5 16.5 c 128
 219 -33 219 -33 255 -63 c 128
 291 -93 291 -93 343 -101 c 1
 342 -142 l 1
EndSplineSet
EndChar

StartChar: parenright
Encoding: 9 41 12
Width: 375
GlyphClass: 1
Flags: W
LayerCount: 2
Fore
SplineSet
317 288 m 1
 317 234 317 234 310.5 182.5 c 128
 304 131 304 131 290.5 85.5 c 128
 277 40 277 40 255 1.5 c 128
 233 -37 233 -37 202 -66.5 c 128
 171 -96 171 -96 130 -114.5 c 128
 89 -133 89 -133 37 -138 c 1
 37 -95 l 1
 89 -87 89 -87 125 -57 c 128
 161 -27 161 -27 183 22.5 c 128
 205 72 205 72 215 139 c 128
 225 206 225 206 225 289 c 256
 225 372 225 372 215 439 c 128
 205 506 205 506 183 555 c 128
 161 604 161 604 125 634 c 128
 89 664 89 664 37 672 c 1
 37 715 l 1
 115 707 115 707 169 670 c 128
 223 633 223 633 256.5 575.5 c 128
 290 518 290 518 304.5 444.5 c 128
 319 371 319 371 317 288 c 1
EndSplineSet
EndChar

StartChar: asterisk
Encoding: 10 42 13
Width: 500
GlyphClass: 1
Flags: W
LayerCount: 2
Fore
SplineSet
198 362 m 1
 129 337 l 1
 130 411 l 1
 231 492 l 1
 243 483 l 1
 198 362 l 1
227 505 m 1
 98 512 l 1
 54 568 l 1
 124 588 l 1
 231 518 l 1
 227 505 l 1
300 361 m 1
 255 481 l 1
 267 490 l 1
 368 409 l 1
 369 335 l 1
 300 361 l 1
255 527 m 1
 242 527 l 1
 208 652 l 1
 249 713 l 1
 290 652 l 1
 255 527 l 1
399 511 m 1
 271 504 l 1
 267 518 l 1
 374 588 l 1
 444 568 l 1
 399 511 l 1
EndSplineSet
EndChar

StartChar: plus
Encoding: 11 43 14
Width: 1000
GlyphClass: 1
Flags: W
LayerCount: 2
Fore
SplineSet
530 269 m 1
 530 0 l 1
 469 0 l 1
 469 269 l 1
 200 269 l 1
 200 331 l 1
 469 331 l 1
 469 600 l 1
 530 600 l 1
 530 331 l 1
 799 331 l 1
 799 269 l 1
 530 269 l 1
EndSplineSet
EndChar

StartChar: comma
Encoding: 12 44 15
Width: 279
GlyphClass: 1
Flags: W
LayerCount: 2
Fore
SplineSet
206 9 m 0
 206 -28 206 -28 192 -59 c 128
 178 -90 178 -90 154 -113.5 c 128
 130 -137 130 -137 99 -151 c 128
 68 -165 68 -165 34 -167 c 1
 34 -131 l 1
 60 -126 60 -126 80.5 -116 c 128
 101 -106 101 -106 114.5 -90 c 128
 128 -74 128 -74 135 -50.5 c 128
 142 -27 142 -27 142 7 c 1
 80 7 l 1
 80 7 80 7 77.5 10.5 c 128
 75 14 75 14 72 19.5 c 128
 69 25 69 25 67 33 c 128
 65 41 65 41 65 51 c 0
 65 64 65 64 69.5 76 c 128
 74 88 74 88 82 97.5 c 128
 90 107 90 107 101 112.5 c 128
 112 118 112 118 125 118 c 0
 146 118 146 118 161.5 109.5 c 128
 177 101 177 101 187 86.5 c 128
 197 72 197 72 201.5 51.5 c 128
 206 31 206 31 206 9 c 0
EndSplineSet
EndChar

StartChar: hyphen
Encoding: 13 45 16
Width: 319
GlyphClass: 1
Flags: W
LayerCount: 2
Fore
SplineSet
43 203 m 1
 43 277 l 1
 274 277 l 1
 274 203 l 1
 43 203 l 1
EndSplineSet
EndChar

StartChar: period
Encoding: 14 46 17
Width: 279
GlyphClass: 1
Flags: W
LayerCount: 2
Fore
SplineSet
195 55 m 0
 195 41 195 41 190 29 c 128
 185 17 185 17 176 8 c 128
 167 -1 167 -1 155 -6 c 128
 143 -11 143 -11 130 -11 c 0
 116 -11 116 -11 104.5 -6 c 128
 93 -1 93 -1 84 8 c 128
 75 17 75 17 70 29 c 128
 65 41 65 41 65 55 c 0
 65 68 65 68 70 80 c 128
 75 92 75 92 84 101 c 128
 93 110 93 110 104.5 115 c 128
 116 120 116 120 130 120 c 0
 143 120 143 120 155 115 c 128
 167 110 167 110 176 101 c 128
 185 92 185 92 190 80 c 128
 195 68 195 68 195 55 c 0
EndSplineSet
EndChar

StartChar: slash
Encoding: 15 47 18
Width: 490
GlyphClass: 1
Flags: W
LayerCount: 2
Fore
SplineSet
63 -92 m 1
 0 -92 l 1
 425 671 l 1
 489 671 l 1
 63 -92 l 1
EndSplineSet
EndChar

StartChar: zero
Encoding: 16 48 19
Width: 562
GlyphClass: 1
Flags: W
LayerCount: 2
Fore
SplineSet
416 334 m 256
 416 371 416 371 413.5 407.5 c 128
 411 444 411 444 405 477.5 c 128
 399 511 399 511 389 539.5 c 128
 379 568 379 568 364 588.5 c 128
 349 609 349 609 328.5 620.5 c 128
 308 632 308 632 282 632 c 256
 256 632 256 632 235.5 620.5 c 128
 215 609 215 609 200.5 588.5 c 128
 186 568 186 568 176 539.5 c 128
 166 511 166 511 160 477.5 c 128
 154 444 154 444 151.5 407.5 c 128
 149 371 149 371 149 334 c 256
 149 297 149 297 151.5 260.5 c 128
 154 224 154 224 160 191 c 128
 166 158 166 158 176 129.5 c 128
 186 101 186 101 200.5 80.5 c 128
 215 60 215 60 235.5 48.5 c 128
 256 37 256 37 282 37 c 256
 308 37 308 37 328.5 48.5 c 128
 349 60 349 60 364 80.5 c 128
 379 101 379 101 389 129.5 c 128
 399 158 399 158 405 191 c 128
 411 224 411 224 413.5 260.5 c 128
 416 297 416 297 416 334 c 256
521 334 m 1
 521 263 521 263 506.5 199.5 c 128
 492 136 492 136 462 88.5 c 128
 432 41 432 41 386.5 13 c 128
 341 -15 341 -15 280 -15 c 256
 219 -15 219 -15 174 13 c 128
 129 41 129 41 99 88.5 c 128
 69 136 69 136 54.5 199.5 c 128
 40 263 40 263 40 334 c 0
 40 381 40 381 46.5 425.5 c 128
 53 470 53 470 66 509 c 128
 79 548 79 548 98.5 580 c 128
 118 612 118 612 144.5 635 c 128
 171 658 171 658 204.5 670.5 c 128
 238 683 238 683 278 683 c 256
 318 683 318 683 351.5 670.5 c 128
 385 658 385 658 411.5 635 c 128
 438 612 438 612 458 580 c 128
 478 548 478 548 491 509 c 128
 504 470 504 470 510.5 425.5 c 128
 517 381 517 381 521 334 c 1
EndSplineSet
EndChar

StartChar: one
Encoding: 17 49 20
Width: 562
GlyphClass: 1
Flags: W
LayerCount: 2
Fore
SplineSet
107 0 m 1
 107 44 l 1
 208 47 l 2
 217 47 217 47 223 53.5 c 128
 229 60 229 60 229 68 c 2
 229 599 l 1
 75 573 l 1
 75 617 l 1
 290 683 l 1
 328 683 l 1
 328 67 l 2
 328 59 328 59 334 52.5 c 128
 340 46 340 46 349 46 c 2
 442 43 l 1
 442 -1 l 1
 107 0 l 1
EndSplineSet
EndChar

StartChar: two
Encoding: 18 50 21
Width: 562
GlyphClass: 1
Flags: W
LayerCount: 2
Fore
SplineSet
46 0 m 1
 46 66 l 1
 122 128 122 128 185.5 180.5 c 128
 249 233 249 233 295.5 282 c 128
 342 331 342 331 367.5 378.5 c 128
 393 426 393 426 393 478 c 0
 393 514 393 514 382 542 c 128
 371 570 371 570 352 589 c 128
 333 608 333 608 307 618 c 128
 281 628 281 628 252 628 c 0
 235 628 235 628 221 624.5 c 128
 207 621 207 621 196.5 616.5 c 128
 186 612 186 612 179.5 608.5 c 128
 173 605 173 605 172 605 c 1
 172 495 l 1
 167 491 167 491 160 488 c 0
 154 485 154 485 145 483 c 128
 136 481 136 481 125 481 c 256
 114 481 114 481 103.5 484.5 c 128
 93 488 93 488 84.5 495 c 128
 76 502 76 502 71.5 512.5 c 128
 67 523 67 523 67 538 c 0
 67 569 67 569 84.5 596 c 128
 102 623 102 623 132 643 c 128
 162 663 162 663 201.5 674 c 128
 241 685 241 685 284 685 c 0
 332 685 332 685 373 671 c 128
 414 657 414 657 443.5 631.5 c 128
 473 606 473 606 489.5 570.5 c 128
 506 535 506 535 506 492 c 0
 506 457 506 457 493 423 c 128
 480 389 480 389 456 356 c 128
 432 323 432 323 399.5 290 c 128
 367 257 367 257 328.5 223.5 c 128
 290 190 290 190 246.5 156 c 128
 203 122 203 122 159 87 c 1
 455 87 l 1
 472 172 l 1
 521 172 l 1
 521 3 l 1
 46 0 l 1
EndSplineSet
EndChar

StartChar: three
Encoding: 19 51 22
Width: 562
GlyphClass: 1
Flags: W
LayerCount: 2
Fore
SplineSet
516 190 m 0
 516 145 516 145 495.5 107 c 128
 475 69 475 69 439.5 42 c 128
 404 15 404 15 356.5 0 c 128
 309 -15 309 -15 255 -15 c 0
 205 -15 205 -15 166.5 -4 c 128
 128 7 128 7 102 24.5 c 128
 76 42 76 42 63 62.5 c 128
 50 83 50 83 50 101 c 0
 50 111 50 111 53.5 120.5 c 128
 57 130 57 130 64 137.5 c 128
 71 145 71 145 81.5 149.5 c 128
 92 154 92 154 107 154 c 0
 112 154 112 154 122.5 153 c 128
 133 152 133 152 139 148 c 1
 168 60 l 1
 187 49 187 49 208.5 42 c 128
 230 35 230 35 253 35 c 0
 288 35 288 35 316.5 48 c 128
 345 61 345 61 365.5 82.5 c 128
 386 104 386 104 397 132 c 128
 408 160 408 160 408 190 c 0
 408 226 408 226 394 250 c 128
 380 274 380 274 358.5 288 c 128
 337 302 337 302 311 308 c 128
 285 314 285 314 261 314 c 0
 248 314 248 314 237 314 c 128
 226 314 226 314 218 314 c 0
 209 314 209 314 202 314 c 1
 202 376 l 1
 203 376 203 376 211 376 c 128
 219 376 219 376 226 376 c 0
 257 376 257 376 286 383.5 c 128
 315 391 315 391 337 406 c 128
 359 421 359 421 372 444.5 c 128
 385 468 385 468 385 501 c 0
 385 532 385 532 374.5 556 c 128
 364 580 364 580 346 596.5 c 128
 328 613 328 613 304.5 621.5 c 128
 281 630 281 630 256 630 c 0
 236 630 236 630 219.5 626 c 128
 203 622 203 622 192 617 c 1
 178 612 178 612 168 605 c 1
 168 505 l 1
 166 504 166 504 154.5 498.5 c 128
 143 493 143 493 125 493 c 0
 117 493 117 493 107 495.5 c 128
 97 498 97 498 88.5 504 c 128
 80 510 80 510 74.5 520.5 c 128
 69 531 69 531 69 547 c 0
 69 575 69 575 86.5 600.5 c 128
 104 626 104 626 134 645 c 128
 164 664 164 664 204 675 c 128
 244 686 244 686 288 686 c 0
 331 686 331 686 368 674 c 128
 405 662 405 662 432.5 640 c 128
 460 618 460 618 475.5 586.5 c 128
 491 555 491 555 491 516 c 0
 491 460 491 460 451.5 418.5 c 128
 412 377 412 377 338 357 c 1
 369 356 369 356 401 346 c 128
 433 336 433 336 458.5 316.5 c 128
 484 297 484 297 500 267 c 128
 516 237 516 237 516 190 c 0
EndSplineSet
EndChar

StartChar: four
Encoding: 20 52 23
Width: 562
GlyphClass: 1
Flags: W
LayerCount: 2
Fore
SplineSet
344 559 m 1
 119 268 l 1
 344 268 l 1
 344 559 l 1
437 201 m 1
 437 -14 l 1
 344 -14 l 1
 344 201 l 1
 40 201 l 1
 40 269 l 1
 368 687 l 1
 437 687 l 1
 437 268 l 1
 521 268 l 1
 521 201 l 1
 437 201 l 1
EndSplineSet
EndChar

StartChar: five
Encoding: 21 53 24
Width: 562
GlyphClass: 1
Flags: W
LayerCount: 2
Fore
SplineSet
517 216 m 1
 517 166 517 166 499 123.5 c 128
 481 81 481 81 445.5 50 c 128
 410 19 410 19 357.5 2 c 128
 305 -15 305 -15 237 -15 c 0
 198 -15 198 -15 164 -4 c 128
 130 7 130 7 104.5 24 c 128
 79 41 79 41 64 61.5 c 128
 49 82 49 82 49 101 c 0
 49 128 49 128 66.5 142 c 128
 84 156 84 156 111 156 c 0
 119 156 119 156 126.5 154.5 c 128
 134 153 134 153 136 153 c 1
 174 62 l 1
 179 57 179 57 188.5 52 c 128
 198 47 198 47 208.5 43.5 c 128
 219 40 219 40 229.5 38 c 128
 240 36 240 36 248 36 c 0
 287 36 287 36 317.5 50.5 c 128
 348 65 348 65 368.5 88 c 128
 389 111 389 111 399.5 139 c 128
 410 167 410 167 410 193 c 0
 410 234 410 234 397 265 c 128
 384 296 384 296 361.5 316.5 c 128
 339 337 339 337 308 347 c 128
 277 357 277 357 241 357 c 0
 217 357 217 357 189.5 352 c 128
 162 347 162 347 139 341 c 0
 112 334 112 334 85 325 c 1
 85 671 l 1
 471 671 l 1
 471 587 l 1
 156 587 l 1
 156 398 l 1
 156 398 156 398 167.5 402 c 128
 179 406 179 406 198 410.5 c 128
 217 415 217 415 240.5 419 c 128
 264 423 264 423 288 423 c 0
 340 423 340 423 381.5 409.5 c 128
 423 396 423 396 452 370 c 128
 481 344 481 344 496.5 306 c 128
 512 268 512 268 517 216 c 1
EndSplineSet
EndChar

StartChar: six
Encoding: 22 54 25
Width: 562
GlyphClass: 1
Flags: W
LayerCount: 2
Fore
SplineSet
420 215 m 0
 420 251 420 251 410.5 280 c 128
 401 309 401 309 383 329 c 128
 365 349 365 349 339 359 c 128
 313 369 313 369 280 369 c 0
 264 369 264 369 246.5 365.5 c 128
 229 362 229 362 211.5 355.5 c 128
 194 349 194 349 177.5 340 c 128
 161 331 161 331 147 320 c 1
 146 305 146 305 146 291.5 c 128
 146 278 146 278 146 267 c 0
 146 216 146 216 153.5 174 c 128
 161 132 161 132 177.5 101.5 c 128
 194 71 194 71 219.5 54.5 c 128
 245 38 245 38 281 38 c 256
 317 38 317 38 343.5 52 c 128
 370 66 370 66 387 90 c 128
 404 114 404 114 412.5 146.5 c 128
 421 179 421 179 420 215 c 0
523 229 m 1
 523 175 523 175 504 130 c 128
 485 85 485 85 452.5 53 c 128
 420 21 420 21 376 3.5 c 128
 332 -14 332 -14 282 -14 c 256
 232 -14 232 -14 188.5 2.5 c 128
 145 19 145 19 113 55 c 128
 81 91 81 91 62.5 148.5 c 128
 44 206 44 206 44 288 c 0
 44 377 44 377 70.5 450.5 c 128
 97 524 97 524 148 576.5 c 128
 199 629 199 629 273 657.5 c 128
 347 686 347 686 442 686 c 1
 442 624 l 1
 408 624 l 1
 361 625 361 625 318 608.5 c 128
 275 592 275 592 241 559.5 c 128
 207 527 207 527 184 480 c 128
 161 433 161 433 154 374 c 1
 195 409 195 409 236.5 422.5 c 128
 278 436 278 436 319 436 c 0
 366 436 366 436 404 420.5 c 128
 442 405 442 405 469 377.5 c 128
 496 350 496 350 510.5 312 c 128
 525 274 525 274 523 229 c 1
EndSplineSet
EndChar

StartChar: seven
Encoding: 23 55 26
Width: 562
GlyphClass: 1
Flags: W
LayerCount: 2
Fore
SplineSet
192 17 m 1
 192 -16 l 1
 87 -16 l 1
 417 586 l 1
 109 586 l 1
 93 496 l 1
 43 496 l 1
 43 671 l 1
 522 671 l 1
 522 616 l 1
 192 17 l 1
EndSplineSet
EndChar

StartChar: eight
Encoding: 24 56 27
Width: 562
GlyphClass: 1
Flags: W
LayerCount: 2
Fore
SplineSet
420 166 m 1
 420 197 420 197 407 218.5 c 128
 394 240 394 240 369 257 c 128
 344 274 344 274 307.5 289 c 128
 271 304 271 304 224 323 c 1
 205 313 205 313 189 300.5 c 128
 173 288 173 288 161 272 c 128
 149 256 149 256 142 235.5 c 128
 135 215 135 215 135 189 c 0
 135 157 135 157 144.5 130 c 128
 154 103 154 103 172.5 83 c 128
 191 63 191 63 218.5 52 c 128
 246 41 246 41 282 41 c 0
 314 41 314 41 340 51 c 128
 366 61 366 61 384 78.5 c 128
 402 96 402 96 411.5 119 c 128
 421 142 421 142 420 166 c 1
403 506 m 0
 403 536 403 536 393.5 560 c 128
 384 584 384 584 367.5 600.5 c 128
 351 617 351 617 329 625.5 c 128
 307 634 307 634 283 634 c 0
 258 634 258 634 237 624.5 c 128
 216 615 216 615 201 599.5 c 128
 186 584 186 584 178 563.5 c 128
 170 543 170 543 170 521 c 0
 170 495 170 495 181 474 c 128
 192 453 192 453 212.5 435 c 128
 233 417 233 417 263.5 402 c 128
 294 387 294 387 332 373 c 1
 347 384 347 384 360 397.5 c 128
 373 411 373 411 382.5 427.5 c 128
 392 444 392 444 397.5 463.5 c 128
 403 483 403 483 403 506 c 0
522 183 m 1
 522 141 522 141 504 105 c 128
 486 69 486 69 454 43 c 128
 422 17 422 17 378 2.5 c 128
 334 -12 334 -12 283 -12 c 0
 228 -12 228 -12 184 2.5 c 128
 140 17 140 17 109 43 c 128
 78 69 78 69 61.5 104.5 c 128
 45 140 45 140 45 182 c 0
 45 216 45 216 56.5 242 c 128
 68 268 68 268 87.5 288 c 128
 107 308 107 308 132.5 322.5 c 128
 158 337 158 337 185 347 c 1
 165 355 165 355 144.5 368.5 c 128
 124 382 124 382 107.5 401 c 128
 91 420 91 420 81 444 c 128
 71 468 71 468 71 497 c 0
 71 539 71 539 86 573.5 c 128
 101 608 101 608 129 632.5 c 128
 157 657 157 657 196.5 670 c 128
 236 683 236 683 283 683 c 0
 328 683 328 683 367 670 c 128
 406 657 406 657 434.5 634 c 128
 463 611 463 611 479 580 c 128
 495 549 495 549 495 513 c 0
 495 482 495 482 483.5 456.5 c 128
 472 431 472 431 454 411 c 128
 436 391 436 391 415 376.5 c 128
 394 362 394 362 375 353 c 1
 398 345 398 345 424 332 c 128
 450 319 450 319 471.5 298.5 c 128
 493 278 493 278 507 250 c 128
 521 222 521 222 522 183 c 1
EndSplineSet
EndChar

StartChar: nine
Encoding: 25 57 28
Width: 562
GlyphClass: 1
Flags: W
LayerCount: 2
Fore
SplineSet
418 403 m 0
 418 454 418 454 410.5 496 c 128
 403 538 403 538 386.5 568.5 c 128
 370 599 370 599 344.5 615.5 c 128
 319 632 319 632 284 632 c 0
 248 632 248 632 221.5 618.5 c 128
 195 605 195 605 178 581 c 128
 161 557 161 557 152.5 524.5 c 128
 144 492 144 492 144 455 c 0
 144 419 144 419 153.5 390 c 128
 163 361 163 361 181 341 c 128
 199 321 199 321 225 311 c 128
 251 301 251 301 284 301 c 0
 300 301 300 301 317.5 304.5 c 128
 335 308 335 308 352.5 314.5 c 128
 370 321 370 321 386.5 330 c 128
 403 339 403 339 417 350 c 1
 418 365 418 365 418 378.5 c 128
 418 392 418 392 418 403 c 0
522 384 m 0
 522 295 522 295 495.5 221.5 c 128
 469 148 469 148 417.5 95.5 c 128
 366 43 366 43 292 14.5 c 128
 218 -14 218 -14 123 -14 c 1
 123 48 l 1
 156 48 l 1
 203 47 203 47 246 63.5 c 128
 289 80 289 80 323.5 112.5 c 128
 358 145 358 145 381.5 192 c 128
 405 239 405 239 412 298 c 1
 392 280 392 280 371.5 268.5 c 128
 351 257 351 257 330.5 250 c 128
 310 243 310 243 289.5 240 c 128
 269 237 269 237 249 237 c 0
 202 237 202 237 164 252.5 c 128
 126 268 126 268 99 295.5 c 128
 72 323 72 323 57.5 360.5 c 128
 43 398 43 398 43 442 c 0
 43 496 43 496 61.5 541 c 128
 80 586 80 586 112.5 618 c 128
 145 650 145 650 189 667.5 c 128
 233 685 233 685 283 685 c 256
 333 685 333 685 376.5 668.5 c 128
 420 652 420 652 452.5 616 c 128
 485 580 485 580 503.5 522.5 c 128
 522 465 522 465 522 384 c 0
EndSplineSet
EndChar

StartChar: colon
Encoding: 26 58 29
Width: 279
GlyphClass: 1
Flags: W
LayerCount: 2
Fore
SplineSet
195 55 m 0
 195 41 195 41 190 29 c 128
 185 17 185 17 176 8 c 128
 167 -1 167 -1 155 -6 c 128
 143 -11 143 -11 130 -11 c 0
 116 -11 116 -11 104.5 -6 c 128
 93 -1 93 -1 84 8 c 128
 75 17 75 17 70 29 c 128
 65 41 65 41 65 55 c 0
 65 68 65 68 70 80 c 128
 75 92 75 92 84 101 c 128
 93 110 93 110 104.5 115 c 128
 116 120 116 120 130 120 c 0
 143 120 143 120 155 115 c 128
 167 110 167 110 176 101 c 128
 185 92 185 92 190 80 c 128
 195 68 195 68 195 55 c 0
195 425 m 256
 195 412 195 412 190 400 c 128
 185 388 185 388 176 379 c 128
 167 370 167 370 155 365 c 128
 143 360 143 360 130 360 c 0
 116 360 116 360 104.5 365 c 128
 93 370 93 370 84 379 c 128
 75 388 75 388 70 400 c 128
 65 412 65 412 65 425 c 256
 65 438 65 438 70 450 c 128
 75 462 75 462 84 471 c 128
 93 480 93 480 104.5 485 c 128
 116 490 116 490 130 490 c 0
 143 490 143 490 155 485 c 128
 167 480 167 480 176 471 c 128
 185 462 185 462 190 450 c 128
 195 438 195 438 195 425 c 256
EndSplineSet
EndChar

StartChar: semicolon
Encoding: 27 59 30
Width: 279
GlyphClass: 1
Flags: W
LayerCount: 2
Fore
SplineSet
206 9 m 0
 206 -28 206 -28 192 -59 c 128
 178 -90 178 -90 154 -113.5 c 128
 130 -137 130 -137 99 -151 c 128
 68 -165 68 -165 34 -167 c 1
 34 -131 l 1
 60 -126 60 -126 80.5 -116 c 128
 101 -106 101 -106 114.5 -90 c 128
 128 -74 128 -74 135 -50.5 c 128
 142 -27 142 -27 142 7 c 1
 80 7 l 1
 80 7 80 7 77.5 10.5 c 128
 75 14 75 14 72 19.5 c 128
 69 25 69 25 67 33 c 128
 65 41 65 41 65 51 c 0
 65 64 65 64 69.5 76 c 128
 74 88 74 88 82 97.5 c 128
 90 107 90 107 101 112.5 c 128
 112 118 112 118 125 118 c 0
 146 118 146 118 161.5 109.5 c 128
 177 101 177 101 187 86.5 c 128
 197 72 197 72 201.5 51.5 c 128
 206 31 206 31 206 9 c 0
195 424 m 256
 195 411 195 411 190 399 c 128
 185 387 185 387 176 378 c 128
 167 369 167 369 155 364 c 128
 143 359 143 359 130 359 c 0
 116 359 116 359 104.5 364 c 128
 93 369 93 369 84 378 c 128
 75 387 75 387 70 399 c 128
 65 411 65 411 65 424 c 256
 65 437 65 437 70 449 c 128
 75 461 75 461 84 470 c 128
 93 479 93 479 105 484 c 128
 117 489 117 489 131 489 c 0
 144 489 144 489 156 484 c 128
 168 479 168 479 176.5 470 c 128
 185 461 185 461 190 449 c 128
 195 437 195 437 195 424 c 256
EndSplineSet
EndChar

StartChar: less
Encoding: 28 60 31
Width: 1000
GlyphClass: 1
Flags: W
LayerCount: 2
Fore
SplineSet
200 269 m 1
 200 331 l 1
 799 560 l 1
 799 498 l 1
 264 299 l 1
 799 101 l 1
 799 39 l 1
 200 269 l 1
EndSplineSet
EndChar

StartChar: equal
Encoding: 29 61 32
Width: 1000
GlyphClass: 1
Flags: W
LayerCount: 2
Fore
SplineSet
200 178 m 1
 200 240 l 1
 799 240 l 1
 799 178 l 1
 200 178 l 1
200 359 m 1
 200 421 l 1
 799 421 l 1
 799 359 l 1
 200 359 l 1
EndSplineSet
EndChar

StartChar: greater
Encoding: 30 62 33
Width: 1000
GlyphClass: 1
Flags: W
LayerCount: 2
Fore
SplineSet
200 39 m 1
 200 101 l 1
 735 299 l 1
 200 498 l 1
 200 560 l 1
 799 331 l 1
 799 269 l 1
 200 39 l 1
EndSplineSet
EndChar

StartChar: question
Encoding: 31 63 34
Width: 485
GlyphClass: 1
Flags: W
LayerCount: 2
Fore
SplineSet
416 507 m 1
 416 476 416 476 407.5 450 c 128
 399 424 399 424 384.5 403 c 128
 370 382 370 382 351 365.5 c 128
 332 349 332 349 311.5 336 c 128
 291 323 291 323 269.5 312.5 c 128
 248 302 248 302 229 294 c 1
 229 184 l 1
 173 184 l 1
 173 329 l 1
 196 336 196 336 221.5 350 c 128
 247 364 247 364 268 385 c 128
 289 406 289 406 302.5 435 c 128
 316 464 316 464 316 501 c 0
 316 570 316 570 279 604 c 128
 242 638 242 638 174 638 c 1
 133 536 l 1
 129 536 129 536 126 536 c 0
 124 536 124 536 122 536 c 2
 119 536 l 2
 106 536 106 536 94.5 538.5 c 128
 83 541 83 541 74.5 547.5 c 128
 66 554 66 554 61 564 c 128
 56 574 56 574 56 588 c 0
 56 605 56 605 65.5 622.5 c 128
 75 640 75 640 94.5 653.5 c 128
 114 667 114 667 143.5 675.5 c 128
 173 684 173 684 214 684 c 0
 258 684 258 684 296 671.5 c 128
 334 659 334 659 361.5 636 c 128
 389 613 389 613 404.5 580 c 128
 420 547 420 547 416 507 c 1
266 47 m 0
 266 35 266 35 261.5 24.5 c 128
 257 14 257 14 248.5 6 c 128
 240 -2 240 -2 229 -6.5 c 128
 218 -11 218 -11 206 -11 c 256
 194 -11 194 -11 183 -6.5 c 128
 172 -2 172 -2 164 6.5 c 128
 156 15 156 15 151.5 26 c 128
 147 37 147 37 147 49 c 256
 147 61 147 61 151.5 72 c 128
 156 83 156 83 164 91 c 128
 172 99 172 99 183 103.5 c 128
 194 108 194 108 206 108 c 0
 219 108 219 108 230 103.5 c 128
 241 99 241 99 249 90.5 c 128
 257 82 257 82 261.5 71 c 128
 266 60 266 60 266 47 c 0
EndSplineSet
EndChar

StartChar: at
Encoding: 32 64 35
Width: 936
GlyphClass: 1
Flags: W
LayerCount: 2
Fore
SplineSet
583 393 m 2
 584 399 584 399 580.5 408.5 c 128
 577 418 577 418 569 427 c 128
 561 436 561 436 550 442.5 c 128
 539 449 539 449 526 449 c 0
 489 449 489 449 459.5 432 c 128
 430 415 430 415 409.5 385 c 128
 389 355 389 355 378 315 c 128
 367 275 367 275 367 230 c 0
 367 176 367 176 387 149.5 c 128
 407 123 407 123 444 123 c 0
 460 123 460 123 475 129.5 c 128
 490 136 490 136 502.5 145.5 c 128
 515 155 515 155 525.5 166 c 128
 536 177 536 177 543 186 c 1
 583 393 l 2
862 373 m 1
 862 323 862 323 851.5 280 c 128
 841 237 841 237 822.5 202 c 128
 804 167 804 167 779.5 140 c 128
 755 113 755 113 728 95 c 128
 701 77 701 77 673.5 68 c 128
 646 59 646 59 622 59 c 0
 581 59 581 59 563 79.5 c 128
 545 100 545 100 545 141 c 1
 506 102 506 102 471 81 c 128
 436 60 436 60 401 60 c 0
 374 60 374 60 351.5 71 c 128
 329 82 329 82 312.5 103 c 128
 296 124 296 124 287 154 c 128
 278 184 278 184 278 221 c 0
 278 278 278 278 299 327.5 c 128
 320 377 320 377 354.5 413.5 c 128
 389 450 389 450 433.5 470.5 c 128
 478 491 478 491 525 491 c 0
 535 491 535 491 547.5 489.5 c 128
 560 488 560 488 572.5 484.5 c 128
 585 481 585 481 597 476 c 128
 609 471 609 471 620 466 c 1
 638 488 l 1
 693 488 l 1
 693 486 693 486 690 472 c 128
 687 458 687 458 682.5 437 c 128
 678 416 678 416 672 389.5 c 128
 666 363 666 363 661 337 c 0
 647 274 647 274 630 195 c 0
 626 178 626 178 626 164 c 128
 626 150 626 150 630 140 c 128
 634 130 634 130 643 124.5 c 128
 652 119 652 119 666 119 c 0
 687 119 687 119 713.5 137 c 128
 740 155 740 155 762.5 188.5 c 128
 785 222 785 222 800.5 270 c 128
 816 318 816 318 816 377 c 0
 816 447 816 447 792.5 498.5 c 128
 769 550 769 550 730 583.5 c 128
 691 617 691 617 641 633.5 c 128
 591 650 591 650 539 650 c 0
 482 650 482 650 431 637 c 128
 380 624 380 624 337 599.5 c 128
 294 575 294 575 259.5 540 c 128
 225 505 225 505 201 462 c 128
 177 419 177 419 164 368.5 c 128
 151 318 151 318 151 263 c 0
 151 187 151 187 174.5 121.5 c 128
 198 56 198 56 242.5 8 c 128
 287 -40 287 -40 351.5 -67.5 c 128
 416 -95 416 -95 499 -95 c 0
 542 -95 542 -95 580 -88.5 c 128
 618 -82 618 -82 650.5 -71.5 c 128
 683 -61 683 -61 710.5 -48 c 128
 738 -35 738 -35 760 -23 c 1
 774 -59 l 1
 741 -77 741 -77 706 -92.5 c 128
 671 -108 671 -108 634 -119.5 c 128
 597 -131 597 -131 557.5 -138 c 128
 518 -145 518 -145 475 -145 c 0
 422 -145 422 -145 372 -133 c 128
 322 -121 322 -121 278 -98 c 128
 234 -75 234 -75 197.5 -41.5 c 128
 161 -8 161 -8 135 35 c 128
 109 78 109 78 94.5 130.5 c 128
 80 183 80 183 80 243 c 0
 80 317 80 317 97.5 379 c 128
 115 441 115 441 146 491 c 128
 177 541 177 541 219.5 579 c 128
 262 617 262 617 311.5 642 c 128
 361 667 361 667 415.5 679.5 c 128
 470 692 470 692 525 692 c 0
 599 692 599 692 661.5 671.5 c 128
 724 651 724 651 769 611 c 128
 814 571 814 571 839.5 512 c 128
 865 453 865 453 862 373 c 1
EndSplineSet
EndChar

StartChar: A
Encoding: 33 65 36
Width: 673
GlyphClass: 1
Flags: W
LayerCount: 2
Fore
SplineSet
313 558 m 1
 216 296 l 1
 411 296 l 1
 313 558 l 1
430 1 m 1
 430 43 l 1
 487 47 l 2
 491 47 491 47 494 53.5 c 128
 497 60 497 60 496 63 c 2
 428 246 l 1
 198 246 l 1
 132 66 l 2
 132 64 132 64 132.5 61 c 128
 133 58 133 58 135 55 c 128
 137 52 137 52 139.5 50.5 c 128
 142 49 142 49 144 49 c 2
 203 45 l 1
 203 3 l 1
 2 3 l 1
 2 45 l 1
 60 57 l 1
 292 688 l 1
 367 688 l 1
 598 71 l 2
 601 61 601 61 604 58 c 128
 607 55 607 55 618 54 c 2
 662 47 l 1
 662 5 l 1
 430 1 l 1
EndSplineSet
EndChar

StartChar: B
Encoding: 34 66 37
Width: 604
GlyphClass: 1
Flags: W
LayerCount: 2
Fore
SplineSet
565 198 m 0
 565 158 565 158 554 127.5 c 128
 543 97 543 97 523.5 75.5 c 128
 504 54 504 54 478.5 40 c 128
 453 26 453 26 425 17.5 c 128
 397 9 397 9 368 6 c 128
 339 3 339 3 313 3 c 2
 34 3 l 1
 34 45 l 1
 86 48 l 2
 96 48 96 48 101 54.5 c 128
 106 61 106 61 106 68 c 2
 106 601 l 2
 106 608 106 608 101 614.5 c 128
 96 621 96 621 86 621 c 2
 34 624 l 1
 34 666 l 1
 301 666 l 2
 360 666 360 666 402.5 655.5 c 128
 445 645 445 645 472 624.5 c 128
 499 604 499 604 511.5 574.5 c 128
 524 545 524 545 524 508 c 256
 524 471 524 471 510 445 c 128
 496 419 496 419 475 401 c 128
 454 383 454 383 429 372.5 c 128
 404 362 404 362 383 357 c 1
 416 357 416 357 448.5 349 c 128
 481 341 481 341 507 322.5 c 128
 533 304 533 304 549 274 c 128
 565 244 565 244 565 198 c 0
457 192 m 1
 457 260 457 260 416.5 291.5 c 128
 376 323 376 323 296 323 c 0
 284 323 284 323 269.5 322.5 c 128
 255 322 255 322 242 321.5 c 128
 229 321 229 321 219.5 320.5 c 128
 210 320 210 320 209 320 c 1
 209 56 l 1
 221 56 221 56 232 56 c 0
 241 56 241 56 251 56 c 128
 261 56 261 56 268 56 c 0
 320 56 320 56 355.5 64.5 c 128
 391 73 391 73 413 90.5 c 128
 435 108 435 108 444.5 134 c 128
 454 160 454 160 457 192 c 1
414 508 m 1
 414 567 414 567 376 598 c 128
 338 629 338 629 261 629 c 0
 254 629 254 629 245 629 c 128
 236 629 236 629 228 629 c 128
 220 629 220 629 214 629 c 128
 208 629 208 629 206 629 c 1
 206 377 l 1
 212 377 212 377 218 377 c 0
 223 377 223 377 228 377 c 2
 238 377 l 2
 286 377 286 377 319 386 c 128
 352 395 352 395 372.5 412 c 128
 393 429 393 429 402 454 c 128
 411 479 411 479 414 508 c 1
EndSplineSet
EndChar

StartChar: C
Encoding: 35 67 38
Width: 626
GlyphClass: 1
Flags: W
LayerCount: 2
Fore
SplineSet
587 22 m 2
 586 22 586 22 569 16 c 128
 552 10 552 10 525 3 c 128
 498 -4 498 -4 463 -9.5 c 128
 428 -15 428 -15 390 -15 c 0
 334 -15 334 -15 286.5 -2 c 128
 239 11 239 11 200.5 34.5 c 128
 162 58 162 58 132.5 91 c 128
 103 124 103 124 83 163 c 128
 63 202 63 202 53 245.5 c 128
 43 289 43 289 43 334 c 0
 43 411 43 411 68 475 c 128
 93 539 93 539 138.5 585 c 128
 184 631 184 631 248 656.5 c 128
 312 682 312 682 390 682 c 0
 414 682 414 682 436.5 679.5 c 128
 459 677 459 677 482 672.5 c 128
 505 668 505 668 530.5 661 c 128
 556 654 556 654 586 645 c 1
 586 489 l 1
 526 489 l 1
 512 579 l 2
 512 585 512 585 506.5 591.5 c 128
 501 598 501 598 497 600 c 0
 492 602 492 602 482.5 606 c 128
 473 610 473 610 460 614 c 128
 447 618 447 618 431 621 c 128
 415 624 415 624 397 624 c 0
 346 624 346 624 302.5 605 c 128
 259 586 259 586 227 549 c 128
 195 512 195 512 177 457.5 c 128
 159 403 159 403 159 332 c 0
 159 263 159 263 176 208 c 128
 193 153 193 153 225.5 114.5 c 128
 258 76 258 76 304.5 56 c 128
 351 36 351 36 410 36 c 0
 427 36 427 36 441 38 c 128
 455 40 455 40 465.5 43 c 128
 476 46 476 46 481.5 48.5 c 128
 487 51 487 51 487 51 c 1
 494 53 494 53 498.5 58 c 128
 503 63 503 63 504 69 c 2
 526 177 l 1
 584 177 l 1
 587 22 l 2
EndSplineSet
EndChar

StartChar: D
Encoding: 36 68 39
Width: 695
GlyphClass: 1
Flags: W
LayerCount: 2
Fore
SplineSet
543 334 m 0
 543 412 543 412 525 466.5 c 128
 507 521 507 521 473.5 555 c 128
 440 589 440 589 392 604 c 128
 344 619 344 619 285 619 c 2
 209 619 l 1
 209 44 l 1
 290 44 l 2
 347 44 347 44 394 59.5 c 128
 441 75 441 75 474 109 c 128
 507 143 507 143 525 197 c 128
 543 251 543 251 543 334 c 0
656 330 m 0
 656 287 656 287 648 245.5 c 128
 640 204 640 204 622.5 166.5 c 128
 605 129 605 129 577.5 98 c 128
 550 67 550 67 511.5 44.5 c 128
 473 22 473 22 423 9.5 c 128
 373 -3 373 -3 311 -3 c 2
 34 -3 l 1
 34 39 l 1
 86 42 l 2
 96 42 96 42 101.5 48.5 c 128
 107 55 107 55 107 62 c 2
 107 595 l 2
 107 602 107 602 101.5 608.5 c 128
 96 615 96 615 86 615 c 2
 34 618 l 1
 34 660 l 1
 291 660 l 2
 369 660 369 660 436 640.5 c 128
 503 621 503 621 552 580 c 128
 601 539 601 539 628.5 476.5 c 128
 656 414 656 414 656 330 c 0
EndSplineSet
EndChar

StartChar: E
Encoding: 37 69 40
Width: 583
GlyphClass: 1
Flags: W
LayerCount: 2
Fore
SplineSet
32 0 m 1
 32 42 l 1
 83 45 l 2
 93 45 93 45 98.5 51.5 c 128
 104 58 104 58 104 65 c 2
 104 598 l 2
 104 605 104 605 98.5 611.5 c 128
 93 618 93 618 83 618 c 2
 32 621 l 1
 32 663 l 1
 517 663 l 1
 517 515 l 1
 457 515 l 1
 442 597 l 1
 442 604 442 604 437 609.5 c 128
 432 615 432 615 426 615 c 2
 210 615 l 1
 210 366 l 1
 359 366 l 2
 365 366 365 366 370.5 371.5 c 128
 376 377 376 377 376 382 c 2
 386 450 l 1
 436 450 l 1
 436 227 l 1
 386 227 l 1
 376 296 l 2
 376 301 376 301 370.5 307 c 128
 365 313 365 313 359 313 c 2
 210 313 l 1
 210 38 l 1
 462 38 l 2
 468 38 468 38 473 44.5 c 128
 478 51 478 51 478 56 c 2
 496 155 l 1
 549 155 l 1
 549 -11 l 1
 32 0 l 1
EndSplineSet
EndChar

StartChar: F
Encoding: 38 70 41
Width: 541
GlyphClass: 1
Flags: W
LayerCount: 2
Fore
SplineSet
452 512 m 1
 438 603 l 2
 437 610 437 610 433 615 c 128
 429 620 429 620 423 620 c 2
 211 620 l 1
 211 360 l 1
 363 360 l 2
 369 360 369 360 374 366 c 128
 379 372 379 372 379 377 c 2
 388 447 l 1
 437 447 l 1
 437 222 l 1
 388 222 l 1
 379 291 l 2
 379 296 379 296 374 302 c 128
 369 308 369 308 363 308 c 2
 211 308 l 1
 211 64 l 2
 211 57 211 57 216 50.5 c 128
 221 44 221 44 231 44 c 2
 297 41 l 1
 297 -1 l 1
 35 -1 l 1
 35 41 l 1
 87 44 l 2
 97 44 97 44 102 50.5 c 128
 107 57 107 57 107 64 c 2
 107 597 l 2
 107 604 107 604 102 610.5 c 128
 97 617 97 617 87 617 c 2
 26 620 l 1
 26 662 l 1
 512 662 l 1
 512 504 l 1
 452 512 l 1
EndSplineSet
EndChar

StartChar: G
Encoding: 39 71 42
Width: 694
GlyphClass: 1
Flags: W
LayerCount: 2
Fore
SplineSet
619 275 m 2
 609 275 609 275 604 269 c 128
 599 263 599 263 599 256 c 2
 599 26 l 1
 569 15 569 15 535 7 c 0
 506 0 506 0 468.5 -6 c 128
 431 -12 431 -12 391 -12 c 0
 336 -12 336 -12 288.5 1 c 128
 241 14 241 14 202.5 37.5 c 128
 164 61 164 61 134.5 93.5 c 128
 105 126 105 126 85 165 c 128
 65 204 65 204 55 248 c 128
 45 292 45 292 45 338 c 0
 45 416 45 416 69.5 480.5 c 128
 94 545 94 545 140.5 590.5 c 128
 187 636 187 636 254 661 c 128
 321 686 321 686 404 686 c 0
 432 686 432 686 457.5 683 c 128
 483 680 483 680 506.5 675.5 c 128
 530 671 530 671 552.5 665 c 128
 575 659 575 659 597 654 c 1
 597 493 l 1
 537 493 l 1
 521 582 l 2
 520 590 520 590 514.5 596 c 128
 509 602 509 602 503 604 c 0
 496 606 496 606 486 610 c 128
 476 614 476 614 463 618 c 128
 450 622 450 622 434.5 624.5 c 128
 419 627 419 627 402 627 c 0
 348 627 348 627 303.5 608 c 128
 259 589 259 589 227 552.5 c 128
 195 516 195 516 177.5 462.5 c 128
 160 409 160 409 160 340 c 0
 160 269 160 269 178 213 c 128
 196 157 196 157 229 118.5 c 128
 262 80 262 80 309 60 c 128
 356 40 356 40 414 40 c 0
 430 40 430 40 445 42 c 128
 460 44 460 44 471.5 46.5 c 128
 483 49 483 49 490.5 51 c 128
 498 53 498 53 499 53 c 1
 499 252 l 2
 499 259 499 259 494 265 c 128
 489 271 489 271 479 271 c 2
 413 275 l 1
 413 318 l 1
 673 318 l 1
 673 275 l 1
 619 275 l 2
EndSplineSet
EndChar

StartChar: H
Encoding: 40 72 43
Width: 743
GlyphClass: 1
Flags: W
LayerCount: 2
Fore
SplineSet
458 0 m 1
 458 42 l 1
 515 45 l 2
 525 45 525 45 530 51.5 c 128
 535 58 535 58 535 65 c 2
 535 323 l 1
 206 323 l 1
 206 65 l 2
 206 58 206 58 211 51.5 c 128
 216 45 216 45 226 45 c 2
 283 42 l 1
 283 0 l 1
 31 0 l 1
 31 42 l 1
 82 45 l 2
 92 45 92 45 97.5 51.5 c 128
 103 58 103 58 103 65 c 2
 103 598 l 2
 103 605 103 605 97.5 611 c 128
 92 617 92 617 82 617 c 2
 31 620 l 1
 31 663 l 1
 283 663 l 1
 283 620 l 1
 226 617 l 2
 216 617 216 617 211 611 c 128
 206 605 206 605 206 598 c 2
 206 373 l 1
 535 373 l 1
 535 598 l 2
 535 605 535 605 530 611 c 128
 525 617 525 617 515 617 c 2
 458 620 l 1
 458 663 l 1
 710 663 l 1
 710 620 l 1
 659 617 l 2
 649 617 649 617 643.5 611 c 128
 638 605 638 605 638 598 c 2
 638 65 l 2
 638 58 638 58 643.5 51.5 c 128
 649 45 649 45 659 45 c 2
 710 42 l 1
 710 0 l 1
 458 0 l 1
EndSplineSet
EndChar

StartChar: I
Encoding: 41 73 44
Width: 330
GlyphClass: 1
Flags: W
LayerCount: 2
Fore
SplineSet
33 0 m 1
 33 42 l 1
 92 45 l 2
 102 45 102 45 107 51.5 c 128
 112 58 112 58 112 65 c 2
 112 598 l 2
 112 605 112 605 107 611 c 128
 102 617 102 617 92 617 c 2
 33 620 l 1
 33 663 l 1
 296 663 l 1
 296 620 l 1
 235 617 l 2
 225 617 225 617 220 611 c 128
 215 605 215 605 215 598 c 2
 215 65 l 2
 215 58 215 58 220 51.5 c 128
 225 45 225 45 235 45 c 2
 296 42 l 1
 296 0 l 1
 33 0 l 1
EndSplineSet
EndChar

StartChar: J
Encoding: 42 74 45
Width: 484
GlyphClass: 1
Flags: W
LayerCount: 2
Fore
SplineSet
400 624 m 2
 390 624 390 624 385 617.5 c 128
 380 611 380 611 380 604 c 2
 380 255 l 2
 380 193 380 193 368.5 143.5 c 128
 357 94 357 94 331.5 59.5 c 128
 306 25 306 25 264.5 6.5 c 128
 223 -12 223 -12 163 -12 c 0
 139 -12 139 -12 116 -8 c 128
 93 -4 93 -4 74.5 1 c 128
 56 6 56 6 44 10 c 128
 32 14 32 14 31 14 c 1
 31 184 l 1
 91 184 l 1
 112 62 l 2
 113 55 113 55 117.5 50 c 128
 122 45 122 45 128 42.5 c 128
 134 40 134 40 141.5 39 c 128
 149 38 149 38 156 38 c 0
 190 38 190 38 213.5 51 c 128
 237 64 237 64 252 90 c 128
 267 116 267 116 273.5 155.5 c 128
 280 195 280 195 280 247 c 2
 280 602 l 2
 280 609 280 609 275 615.5 c 128
 270 622 270 622 260 622 c 2
 198 625 l 1
 198 667 l 1
 462 667 l 1
 462 625 l 1
 400 624 l 2
EndSplineSet
EndChar

StartChar: K
Encoding: 43 75 46
Width: 638
GlyphClass: 1
Flags: W
LayerCount: 2
Fore
SplineSet
462 0 m 1
 462 30 l 1
 276 297 l 1
 207 297 l 1
 207 68 l 2
 207 61 207 61 212.5 54.5 c 128
 218 48 218 48 228 48 c 2
 285 45 l 1
 285 3 l 1
 32 3 l 1
 32 45 l 1
 84 48 l 2
 94 48 94 48 99 54.5 c 128
 104 61 104 61 104 68 c 2
 104 601 l 2
 104 608 104 608 99 614.5 c 128
 94 621 94 621 84 621 c 2
 32 624 l 1
 32 666 l 1
 285 666 l 1
 285 624 l 1
 228 621 l 2
 218 621 218 621 212.5 614.5 c 128
 207 608 207 608 207 601 c 2
 207 339 l 1
 243 339 l 1
 460 605 l 2
 463 609 463 609 460 614.5 c 128
 457 620 457 620 453 620 c 2
 402 624 l 1
 402 666 l 1
 613 666 l 1
 613 624 l 1
 596 623 596 623 582 622 c 0
 570 621 570 621 559.5 620 c 128
 549 619 549 619 547 619 c 1
 343 375 l 1
 567 47 l 1
 639 43 l 1
 639 1 l 1
 462 0 l 1
EndSplineSet
EndChar

StartChar: L
Encoding: 44 76 47
Width: 530
GlyphClass: 1
Flags: W
LayerCount: 2
Fore
SplineSet
26 0 m 1
 26 42 l 1
 84 45 l 2
 94 45 94 45 99 51.5 c 128
 104 58 104 58 104 65 c 2
 104 598 l 2
 104 605 104 605 99 611.5 c 128
 94 618 94 618 84 618 c 2
 26 621 l 1
 26 663 l 1
 281 663 l 1
 281 621 l 1
 228 618 l 2
 218 618 218 618 212.5 611.5 c 128
 207 605 207 605 207 598 c 2
 207 45 l 1
 416 45 l 2
 422 45 422 45 429 50 c 128
 436 55 436 55 436 61 c 2
 452 181 l 1
 510 181 l 1
 510 -5 l 1
 26 0 l 1
EndSplineSet
EndChar

StartChar: M
Encoding: 45 77 48
Width: 875
GlyphClass: 1
Flags: W
LayerCount: 2
Fore
SplineSet
592 0 m 1
 592 42 l 1
 645 45 l 2
 655 45 655 45 660.5 51.5 c 128
 666 58 666 58 666 65 c 2
 666 616 l 1
 437 -4 l 1
 388 -4 l 1
 166 606 l 1
 166 65 l 2
 166 58 166 58 171.5 51.5 c 128
 177 45 177 45 187 45 c 2
 244 42 l 1
 244 0 l 1
 28 0 l 1
 28 42 l 1
 85 45 l 2
 95 45 95 45 100 51.5 c 128
 105 58 105 58 105 65 c 2
 105 598 l 2
 105 605 105 605 100 611.5 c 128
 95 618 95 618 85 618 c 2
 28 621 l 1
 28 663 l 1
 252 663 l 1
 252 637 l 1
 433 146 l 1
 614 634 l 1
 614 663 l 1
 843 663 l 1
 843 621 l 1
 789 618 l 2
 779 618 779 618 773.5 611.5 c 128
 768 605 768 605 768 598 c 2
 768 65 l 2
 768 58 768 58 773.5 51.5 c 128
 779 45 779 45 789 45 c 2
 843 42 l 1
 843 0 l 1
 592 0 l 1
EndSplineSet
EndChar

StartChar: N
Encoding: 46 78 49
Width: 721
GlyphClass: 1
Flags: W
LayerCount: 2
Fore
SplineSet
636 624 m 2
 626 624 626 624 621 617.5 c 128
 616 611 616 611 616 604 c 2
 616 2 l 1
 538 2 l 1
 166 562 l 1
 166 71 l 2
 166 64 166 64 171 57.5 c 128
 176 51 176 51 186 51 c 2
 243 48 l 1
 243 6 l 1
 27 6 l 1
 27 48 l 1
 84 51 l 2
 94 51 94 51 99.5 57.5 c 128
 105 64 105 64 105 71 c 2
 105 604 l 2
 105 611 105 611 99.5 617.5 c 128
 94 624 94 624 84 624 c 2
 25 627 l 1
 25 669 l 1
 223 669 l 1
 223 645 l 1
 556 143 l 1
 556 601 l 2
 556 608 556 608 551 614.5 c 128
 546 621 546 621 536 621 c 2
 479 624 l 1
 479 666 l 1
 692 666 l 1
 692 624 l 1
 636 624 l 2
EndSplineSet
EndChar

StartChar: O
Encoding: 47 79 50
Width: 730
GlyphClass: 1
Flags: W
LayerCount: 2
Fore
SplineSet
576 333 m 1
 576 394 576 394 563 447.5 c 128
 550 501 550 501 524 541 c 128
 498 581 498 581 459 604 c 128
 420 627 420 627 368 627 c 0
 314 627 314 627 274 604 c 128
 234 581 234 581 208 541 c 128
 182 501 182 501 169.5 448 c 128
 157 395 157 395 157 336 c 0
 157 276 157 276 169.5 222.5 c 128
 182 169 182 169 208 128.5 c 128
 234 88 234 88 273 64.5 c 128
 312 41 312 41 365 41 c 0
 419 41 419 41 458.5 64.5 c 128
 498 88 498 88 524 128 c 128
 550 168 550 168 562.5 221 c 128
 575 274 575 274 576 333 c 1
690 334 m 0
 690 262 690 262 667 198.5 c 128
 644 135 644 135 601.5 87.5 c 128
 559 40 559 40 499 12.5 c 128
 439 -15 439 -15 366 -15 c 256
 293 -15 293 -15 233 11.5 c 128
 173 38 173 38 130.5 85 c 128
 88 132 88 132 65 196 c 128
 42 260 42 260 42 335 c 0
 42 408 42 408 64.5 471.5 c 128
 87 535 87 535 129 582.5 c 128
 171 630 171 630 231 657 c 128
 291 684 291 684 365 684 c 256
 439 684 439 684 499 656.5 c 128
 559 629 559 629 601.5 581.5 c 128
 644 534 644 534 667 470.5 c 128
 690 407 690 407 690 334 c 0
EndSplineSet
EndChar

StartChar: P
Encoding: 48 80 51
Width: 579
GlyphClass: 1
Flags: W
LayerCount: 2
Fore
SplineSet
436 467 m 0
 436 503 436 503 426.5 531.5 c 128
 417 560 417 560 396 579.5 c 128
 375 599 375 599 341.5 609 c 128
 308 619 308 619 261 619 c 0
 255 619 255 619 246.5 619 c 128
 238 619 238 619 231 619 c 0
 223 619 223 619 214 619 c 1
 214 305 l 1
 214 305 214 305 220 304.5 c 128
 226 304 226 304 234 303 c 128
 242 302 242 302 251 301.5 c 128
 260 301 260 301 267 301 c 0
 306 301 306 301 337.5 310.5 c 128
 369 320 369 320 391 340.5 c 128
 413 361 413 361 425 392.5 c 128
 437 424 437 424 436 467 c 0
541 468 m 1
 541 413 541 413 520.5 372 c 128
 500 331 500 331 465 304 c 128
 430 277 430 277 382.5 264 c 128
 335 251 335 251 281 251 c 0
 272 251 272 251 261 251 c 128
 250 251 250 251 240 251.5 c 128
 230 252 230 252 222.5 252 c 128
 215 252 215 252 214 252 c 1
 214 66 l 2
 214 59 214 59 219 52.5 c 128
 224 46 224 46 234 46 c 2
 299 43 l 1
 299 1 l 1
 37 1 l 1
 37 43 l 1
 89 46 l 2
 99 46 99 46 104.5 52.5 c 128
 110 59 110 59 110 66 c 2
 110 599 l 2
 110 606 110 606 104.5 612.5 c 128
 99 619 99 619 89 619 c 2
 29 622 l 1
 29 664 l 1
 268 664 l 2
 338 664 338 664 390 653.5 c 128
 442 643 442 643 475.5 619.5 c 128
 509 596 509 596 525.5 558 c 128
 542 520 542 520 541 468 c 1
EndSplineSet
EndChar

StartChar: Q
Encoding: 49 81 52
Width: 738
GlyphClass: 1
Flags: W
LayerCount: 2
Fore
SplineSet
582 334 m 0
 582 393 582 393 569.5 446 c 128
 557 499 557 499 531 539.5 c 128
 505 580 505 580 465 604 c 128
 425 628 425 628 370 628 c 0
 316 628 316 628 276 605 c 128
 236 582 236 582 210 542 c 128
 184 502 184 502 171.5 449 c 128
 159 396 159 396 159 337 c 0
 159 279 159 279 172 225.5 c 128
 185 172 185 172 211.5 131 c 128
 238 90 238 90 278 66 c 128
 318 42 318 42 371 42 c 0
 425 42 425 42 465 66 c 128
 505 90 505 90 531 130.5 c 128
 557 171 557 171 569.5 224.5 c 128
 582 278 582 278 582 334 c 0
700 336 m 0
 700 269 700 269 681.5 210.5 c 128
 663 152 663 152 627.5 107 c 128
 592 62 592 62 541 32 c 128
 490 2 490 2 426 -8 c 1
 426 -64 426 -64 459.5 -96 c 128
 493 -128 493 -128 562 -128 c 0
 580 -128 580 -128 596 -127 c 128
 612 -126 612 -126 624.5 -124.5 c 128
 637 -123 637 -123 645.5 -121.5 c 128
 654 -120 654 -120 657 -120 c 1
 657 -162 l 1
 652 -162 652 -162 638.5 -164.5 c 128
 625 -167 625 -167 605 -169.5 c 128
 585 -172 585 -172 561 -174 c 128
 537 -176 537 -176 511 -176 c 0
 459 -176 459 -176 422.5 -164.5 c 128
 386 -153 386 -153 363 -131.5 c 128
 340 -110 340 -110 330 -79 c 128
 320 -48 320 -48 320 -10 c 1
 260 -2 260 -2 209.5 25.5 c 128
 159 53 159 53 122 97.5 c 128
 85 142 85 142 64.5 202.5 c 128
 44 263 44 263 44 336 c 0
 44 384 44 384 54 429 c 128
 64 474 64 474 83.5 513 c 128
 103 552 103 552 131.5 583.5 c 128
 160 615 160 615 196.5 637.5 c 128
 233 660 233 660 276.5 672 c 128
 320 684 320 684 369 684 c 0
 445 684 445 684 506 657 c 128
 567 630 567 630 610 583 c 128
 653 536 653 536 676 472 c 128
 699 408 699 408 700 336 c 0
EndSplineSet
EndChar

StartChar: R
Encoding: 50 82 53
Width: 648
GlyphClass: 1
Flags: W
LayerCount: 2
Fore
SplineSet
429 488 m 1
 429 520 429 520 419.5 544.5 c 128
 410 569 410 569 389 586 c 128
 368 603 368 603 335 611.5 c 128
 302 620 302 620 255 620 c 2
 210 620 l 1
 210 347 l 1
 210 347 210 347 215.5 347 c 128
 221 347 221 347 228.5 347 c 128
 236 347 236 347 244 347 c 128
 252 347 252 347 257 347 c 0
 298 347 298 347 330 354 c 128
 362 361 362 361 383.5 377.5 c 128
 405 394 405 394 416 421 c 128
 427 448 427 448 429 488 c 1
646 -3 m 1
 643 -3 643 -3 637 -4.5 c 128
 631 -6 631 -6 622.5 -8 c 128
 614 -10 614 -10 604 -11.5 c 128
 594 -13 594 -13 583 -13 c 0
 539 -13 539 -13 511.5 0 c 128
 484 13 484 13 467 35 c 128
 450 57 450 57 440.5 85 c 128
 431 113 431 113 423 142.5 c 128
 415 172 415 172 405 200 c 128
 395 228 395 228 377 250 c 128
 359 272 359 272 330.5 285 c 128
 302 298 302 298 257 298 c 0
 250 298 250 298 242.5 298 c 128
 235 298 235 298 229 298 c 128
 223 298 223 298 219 298 c 128
 215 298 215 298 215 298 c 1
 215 70 l 2
 215 63 215 63 220 56.5 c 128
 225 50 225 50 235 50 c 2
 287 47 l 1
 287 5 l 1
 39 5 l 1
 39 47 l 1
 90 50 l 2
 100 50 100 50 105.5 56.5 c 128
 111 63 111 63 111 70 c 2
 111 603 l 2
 111 610 111 610 105.5 616.5 c 128
 100 623 100 623 90 623 c 2
 39 626 l 1
 39 668 l 1
 299 668 l 2
 356 668 356 668 401 659 c 128
 446 650 446 650 477.5 629.5 c 128
 509 609 509 609 525.5 575.5 c 128
 542 542 542 542 542 493 c 0
 542 454 542 454 528.5 426 c 128
 515 398 515 398 492.5 378.5 c 128
 470 359 470 359 440.5 347 c 128
 411 335 411 335 380 328 c 1
 420 319 420 319 444 302 c 128
 468 285 468 285 482 263.5 c 128
 496 242 496 242 502.5 217.5 c 128
 509 193 509 193 514 169 c 128
 519 145 519 145 525.5 123.5 c 128
 532 102 532 102 546 85 c 128
 560 68 560 68 584.5 58 c 128
 609 48 609 48 650 48 c 1
 646 -3 l 1
EndSplineSet
EndChar

StartChar: S
Encoding: 51 83 54
Width: 520
GlyphClass: 1
Flags: W
LayerCount: 2
Fore
SplineSet
481 187 m 1
 481 149 481 149 466.5 112.5 c 128
 452 76 452 76 420 47.5 c 128
 388 19 388 19 338 1.5 c 128
 288 -16 288 -16 218 -16 c 0
 177 -16 177 -16 145 -10.5 c 128
 113 -5 113 -5 90 1 c 1
 64 9 64 9 43 19 c 1
 43 196 l 1
 105 196 l 1
 118 83 l 2
 118 78 118 78 123 71.5 c 128
 128 65 128 65 133 63 c 2
 141 59 l 2
 148 56 148 56 160.5 52 c 128
 173 48 173 48 191 45 c 128
 209 42 209 42 232 42 c 0
 263 42 263 42 290 50 c 128
 317 58 317 58 336.5 73 c 128
 356 88 356 88 366.5 109.5 c 128
 377 131 377 131 377 158 c 0
 377 188 377 188 360 210.5 c 128
 343 233 343 233 317 250.5 c 128
 291 268 291 268 260.5 282 c 128
 230 296 230 296 203 309 c 0
 173 323 173 323 145 338.5 c 128
 117 354 117 354 96 374.5 c 128
 75 395 75 395 63 422.5 c 128
 51 450 51 450 51 488 c 0
 51 532 51 532 68.5 568 c 128
 86 604 86 604 117 629.5 c 128
 148 655 148 655 190 668.5 c 128
 232 682 232 682 281 682 c 0
 309 682 309 682 334 679 c 128
 359 676 359 676 380.5 671 c 128
 402 666 402 666 420.5 660.5 c 128
 439 655 439 655 455 650 c 1
 455 495 l 1
 398 495 l 1
 383 590 l 2
 383 594 383 594 378.5 598.5 c 128
 374 603 374 603 370 605 c 2
 370 605 370 605 365 608.5 c 128
 360 612 360 612 350 615.5 c 128
 340 619 340 619 324 622 c 128
 308 625 308 625 286 625 c 0
 256 625 256 625 232.5 616.5 c 128
 209 608 209 608 192.5 592.5 c 128
 176 577 176 577 167 556 c 128
 158 535 158 535 158 510 c 0
 158 488 158 488 167 469.5 c 128
 176 451 176 451 193.5 435.5 c 128
 211 420 211 420 236.5 406.5 c 128
 262 393 262 393 295 381 c 0
 340 364 340 364 375 345.5 c 128
 410 327 410 327 434 304.5 c 128
 458 282 458 282 470.5 253.5 c 128
 483 225 483 225 481 187 c 1
EndSplineSet
EndChar

StartChar: T
Encoding: 52 84 55
Width: 599
GlyphClass: 1
Flags: W
LayerCount: 2
Fore
SplineSet
523 511 m 1
 509 604 l 2
 508 611 508 611 504 615.5 c 128
 500 620 500 620 494 620 c 2
 351 620 l 1
 351 67 l 2
 351 60 351 60 356 53.5 c 128
 361 47 361 47 371 47 c 2
 434 44 l 1
 434 2 l 1
 164 2 l 1
 164 44 l 1
 227 47 l 2
 237 47 237 47 242 53.5 c 128
 247 60 247 60 247 67 c 2
 247 620 l 1
 103 620 l 2
 97 620 97 620 92.5 615.5 c 128
 88 611 88 611 88 604 c 2
 75 511 l 1
 17 511 l 1
 17 670 l 1
 583 670 l 1
 583 511 l 1
 523 511 l 1
EndSplineSet
EndChar

StartChar: U
Encoding: 53 85 56
Width: 711
GlyphClass: 1
Flags: W
LayerCount: 2
Fore
SplineSet
626 624 m 1
 616 624 616 624 611 617.5 c 128
 606 611 606 611 606 604 c 2
 606 225 l 2
 606 164 606 164 589.5 119.5 c 128
 573 75 573 75 541 46 c 128
 509 17 509 17 461 3 c 128
 413 -11 413 -11 351 -11 c 0
 227 -11 227 -11 167 49 c 128
 107 109 107 109 107 227 c 2
 107 606 l 2
 107 613 107 613 102 619.5 c 128
 97 626 97 626 87 626 c 2
 34 629 l 1
 34 671 l 1
 288 671 l 1
 288 629 l 1
 231 626 l 2
 221 626 221 626 216 619.5 c 128
 211 613 211 613 211 606 c 2
 211 252 l 2
 211 209 211 209 217.5 173 c 128
 224 137 224 137 242.5 111.5 c 128
 261 86 261 86 293.5 72 c 128
 326 58 326 58 378 58 c 0
 429 58 429 58 462 73 c 128
 495 88 495 88 514 114.5 c 128
 533 141 533 141 540 177 c 128
 547 213 547 213 547 254 c 2
 547 608 l 2
 547 615 547 615 541.5 621.5 c 128
 536 628 536 628 526 628 c 2
 469 631 l 1
 469 673 l 1
 686 673 l 1
 686 631 l 1
 626 624 l 1
EndSplineSet
EndChar

StartChar: V
Encoding: 54 86 57
Width: 666
GlyphClass: 1
Flags: W
LayerCount: 2
Fore
SplineSet
598 617 m 1
 374 -16 l 1
 298 -16 l 1
 69 618 l 1
 10 627 l 1
 10 669 l 1
 249 669 l 1
 249 627 l 1
 190 623 l 2
 185 623 185 623 183 617 c 128
 181 611 181 611 182 607 c 2
 357 113 l 1
 525 605 l 2
 526 610 526 610 521.5 616.5 c 128
 517 623 517 623 511 623 c 2
 456 627 l 1
 456 669 l 1
 654 669 l 1
 654 627 l 1
 598 617 l 1
EndSplineSet
EndChar

StartChar: W
Encoding: 55 87 58
Width: 931
GlyphClass: 1
Flags: W
LayerCount: 2
Fore
SplineSet
859 616 m 1
 707 -16 l 1
 634 -16 l 1
 468 538 l 1
 305 -16 l 1
 233 -16 l 1
 70 616 l 1
 12 627 l 1
 12 669 l 1
 241 669 l 1
 241 627 l 1
 182 622 l 2
 176 622 176 622 174 616 c 128
 172 610 172 610 173 604 c 2
 292 153 l 1
 448 673 l 1
 525 673 l 1
 686 137 l 1
 796 604 l 2
 797 610 797 610 793.5 616 c 128
 790 622 790 622 783 622 c 2
 721 627 l 1
 721 669 l 1
 925 669 l 1
 925 627 l 1
 859 616 l 1
EndSplineSet
EndChar

StartChar: X
Encoding: 56 88 59
Width: 633
GlyphClass: 1
Flags: W
LayerCount: 2
Fore
SplineSet
367 0 m 1
 367 42 l 1
 424 47 l 2
 431 47 431 47 435 53 c 128
 439 59 439 59 435 66 c 2
 303 274 l 1
 149 63 l 2
 146 58 146 58 147.5 52 c 128
 149 46 149 46 161 46 c 2
 221 42 l 1
 221 0 l 1
 9 0 l 1
 9 42 l 1
 69 54 l 1
 270 329 l 1
 88 614 l 1
 23 625 l 1
 23 667 l 1
 273 667 l 1
 273 625 l 1
 223 621 l 2
 211 621 211 621 209.5 614.5 c 128
 208 608 208 608 211 603 c 2
 333 416 l 1
 467 601 l 2
 472 608 472 608 468 614 c 128
 464 620 464 620 457 620 c 2
 406 626 l 1
 406 668 l 1
 615 668 l 1
 615 626 l 1
 551 617 l 1
 366 362 l 1
 562 55 l 1
 624 43 l 1
 624 1 l 1
 367 0 l 1
EndSplineSet
EndChar

StartChar: Y
Encoding: 57 89 60
Width: 625
GlyphClass: 1
Flags: W
LayerCount: 2
Fore
SplineSet
562 618 m 1
 361 285 l 1
 361 69 l 2
 361 62 361 62 366 55.5 c 128
 371 49 371 49 381 49 c 2
 444 46 l 1
 444 4 l 1
 174 4 l 1
 174 46 l 1
 236 49 l 2
 246 49 246 49 251.5 55.5 c 128
 257 62 257 62 257 69 c 2
 257 270 l 1
 66 616 l 1
 8 627 l 1
 8 669 l 1
 245 669 l 1
 245 627 l 1
 195 623 l 2
 184 622 184 622 183 616 c 128
 182 610 182 610 184 605 c 2
 325 344 l 1
 479 602 l 2
 483 609 483 609 479 615 c 128
 475 621 475 621 468 621 c 2
 412 627 l 1
 412 669 l 1
 615 669 l 1
 615 627 l 1
 562 618 l 1
EndSplineSet
EndChar

StartChar: Z
Encoding: 58 90 61
Width: 575
GlyphClass: 1
Flags: W
LayerCount: 2
Fore
SplineSet
39 0 m 1
 39 43 l 1
 411 620 l 1
 151 620 l 2
 145 620 145 620 141 615.5 c 128
 137 611 137 611 136 604 c 2
 122 512 l 1
 63 512 l 1
 63 671 l 1
 533 671 l 1
 533 626 l 1
 161 52 l 1
 445 52 l 2
 451 52 451 52 455 57 c 128
 459 62 459 62 460 69 c 2
 477 185 l 1
 536 185 l 1
 536 0 l 1
 39 0 l 1
EndSplineSet
EndChar

StartChar: bracketleft
Encoding: 59 91 62
Width: 422
GlyphClass: 1
Flags: W
LayerCount: 2
Fore
SplineSet
136 -131 m 1
 136 708 l 1
 378 708 l 1
 378 664 l 1
 223 664 l 1
 223 -85 l 1
 378 -85 l 1
 378 -130 l 1
 136 -131 l 1
EndSplineSet
EndChar

StartChar: backslash
Encoding: 60 92 63
Width: 488
GlyphClass: 1
Flags: W
LayerCount: 2
Fore
SplineSet
424 -92 m 1
 0 671 l 1
 63 671 l 1
 487 -92 l 1
 424 -92 l 1
EndSplineSet
EndChar

StartChar: bracketright
Encoding: 61 93 64
Width: 422
GlyphClass: 1
Flags: W
LayerCount: 2
Fore
SplineSet
43 -131 m 1
 43 -86 l 1
 200 -86 l 1
 200 663 l 1
 43 663 l 1
 43 707 l 1
 287 707 l 1
 287 -132 l 1
 43 -131 l 1
EndSplineSet
EndChar

StartChar: asciicircum
Encoding: 62 94 65
Width: 327
GlyphClass: 1
Flags: W
LayerCount: 2
Fore
SplineSet
267 550 m 1
 164 649 l 1
 60 550 l 1
 0 550 l 1
 125 719 l 1
 200 719 l 1
 325 550 l 1
 267 550 l 1
EndSplineSet
EndChar

StartChar: underscore
Encoding: 63 95 66
Width: 334
GlyphClass: 1
Flags: W
LayerCount: 2
Fore
SplineSet
0 -148 m 1
 0 -85 l 1
 334 -85 l 1
 334 -148 l 1
 0 -148 l 1
EndSplineSet
EndChar

StartChar: grave
Encoding: 64 96 67
Width: 350
GlyphClass: 1
Flags: W
LayerCount: 2
Fore
SplineSet
174 550 m 1
 23 647 l 2
 13 653 13 653 7 662.5 c 128
 1 672 1 672 1 685 c 0
 1 692 1 692 3 700 c 128
 5 708 5 708 10 714 c 128
 15 720 15 720 23.5 724 c 128
 32 728 32 728 44 728 c 0
 54 728 54 728 61 726.5 c 128
 68 725 68 725 73.5 722 c 128
 79 719 79 719 83.5 714 c 128
 88 709 88 709 93 703 c 2
 226 548 l 1
 174 550 l 1
EndSplineSet
EndChar

StartChar: a
Encoding: 65 97 68
Width: 508
GlyphClass: 1
Flags: W
LayerCount: 2
Fore
SplineSet
331 267 m 1
 264 250 264 250 224.5 233.5 c 128
 185 217 185 217 165 200.5 c 128
 145 184 145 184 139.5 167 c 128
 134 150 134 150 134 132 c 0
 134 117 134 117 139 102.5 c 128
 144 88 144 88 153.5 76.5 c 128
 163 65 163 65 176.5 58 c 128
 190 51 190 51 208 51 c 0
 228 51 228 51 249.5 58 c 128
 271 65 271 65 289 73 c 0
 309 83 309 83 329 96 c 1
 331 267 l 1
342 2 m 1
 329 61 l 1
 303 41 303 41 276 26 c 0
 264 20 264 20 250.5 14 c 128
 237 8 237 8 223 3 c 128
 209 -2 209 -2 194.5 -4.5 c 128
 180 -7 180 -7 166 -7 c 0
 139 -7 139 -7 115.5 2 c 128
 92 11 92 11 74.5 28.5 c 128
 57 46 57 46 47 70.5 c 128
 37 95 37 95 37 126 c 0
 37 144 37 144 40.5 160.5 c 128
 44 177 44 177 55 192.5 c 128
 66 208 66 208 86 222 c 128
 106 236 106 236 138.5 250 c 128
 171 264 171 264 218.5 277.5 c 128
 266 291 266 291 331 305 c 1
 331 347 l 2
 331 397 331 397 309 421 c 128
 287 445 287 445 239 445 c 0
 213 445 213 445 194.5 440.5 c 128
 176 436 176 436 169 434 c 1
 169 348 l 1
 97 348 l 2
 91 348 91 348 84.5 348.5 c 128
 78 349 78 349 73 352 c 128
 68 355 68 355 65 360.5 c 128
 62 366 62 366 62 375 c 0
 62 405 62 405 80.5 427 c 128
 99 449 99 449 128.5 463.5 c 128
 158 478 158 478 195 484.5 c 128
 232 491 232 491 269 491 c 0
 315 491 315 491 345.5 480 c 128
 376 469 376 469 393.5 449 c 128
 411 429 411 429 418 402 c 128
 425 375 425 375 425 343 c 2
 425 63 l 2
 425 54 425 54 431 48.5 c 128
 437 43 437 43 445 43 c 2
 493 41 l 1
 493 2 l 1
 342 2 l 1
EndSplineSet
EndChar

StartChar: b
Encoding: 66 98 69
Width: 555
GlyphClass: 1
Flags: W
LayerCount: 2
Fore
SplineSet
520 264 m 1
 520 208 520 208 503.5 160 c 128
 487 112 487 112 452.5 76.5 c 128
 418 41 418 41 364 21 c 128
 310 1 310 1 235 1 c 2
 91 1 l 1
 91 666 l 1
 16 666 l 1
 16 699 l 1
 144 737 l 1
 184 737 l 1
 184 458 l 1
 192 461 192 461 206 467 c 128
 220 473 220 473 238 478.5 c 128
 256 484 256 484 276.5 488 c 128
 297 492 297 492 318 492 c 0
 367 492 367 492 404 473.5 c 128
 441 455 441 455 466 423.5 c 128
 491 392 491 392 503.5 350.5 c 128
 516 309 516 309 520 264 c 1
414 244 m 0
 414 338 414 338 374 386 c 128
 334 434 334 434 262 434 c 0
 254 434 254 434 243 433 c 128
 232 432 232 432 221 430 c 128
 210 428 210 428 199.5 425.5 c 128
 189 423 189 423 182 421 c 1
 182 50 l 1
 190 50 190 50 198 50 c 0
 205 50 205 50 213 50 c 2
 229 50 l 2
 273 50 273 50 307.5 60 c 128
 342 70 342 70 365.5 93 c 128
 389 116 389 116 401.5 153.5 c 128
 414 191 414 191 414 244 c 0
EndSplineSet
EndChar

StartChar: c
Encoding: 67 99 70
Width: 465
GlyphClass: 1
Flags: W
LayerCount: 2
Fore
SplineSet
432 37 m 1
 415 29 415 29 396.5 20 c 128
 378 11 378 11 357 4.5 c 128
 336 -2 336 -2 313 -6 c 128
 290 -10 290 -10 265 -10 c 0
 213 -10 213 -10 171 8.5 c 128
 129 27 129 27 99.5 60 c 128
 70 93 70 93 54 138.5 c 128
 38 184 38 184 38 237 c 0
 38 299 38 299 57.5 346.5 c 128
 77 394 77 394 110 426 c 128
 143 458 143 458 186.5 474 c 128
 230 490 230 490 277 490 c 0
 309 490 309 490 337.5 483.5 c 128
 366 477 366 477 386.5 464.5 c 128
 407 452 407 452 418.5 433.5 c 128
 430 415 430 415 430 391 c 0
 430 377 430 377 425 366.5 c 128
 420 356 420 356 412 348.5 c 128
 404 341 404 341 394 337.5 c 128
 384 334 384 334 373 334 c 0
 357 334 357 334 345 339.5 c 128
 333 345 333 345 324 350 c 1
 324 436 l 1
 314 441 314 441 303.5 444.5 c 128
 293 448 293 448 284 448 c 0
 251 448 251 448 224.5 433 c 128
 198 418 198 418 180 391.5 c 128
 162 365 162 365 152.5 328.5 c 128
 143 292 143 292 143 249 c 0
 143 208 143 208 153 171.5 c 128
 163 135 163 135 183.5 108 c 128
 204 81 204 81 235 65.5 c 128
 266 50 266 50 307 50 c 0
 342 50 342 50 373 60.5 c 128
 404 71 404 71 436 92 c 1
 432 37 l 1
EndSplineSet
EndChar

StartChar: d
Encoding: 68 100 71
Width: 563
GlyphClass: 1
Flags: W
LayerCount: 2
Fore
SplineSet
380 431 m 1
 374 432 374 432 364 434.5 c 128
 354 437 354 437 343 439 c 128
 332 441 332 441 320 442 c 128
 308 443 308 443 298 443 c 0
 261 443 261 443 231 429 c 128
 201 415 201 415 180 389 c 128
 159 363 159 363 148 326 c 128
 137 289 137 289 137 244 c 0
 137 203 137 203 146.5 169 c 128
 156 135 156 135 174.5 110 c 128
 193 85 193 85 219.5 71 c 128
 246 57 246 57 280 57 c 0
 295 57 295 57 309 60 c 128
 323 63 323 63 336 68 c 128
 349 73 349 73 360.5 79 c 128
 372 85 372 85 381 90 c 1
 380 431 l 1
381 0 m 1
 381 53 l 1
 364 40 364 40 346 28.5 c 128
 328 17 328 17 309 8.5 c 128
 290 0 290 0 270 -5 c 128
 250 -10 250 -10 229 -10 c 0
 179 -10 179 -10 143 11.5 c 128
 107 33 107 33 84 67 c 128
 61 101 61 101 50.5 143.5 c 128
 40 186 40 186 40 228 c 0
 40 278 40 278 55.5 326 c 128
 71 374 71 374 102.5 411 c 128
 134 448 134 448 181.5 470 c 128
 229 492 229 492 293 492 c 0
 304 492 304 492 317.5 491 c 128
 331 490 331 490 343.5 488.5 c 128
 356 487 356 487 366 485 c 128
 376 483 376 483 381 482 c 1
 381 665 l 1
 306 665 l 1
 306 698 l 1
 434 736 l 1
 474 736 l 1
 474 64 l 2
 474 55 474 55 479.5 49.5 c 128
 485 44 485 44 494 44 c 2
 536 42 l 1
 536 3 l 1
 381 0 l 1
EndSplineSet
EndChar

StartChar: e
Encoding: 69 101 72
Width: 490
GlyphClass: 1
Flags: W
LayerCount: 2
Fore
SplineSet
456 49 m 1
 436 36 436 36 413.5 25 c 128
 391 14 391 14 367 6 c 128
 343 -2 343 -2 318.5 -6.5 c 128
 294 -11 294 -11 269 -11 c 0
 224 -11 224 -11 182.5 4 c 128
 141 19 141 19 109.5 49.5 c 128
 78 80 78 80 59 126.5 c 128
 40 173 40 173 40 235 c 0
 40 293 40 293 57.5 340.5 c 128
 75 388 75 388 106 421.5 c 128
 137 455 137 455 179.5 473 c 128
 222 491 222 491 273 491 c 0
 319 491 319 491 354 476 c 128
 389 461 389 461 412 434 c 128
 435 407 435 407 446.5 369.5 c 128
 458 332 458 332 458 288 c 2
 458 275 l 2
 458 268 458 268 458 262 c 1
 134 262 l 1
 134 224 134 224 142 186 c 128
 150 148 150 148 169 118 c 128
 188 88 188 88 220 69.5 c 128
 252 51 252 51 300 51 c 0
 321 51 321 51 341.5 56.5 c 128
 362 62 362 62 382 70.5 c 128
 402 79 402 79 420.5 89.5 c 128
 439 100 439 100 456 111 c 1
 456 49 l 1
356 328 m 1
 356 352 356 352 350.5 373 c 128
 345 394 345 394 333.5 409.5 c 128
 322 425 322 425 304 434 c 128
 286 443 286 443 262 443 c 256
 238 443 238 443 217 433.5 c 128
 196 424 196 424 180 406 c 128
 164 388 164 388 154 362.5 c 128
 144 337 144 337 143 305 c 1
 362 305 l 1
 356 328 l 1
EndSplineSet
EndChar

StartChar: f
Encoding: 70 102 73
Width: 326
GlyphClass: 1
Flags: W
LayerCount: 2
Fore
SplineSet
389 676 m 1
 389 661 389 661 383 651 c 128
 377 641 377 641 369 635 c 128
 361 629 361 629 353.5 626.5 c 128
 346 624 346 624 344 624 c 1
 344 624 344 624 337 629 c 128
 330 634 330 634 320 641 c 128
 310 648 310 648 299 655.5 c 128
 288 663 288 663 278.5 670 c 128
 269 677 269 677 262.5 681.5 c 128
 256 686 256 686 256 686 c 1
 246 681 246 681 236 670.5 c 128
 226 660 226 660 217.5 642 c 128
 209 624 209 624 204 598.5 c 128
 199 573 199 573 199 538 c 2
 199 475 l 1
 323 475 l 1
 323 424 l 1
 199 424 l 1
 199 66 l 2
 199 57 199 57 205 51.5 c 128
 211 46 211 46 219 46 c 2
 278 44 l 1
 278 5 l 1
 35 5 l 1
 35 44 l 1
 84 46 l 2
 92 46 92 46 98 51.5 c 128
 104 57 104 57 104 66 c 2
 104 424 l 1
 41 424 l 1
 41 459 l 1
 104 477 l 1
 104 501 104 501 105.5 520.5 c 128
 107 540 107 540 111 557 c 128
 115 574 115 574 121 590 c 128
 127 606 127 606 136 624 c 0
 150 652 150 652 169 672.5 c 128
 188 693 188 693 210 706.5 c 128
 232 720 232 720 256 726.5 c 128
 280 733 280 733 304 733 c 0
 324 733 324 733 340 728.5 c 128
 356 724 356 724 366.5 716 c 128
 377 708 377 708 382 697.5 c 128
 387 687 387 687 389 676 c 1
EndSplineSet
EndChar

StartChar: g
Encoding: 71 103 74
Width: 524
GlyphClass: 1
Flags: W
LayerCount: 2
Fore
SplineSet
395 -66 m 1
 395 -46 395 -46 385 -32 c 128
 375 -18 375 -18 358.5 -9 c 128
 342 0 342 0 321 5.5 c 128
 300 11 300 11 278.5 14.5 c 128
 257 18 257 18 237 20 c 128
 217 22 217 22 202 24 c 1
 181 17 181 17 166.5 6.5 c 128
 152 -4 152 -4 143.5 -16.5 c 128
 135 -29 135 -29 131.5 -42 c 128
 128 -55 128 -55 128 -67 c 0
 128 -85 128 -85 135.5 -105.5 c 128
 143 -126 143 -126 159 -143 c 128
 175 -160 175 -160 199.5 -171 c 128
 224 -182 224 -182 257 -182 c 0
 292 -182 292 -182 318.5 -171 c 128
 345 -160 345 -160 362.5 -143 c 128
 380 -126 380 -126 388.5 -105.5 c 128
 397 -85 397 -85 395 -66 c 1
341 331 m 0
 341 354 341 354 335 376 c 128
 329 398 329 398 317.5 414.5 c 128
 306 431 306 431 289 441 c 128
 272 451 272 451 250 451 c 0
 230 451 230 451 212.5 443 c 128
 195 435 195 435 183 419.5 c 128
 171 404 171 404 164 381.5 c 128
 157 359 157 359 157 331 c 0
 157 307 157 307 163 285 c 128
 169 263 169 263 180.5 246.5 c 128
 192 230 192 230 209.5 220.5 c 128
 227 211 227 211 250 211 c 0
 272 211 272 211 289 220.5 c 128
 306 230 306 230 317.5 246.5 c 128
 329 263 329 263 335 285 c 128
 341 307 341 307 341 331 c 0
409 416 m 1
 420 398 420 398 427.5 377 c 128
 435 356 435 356 435 327 c 0
 435 288 435 288 417 257.5 c 128
 399 227 399 227 369 206.5 c 128
 339 186 339 186 300.5 176.5 c 128
 262 167 262 167 221 169 c 1
 216 160 216 160 214 149 c 128
 212 138 212 138 212 128.5 c 128
 212 119 212 119 212.5 112 c 128
 213 105 213 105 213 105 c 1
 235 103 235 103 263.5 100.5 c 128
 292 98 292 98 322 92.5 c 128
 352 87 352 87 381 78 c 128
 410 69 410 69 432 54.5 c 128
 454 40 454 40 467.5 19 c 128
 481 -2 481 -2 481 -31 c 0
 481 -66 481 -66 461 -99.5 c 128
 441 -133 441 -133 406 -159.5 c 128
 371 -186 371 -186 324 -202 c 128
 277 -218 277 -218 223 -218 c 0
 179 -218 179 -218 144.5 -207.5 c 128
 110 -197 110 -197 86.5 -178 c 128
 63 -159 63 -159 50.5 -133 c 128
 38 -107 38 -107 38 -77 c 0
 38 -56 38 -56 44 -36.5 c 128
 50 -17 50 -17 63 -1.5 c 128
 76 14 76 14 95.5 25 c 128
 115 36 115 36 142 40 c 1
 140 47 140 47 138.5 52 c 128
 137 57 137 57 136 61.5 c 128
 135 66 135 66 135 71 c 128
 135 76 135 76 135 84 c 0
 135 103 135 103 146.5 126.5 c 128
 158 150 158 150 184 176 c 1
 160 181 160 181 138 193.5 c 128
 116 206 116 206 99 225 c 128
 82 244 82 244 72 269 c 128
 62 294 62 294 62 324 c 0
 62 363 62 363 76.5 394 c 128
 91 425 91 425 117 446.5 c 128
 143 468 143 468 179.5 479.5 c 128
 216 491 216 491 260 491 c 0
 277 491 277 491 293.5 488.5 c 128
 310 486 310 486 324.5 481.5 c 128
 339 477 339 477 351.5 472 c 128
 364 467 364 467 373 463 c 1
 507 463 l 1
 507 415 l 1
 409 416 l 1
EndSplineSet
EndChar

StartChar: h
Encoding: 72 104 75
Width: 574
GlyphClass: 1
Flags: W
LayerCount: 2
Fore
SplineSet
328 0 m 1
 328 39 l 1
 369 41 l 2
 377 41 377 41 383.5 46.5 c 128
 390 52 390 52 390 61 c 2
 390 318 l 2
 390 339 390 339 385.5 357 c 128
 381 375 381 375 370 388 c 128
 359 401 359 401 340 408.5 c 128
 321 416 321 416 293 416 c 0
 280 416 280 416 265.5 414 c 128
 251 412 251 412 237 408.5 c 128
 223 405 223 405 210 400 c 128
 197 395 197 395 187 390 c 1
 187 62 l 2
 187 53 187 53 192 47.5 c 128
 197 42 197 42 206 42 c 2
 248 40 l 1
 248 1 l 1
 23 1 l 1
 23 40 l 1
 70 42 l 2
 79 42 79 42 84.5 47.5 c 128
 90 53 90 53 90 62 c 2
 90 663 l 1
 16 663 l 1
 16 696 l 1
 143 734 l 1
 183 734 l 1
 183 430 l 1
 196 438 196 438 216 448.5 c 128
 236 459 236 459 258.5 468.5 c 128
 281 478 281 478 304 484.5 c 128
 327 491 327 491 346 491 c 0
 374 491 374 491 398.5 482 c 128
 423 473 423 473 441 454.5 c 128
 459 436 459 436 469 407.5 c 128
 479 379 479 379 479 341 c 2
 479 63 l 2
 479 54 479 54 485.5 48.5 c 128
 492 43 492 43 500 43 c 2
 544 41 l 1
 544 2 l 1
 328 0 l 1
EndSplineSet
EndChar

StartChar: i
Encoding: 73 105 76
Width: 303
GlyphClass: 1
Flags: W
LayerCount: 2
Fore
SplineSet
34 0 m 1
 34 39 l 1
 82 41 l 2
 91 41 91 41 96.5 46.5 c 128
 102 52 102 52 102 61 c 2
 102 417 l 1
 34 417 l 1
 34 452 l 1
 156 490 l 1
 195 490 l 1
 195 60 l 2
 195 51 195 51 201 45.5 c 128
 207 40 207 40 215 40 c 2
 266 38 l 1
 266 -1 l 1
 34 0 l 1
215 645 m 256
 215 633 215 633 210.5 622 c 128
 206 611 206 611 198 603 c 128
 190 595 190 595 179.5 590.5 c 128
 169 586 169 586 157 586 c 256
 145 586 145 586 134 590.5 c 128
 123 595 123 595 115 603 c 128
 107 611 107 611 102.5 622 c 128
 98 633 98 633 98 645 c 256
 98 657 98 657 102.5 668 c 128
 107 679 107 679 115 687 c 128
 123 695 123 695 134 699.5 c 128
 145 704 145 704 157 704 c 256
 169 704 169 704 179.5 699.5 c 128
 190 695 190 695 198 687 c 128
 206 679 206 679 210.5 668 c 128
 215 657 215 657 215 645 c 256
EndSplineSet
EndChar

StartChar: j
Encoding: 74 106 77
Width: 291
GlyphClass: 1
Flags: W
LayerCount: 2
Fore
SplineSet
202 63 m 2
 202 41 202 41 201 14.5 c 128
 200 -12 200 -12 196 -38.5 c 128
 192 -65 192 -65 184.5 -90 c 128
 177 -115 177 -115 165 -135 c 0
 135 -182 135 -182 91.5 -204.5 c 128
 48 -227 48 -227 1 -227 c 0
 -14 -227 -14 -227 -27.5 -224 c 128
 -41 -221 -41 -221 -51 -214.5 c 128
 -61 -208 -61 -208 -67 -198 c 128
 -73 -188 -73 -188 -73 -174 c 0
 -73 -162 -73 -162 -69.5 -152.5 c 128
 -66 -143 -66 -143 -60 -136 c 128
 -54 -129 -54 -129 -46.5 -124.5 c 128
 -39 -120 -39 -120 -32 -118 c 1
 65 -184 l 1
 78 -177 78 -177 87 -162 c 128
 96 -147 96 -147 101.5 -126 c 128
 107 -105 107 -105 109 -79 c 128
 111 -53 111 -53 111 -25 c 2
 111 418 l 1
 41 418 l 1
 41 451 l 1
 164 489 l 1
 205 489 l 1
 202 63 l 2
215 641 m 256
 215 629 215 629 210.5 618 c 128
 206 607 206 607 198 599 c 128
 190 591 190 591 179 586.5 c 128
 168 582 168 582 156 582 c 256
 144 582 144 582 133 586.5 c 128
 122 591 122 591 113.5 599 c 128
 105 607 105 607 100.5 618 c 128
 96 629 96 629 96 641 c 256
 96 653 96 653 100.5 664 c 128
 105 675 105 675 113.5 683 c 128
 122 691 122 691 133 695.5 c 128
 144 700 144 700 156 700 c 256
 168 700 168 700 179 695.5 c 128
 190 691 190 691 198 683 c 128
 206 675 206 675 210.5 664 c 128
 215 653 215 653 215 641 c 256
EndSplineSet
EndChar

StartChar: k
Encoding: 75 107 78
Width: 534
GlyphClass: 1
Flags: W
LayerCount: 2
Fore
SplineSet
363 0 m 1
 363 39 l 1
 238 226 l 1
 183 226 l 1
 183 63 l 2
 183 54 183 54 188.5 48.5 c 128
 194 43 194 43 203 43 c 2
 245 41 l 1
 245 2 l 1
 18 2 l 1
 18 41 l 1
 66 43 l 2
 75 43 75 43 80.5 48.5 c 128
 86 54 86 54 86 63 c 2
 86 664 l 1
 11 664 l 1
 11 697 l 1
 138 735 l 1
 179 735 l 1
 179 255 l 1
 199 255 l 1
 345 421 l 2
 348 425 348 425 345.5 430.5 c 128
 343 436 343 436 337 436 c 2
 296 439 l 1
 296 478 l 1
 490 478 l 1
 490 439 l 1
 427 433 l 1
 295 292 l 1
 467 42 l 1
 519 37 l 1
 519 -2 l 1
 363 0 l 1
EndSplineSet
EndChar

StartChar: l
Encoding: 76 108 79
Width: 296
GlyphClass: 1
Flags: W
LayerCount: 2
Fore
SplineSet
26 0 m 1
 26 39 l 1
 79 41 l 2
 85 41 85 41 92.5 48 c 128
 100 55 100 55 100 61 c 2
 100 663 l 1
 24 663 l 1
 24 696 l 1
 151 734 l 1
 192 734 l 1
 192 61 l 2
 192 55 192 55 199 48 c 128
 206 41 206 41 212 41 c 2
 266 39 l 1
 266 0 l 1
 26 0 l 1
EndSplineSet
EndChar

StartChar: m
Encoding: 77 109 80
Width: 850
GlyphClass: 1
Flags: W
LayerCount: 2
Fore
SplineSet
604 0 m 1
 604 39 l 1
 645 41 l 2
 654 41 654 41 659.5 46.5 c 128
 665 52 665 52 665 61 c 2
 665 315 l 2
 665 338 665 338 661 356.5 c 128
 657 375 657 375 647 388 c 128
 637 401 637 401 620 408 c 128
 603 415 603 415 579 415 c 0
 567 415 567 415 553.5 413 c 128
 540 411 540 411 526.5 407.5 c 128
 513 404 513 404 500 399 c 128
 487 394 487 394 476 389 c 1
 476 60 l 2
 476 51 476 51 481.5 45.5 c 128
 487 40 487 40 496 40 c 2
 537 38 l 1
 537 -1 l 1
 318 -1 l 1
 318 38 l 1
 359 40 l 2
 368 40 368 40 373.5 45.5 c 128
 379 51 379 51 379 60 c 2
 379 321 l 2
 379 341 379 341 374.5 358.5 c 128
 370 376 370 376 360 388 c 128
 350 400 350 400 333.5 407 c 128
 317 414 317 414 294 414 c 0
 280 414 280 414 265 411.5 c 128
 250 409 250 409 236 405 c 128
 222 401 222 401 210 396 c 128
 198 391 198 391 190 387 c 1
 190 59 l 2
 190 50 190 50 195.5 44.5 c 128
 201 39 201 39 210 39 c 2
 251 37 l 1
 251 -2 l 1
 25 -2 l 1
 25 37 l 1
 73 39 l 2
 82 39 82 39 87.5 44.5 c 128
 93 50 93 50 93 59 c 2
 93 406 l 1
 25 406 l 1
 25 438 l 1
 146 476 l 1
 187 476 l 1
 187 427 l 1
 203 437 203 437 223 447.5 c 128
 243 458 243 458 264 467 c 128
 285 476 285 476 306.5 481.5 c 128
 328 487 328 487 347 487 c 0
 368 487 368 487 385.5 481 c 128
 403 475 403 475 416 465 c 128
 429 455 429 455 439 443 c 128
 449 431 449 431 455 419 c 1
 470 428 470 428 491 440 c 128
 512 452 512 452 535.5 462 c 128
 559 472 559 472 582.5 479 c 128
 606 486 606 486 626 486 c 0
 665 486 665 486 689.5 472 c 128
 714 458 714 458 728 436 c 128
 742 414 742 414 747 387 c 128
 752 360 752 360 752 335 c 2
 752 59 l 2
 752 50 752 50 758 44.5 c 128
 764 39 764 39 772 39 c 2
 820 37 l 1
 820 -2 l 1
 604 0 l 1
EndSplineSet
EndChar

StartChar: n
Encoding: 78 110 81
Width: 566
GlyphClass: 1
Flags: W
LayerCount: 2
Fore
SplineSet
326 0 m 1
 326 39 l 1
 367 41 l 2
 375 41 375 41 381 46.5 c 128
 387 52 387 52 387 61 c 2
 387 321 l 2
 387 368 387 368 365.5 392.5 c 128
 344 417 344 417 292 417 c 0
 264 417 264 417 236.5 409 c 128
 209 401 209 401 184 389 c 1
 184 61 l 2
 184 52 184 52 189.5 46.5 c 128
 195 41 195 41 204 41 c 2
 245 39 l 1
 245 0 l 1
 19 0 l 1
 19 39 l 1
 67 41 l 2
 76 41 76 41 81.5 46.5 c 128
 87 52 87 52 87 61 c 2
 87 408 l 1
 18 408 l 1
 18 440 l 1
 140 478 l 1
 181 478 l 1
 181 429 l 1
 201 440 201 440 222.5 451 c 128
 244 462 244 462 265 470.5 c 128
 286 479 286 479 306 484 c 128
 326 489 326 489 343 489 c 0
 408 489 408 489 442 448.5 c 128
 476 408 476 408 476 335 c 2
 476 60 l 2
 476 51 476 51 482 45.5 c 128
 488 40 488 40 496 40 c 2
 539 38 l 1
 539 -1 l 1
 326 0 l 1
EndSplineSet
EndChar

StartChar: o
Encoding: 79 111 82
Width: 543
GlyphClass: 1
Flags: W
LayerCount: 2
Fore
SplineSet
405 241 m 1
 405 282 405 282 397 319.5 c 128
 389 357 389 357 372.5 385.5 c 128
 356 414 356 414 331.5 431 c 128
 307 448 307 448 274 448 c 0
 240 448 240 448 215 431 c 128
 190 414 190 414 174 385.5 c 128
 158 357 158 357 150.5 319.5 c 128
 143 282 143 282 143 241 c 0
 143 201 143 201 151 163.5 c 128
 159 126 159 126 175.5 97.5 c 128
 192 69 192 69 216.5 52 c 128
 241 35 241 35 274 35 c 0
 308 35 308 35 333 52 c 128
 358 69 358 69 374 97.5 c 128
 390 126 390 126 398 163.5 c 128
 406 201 406 201 405 241 c 1
510 241 m 0
 510 188 510 188 493.5 142 c 128
 477 96 477 96 446 62.5 c 128
 415 29 415 29 371 9.5 c 128
 327 -10 327 -10 273 -10 c 256
 219 -10 219 -10 175.5 9 c 128
 132 28 132 28 101.5 61.5 c 128
 71 95 71 95 55 141 c 128
 39 187 39 187 39 241 c 0
 39 294 39 294 55.5 340 c 128
 72 386 72 386 103 420 c 128
 134 454 134 454 178 473.5 c 128
 222 493 222 493 277 493 c 256
 332 493 332 493 375.5 473 c 128
 419 453 419 453 449 419 c 128
 479 385 479 385 494.5 339 c 128
 510 293 510 293 510 241 c 0
EndSplineSet
EndChar

StartChar: p
Encoding: 80 112 83
Width: 559
GlyphClass: 1
Flags: W
LayerCount: 2
Fore
SplineSet
424 233 m 1
 424 271 424 271 415 305 c 128
 406 339 406 339 388.5 365 c 128
 371 391 371 391 345 406 c 128
 319 421 319 421 285 421 c 0
 266 421 266 421 248 416.5 c 128
 230 412 230 412 216 407 c 0
 200 401 200 401 185 393 c 1
 185 49 l 1
 196 45 196 45 209 42 c 0
 220 40 220 40 234.5 38 c 128
 249 36 249 36 264 36 c 0
 305 36 305 36 335 52.5 c 128
 365 69 365 69 384.5 96.5 c 128
 404 124 404 124 413.5 160 c 128
 423 196 423 196 424 233 c 1
523 249 m 1
 523 190 523 190 506 142 c 128
 489 94 489 94 457 60.5 c 128
 425 27 425 27 378 8.5 c 128
 331 -10 331 -10 272 -10 c 0
 259 -10 259 -10 243.5 -9 c 128
 228 -8 228 -8 215 -7 c 0
 200 -6 200 -6 185 -4 c 1
 185 -152 l 2
 185 -161 185 -161 191 -166 c 128
 197 -171 197 -171 206 -171 c 2
 265 -177 l 1
 265 -215 l 1
 22 -215 l 1
 22 -177 l 1
 69 -171 l 1
 78 -171 78 -171 83.5 -166 c 128
 89 -161 89 -161 89 -152 c 2
 89 410 l 1
 21 410 l 1
 21 442 l 1
 144 480 l 1
 183 480 l 1
 183 431 l 1
 204 448 204 448 228 461 c 0
 248 472 248 472 275 481.5 c 128
 302 491 302 491 331 491 c 0
 369 491 369 491 403.5 473.5 c 128
 438 456 438 456 464 424 c 128
 490 392 490 392 505 347 c 128
 520 302 520 302 523 249 c 1
EndSplineSet
EndChar

StartChar: q
Encoding: 81 113 84
Width: 548
GlyphClass: 1
Flags: W
LayerCount: 2
Fore
SplineSet
372 437 m 1
 359 439 359 439 342 443 c 128
 325 447 325 447 305 447 c 0
 264 447 264 447 233 432.5 c 128
 202 418 202 418 181 391.5 c 128
 160 365 160 365 149.5 328 c 128
 139 291 139 291 139 246 c 0
 139 208 139 208 147.5 172.5 c 128
 156 137 156 137 174 110 c 128
 192 83 192 83 220.5 66.5 c 128
 249 50 249 50 289 50 c 0
 298 50 298 50 309 51 c 128
 320 52 320 52 331.5 53.5 c 128
 343 55 343 55 353.5 57.5 c 128
 364 60 364 60 372 62 c 1
 372 437 l 1
292 -216 m 1
 292 -179 l 1
 351 -174 l 2
 359 -174 359 -174 365 -169 c 128
 371 -164 371 -164 371 -155 c 2
 371 25 l 1
 357 19 357 19 340 12.5 c 128
 323 6 323 6 304.5 0.5 c 128
 286 -5 286 -5 267.5 -8.5 c 128
 249 -12 249 -12 233 -12 c 0
 187 -12 187 -12 150.5 7 c 128
 114 26 114 26 89 58.5 c 128
 64 91 64 91 50.5 134.5 c 128
 37 178 37 178 37 227 c 0
 37 288 37 288 56.5 337 c 128
 76 386 76 386 113 420 c 128
 150 454 150 454 203.5 472.5 c 128
 257 491 257 491 325 491 c 0
 338 491 338 491 356 490 c 128
 374 489 374 489 393 487.5 c 128
 412 486 412 486 431 483 c 128
 450 480 450 480 465 477 c 1
 465 -154 l 2
 465 -163 465 -163 471 -168 c 128
 477 -173 477 -173 485 -174 c 2
 533 -179 l 1
 533 -216 l 1
 292 -216 l 1
EndSplineSet
EndChar

StartChar: r
Encoding: 82 114 85
Width: 391
GlyphClass: 1
Flags: W
LayerCount: 2
Fore
SplineSet
341 379 m 1
 332 390 332 390 319.5 398 c 128
 307 406 307 406 289 406 c 0
 265 406 265 406 240.5 390 c 128
 216 374 216 374 191 345 c 1
 191 64 l 2
 191 55 191 55 196.5 49.5 c 128
 202 44 202 44 211 44 c 2
 276 42 l 1
 276 3 l 1
 26 3 l 1
 26 41 l 1
 75 44 l 2
 83 44 83 44 89 49.5 c 128
 95 55 95 55 95 64 c 2
 95 411 l 1
 23 411 l 1
 23 443 l 1
 147 481 l 1
 188 481 l 1
 188 393 l 1
 198 404 198 404 213 421 c 128
 228 438 228 438 245.5 454 c 128
 263 470 263 470 281.5 481 c 128
 300 492 300 492 317 492 c 0
 324 492 324 492 332.5 491 c 128
 341 490 341 490 349 488 c 128
 357 486 357 486 364 483.5 c 128
 371 481 371 481 375 479 c 1
 375 380 l 1
 341 379 l 1
EndSplineSet
EndChar

StartChar: s
Encoding: 83 115 86
Width: 397
GlyphClass: 1
Flags: W
LayerCount: 2
Fore
SplineSet
363 145 m 1
 363 109 363 109 350 80 c 128
 337 51 337 51 313 31 c 128
 289 11 289 11 253.5 0.5 c 128
 218 -10 218 -10 174 -10 c 0
 152 -10 152 -10 130.5 -7.5 c 128
 109 -5 109 -5 91 -1 c 128
 73 3 73 3 59 7 c 128
 45 11 45 11 38 13 c 1
 38 145 l 1
 88 145 l 1
 100 61 l 1
 115 52 115 52 137 43 c 128
 159 34 159 34 188 34 c 0
 209 34 209 34 225.5 40.5 c 128
 242 47 242 47 253 57.5 c 128
 264 68 264 68 270 81.5 c 128
 276 95 276 95 276 110 c 0
 276 130 276 130 268 144.5 c 128
 260 159 260 159 244.5 170.5 c 128
 229 182 229 182 206.5 193 c 128
 184 204 184 204 156 218 c 0
 129 231 129 231 108.5 243.5 c 128
 88 256 88 256 74 270.5 c 128
 60 285 60 285 53 302.5 c 128
 46 320 46 320 46 342 c 0
 46 375 46 375 57.5 401.5 c 128
 69 428 69 428 91.5 446.5 c 128
 114 465 114 465 147 475 c 128
 180 485 180 485 223 485 c 0
 244 485 244 485 264 483 c 128
 284 481 284 481 300.5 478 c 128
 317 475 317 475 329.5 471.5 c 128
 342 468 342 468 349 465 c 1
 349 347 l 1
 297 347 l 1
 290 416 l 1
 280 424 280 424 259.5 431 c 128
 239 438 239 438 216 438 c 0
 175 438 175 438 155.5 419.5 c 128
 136 401 136 401 136 372 c 0
 136 355 136 355 141.5 342.5 c 128
 147 330 147 330 159.5 319 c 128
 172 308 172 308 193 296.5 c 128
 214 285 214 285 245 271 c 0
 271 260 271 260 292.5 247.5 c 128
 314 235 314 235 330 219.5 c 128
 346 204 346 204 355 185 c 128
 364 166 364 166 363 145 c 1
EndSplineSet
EndChar

StartChar: t
Encoding: 84 116 87
Width: 339
GlyphClass: 1
Flags: W
LayerCount: 2
Fore
SplineSet
333 20 m 1
 315 11 315 11 294 4 c 0
 276 -2 276 -2 252 -7 c 128
 228 -12 228 -12 202 -12 c 0
 146 -12 146 -12 121 14 c 128
 96 40 96 40 96 99 c 2
 96 431 l 1
 33 431 l 1
 33 463 l 1
 101 495 l 1
 145 600 l 1
 188 600 l 1
 188 479 l 1
 329 479 l 1
 329 430 l 1
 188 430 l 1
 188 151 l 2
 188 122 188 122 193 101.5 c 128
 198 81 198 81 208 68.5 c 128
 218 56 218 56 232.5 50.5 c 128
 247 45 247 45 267 45 c 0
 281 45 281 45 293 47 c 128
 305 49 305 49 314 52 c 0
 324 55 324 55 333 59 c 1
 333 20 l 1
EndSplineSet
EndChar

StartChar: u
Encoding: 85 117 88
Width: 568
GlyphClass: 1
Flags: W
LayerCount: 2
Fore
SplineSet
389 0 m 1
 389 57 l 1
 377 48 377 48 359 36 c 128
 341 24 341 24 320 14 c 128
 299 4 299 4 276 -3 c 128
 253 -10 253 -10 232 -10 c 0
 200 -10 200 -10 174.5 -0.5 c 128
 149 9 149 9 131.5 28.5 c 128
 114 48 114 48 104.5 78.5 c 128
 95 109 95 109 95 151 c 2
 95 421 l 1
 26 421 l 1
 26 455 l 1
 149 494 l 1
 189 494 l 1
 189 169 l 2
 189 143 189 143 194 122.5 c 128
 199 102 199 102 210 87.5 c 128
 221 73 221 73 239.5 65.5 c 128
 258 58 258 58 284 58 c 0
 299 58 299 58 314.5 60.5 c 128
 330 63 330 63 344 67.5 c 128
 358 72 358 72 370 77 c 128
 382 82 382 82 390 86 c 1
 390 420 l 1
 320 420 l 1
 320 454 l 1
 442 493 l 1
 483 493 l 1
 483 63 l 2
 483 54 483 54 489.5 48.5 c 128
 496 43 496 43 504 43 c 2
 547 41 l 1
 547 2 l 1
 389 0 l 1
EndSplineSet
EndChar

StartChar: v
Encoding: 86 118 89
Width: 528
GlyphClass: 1
Flags: W
LayerCount: 2
Fore
SplineSet
465 437 m 1
 291 0 l 1
 227 0 l 1
 66 437 l 1
 11 442 l 1
 11 481 l 1
 232 481 l 1
 232 442 l 1
 185 440 l 2
 177 440 177 440 172.5 434 c 128
 168 428 168 428 170 420 c 2
 281 108 l 1
 404 420 l 2
 407 427 407 427 403 433.5 c 128
 399 440 399 440 391 440 c 2
 347 442 l 1
 347 481 l 1
 521 481 l 1
 521 442 l 1
 465 437 l 1
EndSplineSet
EndChar

StartChar: w
Encoding: 87 119 90
Width: 783
GlyphClass: 1
Flags: W
LayerCount: 2
Fore
SplineSet
722 437 m 1
 585 0 l 1
 515 0 l 1
 397 374 l 1
 266 0 l 1
 195 0 l 1
 68 437 l 1
 13 442 l 1
 13 481 l 1
 232 481 l 1
 232 442 l 1
 186 440 l 2
 178 440 178 440 173.5 434 c 128
 169 428 169 428 171 420 c 2
 254 109 l 1
 382 484 l 1
 453 484 l 1
 568 109 l 1
 660 420 l 2
 662 427 662 427 658 433.5 c 128
 654 440 654 440 646 440 c 2
 601 442 l 1
 601 481 l 1
 775 481 l 1
 775 442 l 1
 722 437 l 1
EndSplineSet
EndChar

StartChar: x
Encoding: 88 120 91
Width: 509
GlyphClass: 1
Flags: W
LayerCount: 2
Fore
SplineSet
285 0 m 1
 285 39 l 1
 318 42 l 2
 324 42 324 42 326.5 47.5 c 128
 329 53 329 53 327 58 c 1
 242 185 l 1
 144 58 l 2
 141 54 141 54 142 48 c 128
 143 42 143 42 149 42 c 2
 199 39 l 1
 199 0 l 1
 9 0 l 1
 9 39 l 1
 66 46 l 1
 209 232 l 1
 74 433 l 1
 15 441 l 1
 15 480 l 1
 234 480 l 1
 234 441 l 1
 200 437 l 2
 194 437 194 437 191 431.5 c 128
 188 426 188 426 190 421 c 1
 269 310 l 1
 355 421 l 2
 358 425 358 425 356.5 431 c 128
 355 437 355 437 349 437 c 2
 307 441 l 1
 307 480 l 1
 486 480 l 1
 486 441 l 1
 433 433 l 1
 299 263 l 1
 446 47 l 1
 500 40 l 1
 500 1 l 1
 285 0 l 1
EndSplineSet
EndChar

StartChar: y
Encoding: 89 121 92
Width: 529
GlyphClass: 1
Flags: W
LayerCount: 2
Fore
SplineSet
467 437 m 1
 276 -30 l 2
 272 -42 272 -42 263.5 -62.5 c 128
 255 -83 255 -83 243.5 -106 c 128
 232 -129 232 -129 218 -151 c 128
 204 -173 204 -173 189 -188 c 0
 171 -206 171 -206 149.5 -216 c 128
 128 -226 128 -226 103 -226 c 0
 86 -226 86 -226 72.5 -221.5 c 128
 59 -217 59 -217 50 -209.5 c 128
 41 -202 41 -202 36.5 -192 c 128
 32 -182 32 -182 32 -171 c 0
 32 -154 32 -154 39.5 -140 c 128
 47 -126 47 -126 64 -112 c 1
 157 -154 l 1
 169 -142 169 -142 181.5 -122.5 c 128
 194 -103 194 -103 205 -81.5 c 128
 216 -60 216 -60 225 -38.5 c 128
 234 -17 234 -17 239 -1 c 1
 70 435 l 1
 15 440 l 1
 15 479 l 1
 236 479 l 1
 236 440 l 1
 189 438 l 2
 181 438 181 438 176.5 432 c 128
 172 426 172 426 174 418 c 1
 290 124 l 1
 408 418 l 2
 411 425 411 425 407 431.5 c 128
 403 438 403 438 395 438 c 2
 348 440 l 1
 348 479 l 1
 526 479 l 1
 526 440 l 1
 467 437 l 1
EndSplineSet
EndChar

StartChar: z
Encoding: 90 122 93
Width: 461
GlyphClass: 1
Flags: W
LayerCount: 2
Fore
SplineSet
34 0 m 1
 34 53 l 1
 298 434 l 1
 125 434 l 2
 118 434 118 434 112.5 427 c 128
 107 420 107 420 106 414 c 2
 97 340 l 1
 46 340 l 1
 46 482 l 1
 416 482 l 1
 416 441 l 1
 143 48 l 1
 344 48 l 2
 347 48 347 48 350.5 50 c 128
 354 52 354 52 357 55 c 128
 360 58 360 58 362 62 c 128
 364 66 364 66 364 69 c 2
 374 148 l 1
 428 148 l 1
 428 -2 l 1
 34 0 l 1
EndSplineSet
EndChar

StartChar: braceleft
Encoding: 91 123 94
Width: 487
GlyphClass: 1
Flags: W
LayerCount: 2
Fore
SplineSet
418 -123 m 1
 392 -123 392 -123 366.5 -121.5 c 128
 341 -120 341 -120 318.5 -115 c 128
 296 -110 296 -110 277.5 -102 c 128
 259 -94 259 -94 247 -81 c 0
 230 -64 230 -64 222 -43.5 c 128
 214 -23 214 -23 210.5 -0.5 c 128
 207 22 207 22 207 45 c 2
 207 130 l 2
 207 150 207 150 205 169.5 c 128
 203 189 203 189 197.5 206.5 c 128
 192 224 192 224 181 235 c 0
 173 243 173 243 162 248 c 128
 151 253 151 253 137.5 255.5 c 128
 124 258 124 258 107 258.5 c 128
 90 259 90 259 69 259 c 1
 69 303 l 1
 90 303 90 303 107 303.5 c 128
 124 304 124 304 137.5 306.5 c 128
 151 309 151 309 162 314 c 128
 173 319 173 319 181 327 c 0
 192 338 192 338 197.5 355.5 c 128
 203 373 203 373 205 392.5 c 128
 207 412 207 412 207 432 c 2
 207 517 l 2
 207 541 207 541 210.5 563.5 c 128
 214 586 214 586 222 606.5 c 128
 230 627 230 627 247 644 c 0
 259 657 259 657 277.5 665 c 128
 296 673 296 673 318.5 678 c 128
 341 683 341 683 366.5 684.5 c 128
 392 686 392 686 418 686 c 1
 418 645 l 1
 412 645 412 645 399 644.5 c 128
 386 644 386 644 371 641.5 c 128
 356 639 356 639 341.5 633 c 128
 327 627 327 627 318 617 c 0
 308 606 308 606 303 589.5 c 128
 298 573 298 573 296.5 553.5 c 128
 295 534 295 534 295 513 c 128
 295 492 295 492 295 472 c 0
 295 455 295 455 294.5 436.5 c 128
 294 418 294 418 291.5 400 c 128
 289 382 289 382 283.5 366 c 128
 278 350 278 350 268 338 c 0
 248 313 248 313 220.5 301 c 128
 193 289 193 289 163 283 c 1
 193 277 193 277 220.5 264.5 c 128
 248 252 248 252 268 227 c 0
 278 215 278 215 283.5 199 c 128
 289 183 289 183 291.5 165 c 128
 294 147 294 147 294.5 128.5 c 128
 295 110 295 110 295 93 c 0
 295 73 295 73 295 52 c 128
 295 31 295 31 296.5 11.5 c 128
 298 -8 298 -8 303 -24.5 c 128
 308 -41 308 -41 318 -52 c 0
 327 -62 327 -62 341.5 -68 c 128
 356 -74 356 -74 371 -76.5 c 128
 386 -79 386 -79 399 -79.5 c 128
 412 -80 412 -80 418 -80 c 1
 418 -123 l 1
EndSplineSet
EndChar

StartChar: bar
Encoding: 92 124 95
Width: 353
GlyphClass: 1
Flags: W
LayerCount: 2
Fore
SplineSet
146 -257 m 1
 146 796 l 1
 206 796 l 1
 206 -257 l 1
 146 -257 l 1
EndSplineSet
EndChar

StartChar: braceright
Encoding: 93 125 96
Width: 487
GlyphClass: 1
Flags: W
LayerCount: 2
Fore
SplineSet
428 268 m 1
 385 268 385 268 358 263.5 c 128
 331 259 331 259 313 242 c 0
 302 231 302 231 296.5 213.5 c 128
 291 196 291 196 289 176.5 c 128
 287 157 287 157 287 137 c 2
 287 52 l 2
 287 29 287 29 283.5 6.5 c 128
 280 -16 280 -16 271.5 -36.5 c 128
 263 -57 263 -57 247 -74 c 0
 235 -87 235 -87 216.5 -95 c 128
 198 -103 198 -103 175.5 -108 c 128
 153 -113 153 -113 127.5 -114.5 c 128
 102 -116 102 -116 76 -116 c 1
 76 -75 l 1
 82 -75 82 -75 95 -74.5 c 128
 108 -74 108 -74 123 -71.5 c 128
 138 -69 138 -69 152.5 -63 c 128
 167 -57 167 -57 176 -47 c 0
 186 -36 186 -36 190.5 -19.5 c 128
 195 -3 195 -3 196.5 16.5 c 128
 198 36 198 36 198 57 c 128
 198 78 198 78 198 98 c 0
 198 115 198 115 198.5 133.5 c 128
 199 152 199 152 201.5 170 c 128
 204 188 204 188 209.5 204 c 128
 215 220 215 220 225 232 c 0
 244 257 244 257 271.5 269.5 c 128
 299 282 299 282 329 288 c 1
 314 291 314 291 299.5 295 c 128
 285 299 285 299 271.5 305.5 c 128
 258 312 258 312 246.5 321 c 128
 235 330 235 330 226 342 c 0
 216 354 216 354 210.5 370 c 128
 205 386 205 386 202.5 404 c 128
 200 422 200 422 199.5 440.5 c 128
 199 459 199 459 199 476 c 0
 199 496 199 496 199 517 c 128
 199 538 199 538 197.5 557.5 c 128
 196 577 196 577 191.5 593.5 c 128
 187 610 187 610 177 621 c 0
 168 631 168 631 153.5 637 c 128
 139 643 139 643 124 645.5 c 128
 109 648 109 648 96 648.5 c 128
 83 649 83 649 77 649 c 1
 77 690 l 1
 103 690 103 690 128.5 688.5 c 128
 154 687 154 687 176.5 682 c 128
 199 677 199 677 217.5 669 c 128
 236 661 236 661 248 648 c 0
 264 631 264 631 272.5 610.5 c 128
 281 590 281 590 284.5 567.5 c 128
 288 545 288 545 288 521 c 2
 288 436 l 2
 288 416 288 416 290 396.5 c 128
 292 377 292 377 297.5 359.5 c 128
 303 342 303 342 314 331 c 0
 332 314 332 314 359 309.5 c 128
 386 305 386 305 429 305 c 1
 428 268 l 1
EndSplineSet
EndChar

StartChar: asciitilde
Encoding: 94 126 97
Width: 833
GlyphClass: 1
Flags: W
LayerCount: 2
Fore
SplineSet
747 306 m 1
 719 286 719 286 694.5 273 c 128
 670 260 670 260 647.5 252 c 128
 625 244 625 244 604 241 c 128
 583 238 583 238 562 238 c 0
 527 238 527 238 492 248 c 128
 457 258 457 258 421.5 270.5 c 128
 386 283 386 283 349.5 293 c 128
 313 303 313 303 275 303 c 256
 237 303 237 303 189.5 282.5 c 128
 142 262 142 262 92 226 c 1
 92 290 l 1
 145 328 145 328 192.5 344 c 128
 240 360 240 360 280 360 c 0
 316 360 316 360 352.5 350 c 128
 389 340 389 340 425 328 c 128
 461 316 461 316 495.5 306 c 128
 530 296 530 296 562 296 c 0
 597 296 597 296 642.5 312.5 c 128
 688 329 688 329 748 372 c 1
 747 306 l 1
EndSplineSet
EndChar

StartChar: quoteleft
Encoding: 167 8216 98
Width: 247
GlyphClass: 1
Flags: W
LayerCount: 2
Fore
SplineSet
186 702 m 1
 174 689 174 689 160 673 c 128
 146 657 146 657 134 638 c 128
 122 619 122 619 113.5 597.5 c 128
 105 576 105 576 105 552 c 0
 105 548 105 548 105 543 c 128
 105 538 105 538 105 535 c 1
 167 535 l 1
 170 530 170 530 173 525 c 0
 175 520 175 520 177 513 c 128
 179 506 179 506 179 498 c 0
 179 486 179 486 175 475 c 128
 171 464 171 464 163.5 456 c 128
 156 448 156 448 145.5 443.5 c 128
 135 439 135 439 122 439 c 0
 84 439 84 439 62 463 c 128
 40 487 40 487 40 530 c 0
 40 566 40 566 53 596 c 128
 66 626 66 626 84 649.5 c 128
 102 673 102 673 120 689 c 128
 138 705 138 705 147 713 c 1
 186 702 l 1
EndSplineSet
EndChar

StartChar: quoteright
Encoding: 168 8217 99
Width: 247
GlyphClass: 1
Flags: W
LayerCount: 2
Fore
SplineSet
208 616 m 1
 208 580 208 580 195 549.5 c 128
 182 519 182 519 164 496 c 128
 146 473 146 473 128 457 c 128
 110 441 110 441 101 433 c 1
 64 440 l 1
 80 456 80 456 95 473.5 c 128
 110 491 110 491 121 510 c 128
 132 529 132 529 138.5 549 c 128
 145 569 145 569 145 590 c 0
 145 593 145 593 145 598 c 128
 145 603 145 603 145 606 c 1
 83 606 l 1
 79 610 79 610 76 616 c 0
 74 621 74 621 72 628 c 128
 70 635 70 635 70 643 c 0
 70 668 70 668 85.5 685.5 c 128
 101 703 101 703 129 703 c 0
 166 703 166 703 188.5 678.5 c 128
 211 654 211 654 208 616 c 1
EndSplineSet
EndChar

StartChar: quotedblleft
Encoding: 169 8220 100
Width: 453
GlyphClass: 1
Flags: W
LayerCount: 2
Fore
SplineSet
186 702 m 1
 171 687 171 687 156.5 670.5 c 128
 142 654 142 654 130.5 635 c 128
 119 616 119 616 112 595.5 c 128
 105 575 105 575 105 552 c 0
 105 547 105 547 105 542.5 c 128
 105 538 105 538 105 535 c 1
 167 535 l 1
 170 531 170 531 173 526 c 0
 175 521 175 521 177 514 c 128
 179 507 179 507 179 498 c 0
 179 486 179 486 175 475 c 128
 171 464 171 464 163.5 456 c 128
 156 448 156 448 145.5 443.5 c 128
 135 439 135 439 122 439 c 0
 84 439 84 439 62 463.5 c 128
 40 488 40 488 40 530 c 0
 40 566 40 566 53 596.5 c 128
 66 627 66 627 84 650 c 128
 102 673 102 673 120 689 c 128
 138 705 138 705 147 713 c 1
 186 702 l 1
390 707 m 1
 380 695 380 695 366 679.5 c 128
 352 664 352 664 339.5 645 c 128
 327 626 327 626 318 604.5 c 128
 309 583 309 583 309 558 c 0
 309 553 309 553 309 548 c 128
 309 543 309 543 309 540 c 1
 371 540 l 1
 374 535 374 535 377 530 c 0
 379 525 379 525 381 518.5 c 128
 383 512 383 512 383 504 c 0
 383 492 383 492 379 481 c 128
 375 470 375 470 367.5 462 c 128
 360 454 360 454 349 449.5 c 128
 338 445 338 445 325 445 c 0
 286 445 286 445 264.5 470.5 c 128
 243 496 243 496 243 538 c 0
 243 574 243 574 256 604 c 128
 269 634 269 634 287 657 c 128
 305 680 305 680 323 696 c 128
 341 712 341 712 350 720 c 1
 390 707 l 1
EndSplineSet
EndChar

StartChar: quotedblright
Encoding: 170 8221 101
Width: 453
GlyphClass: 1
Flags: W
LayerCount: 2
Fore
SplineSet
208 615 m 1
 208 579 208 579 195 549 c 128
 182 519 182 519 164 496 c 128
 146 473 146 473 128 457 c 128
 110 441 110 441 101 433 c 1
 64 440 l 1
 74 452 74 452 88 467.5 c 128
 102 483 102 483 114.5 501.5 c 128
 127 520 127 520 136 541.5 c 128
 145 563 145 563 145 587 c 0
 145 592 145 592 145 597 c 128
 145 602 145 602 145 605 c 1
 83 605 l 1
 79 610 79 610 76 616 c 0
 74 621 74 621 72 628 c 128
 70 635 70 635 70 643 c 0
 70 655 70 655 74 666 c 128
 78 677 78 677 86 685 c 128
 94 693 94 693 105 697.5 c 128
 116 702 116 702 129 702 c 0
 168 702 168 702 189 677 c 128
 210 652 210 652 208 615 c 1
416 611 m 1
 416 575 416 575 403 544.5 c 128
 390 514 390 514 372 491 c 128
 354 468 354 468 336 452 c 128
 318 436 318 436 309 428 c 1
 272 435 l 1
 287 450 287 450 301.5 466.5 c 128
 316 483 316 483 327.5 501.5 c 128
 339 520 339 520 346.5 540.5 c 128
 354 561 354 561 354 584 c 0
 354 589 354 589 353.5 593 c 128
 353 597 353 597 353 600 c 1
 291 600 l 1
 287 604 287 604 284 610 c 0
 282 615 282 615 280 622 c 128
 278 629 278 629 278 638 c 0
 278 663 278 663 294 680 c 128
 310 697 310 697 337 697 c 0
 375 697 375 697 397 672 c 128
 419 647 419 647 416 611 c 1
EndSplineSet
EndChar

StartChar: u0B83
Encoding: 99 2947 102
Width: 714
GlyphClass: 1
Flags: W
LayerCount: 2
Fore
SplineSet
287 621 m 256
 319 621 319 621 342.5 597.5 c 128
 366 574 366 574 366 542 c 256
 366 510 366 510 342.5 486.5 c 128
 319 463 319 463 287 463 c 256
 255 463 255 463 231.5 486.5 c 128
 208 510 208 510 208 542 c 256
 208 574 208 574 231.5 597.5 c 128
 255 621 255 621 287 621 c 256
80 168 m 256
 112 168 112 168 135.5 144.5 c 128
 159 121 159 121 159 89 c 256
 159 57 159 57 135.5 33.5 c 128
 112 10 112 10 80 10 c 256
 48 10 48 10 24.5 33.5 c 128
 1 57 1 57 1 89 c 256
 1 121 1 121 24.5 144.5 c 128
 48 168 48 168 80 168 c 256
494 168 m 256
 526 168 526 168 549.5 144.5 c 128
 573 121 573 121 573 89 c 256
 573 57 573 57 549.5 33.5 c 128
 526 10 526 10 494 10 c 256
 462 10 462 10 438.5 33.5 c 128
 415 57 415 57 415 89 c 256
 415 121 415 121 438.5 144.5 c 128
 462 168 462 168 494 168 c 256
EndSplineSet
EndChar

StartChar: u0B85
Encoding: 100 2949 103
Width: 1148
GlyphClass: 1
Flags: HW
AnchorPoint: "V" 511 625.823 basechar 0
AnchorPoint: "N" 511 -105 basechar 0
LayerCount: 2
Fore
SplineSet
1014 -105 m 1
 909 -105 l 1
 909 189 l 1
 775 189 l 1
 721 100 721 100 615 50.5 c 128
 509 1 509 1 376 1 c 0
 217 1 217 1 119 62 c 0
 51 105 51 105 9 180 c 1
 4 191 4 191 4 199 c 0
 4 215 4 215 14.5 225 c 128
 25 235 25 235 48 235 c 2
 693 235 l 1
 735 303 735 303 735 381 c 0
 735 462 735 462 694 506 c 128
 653 550 653 550 579 566 c 1
 640 533 640 533 640 433 c 0
 640 370 640 370 610 333 c 0
 574 289 574 289 499 289 c 0
 434 289 434 289 398 338.5 c 128
 362 388 362 388 362 458 c 0
 362 530 362 530 410 578 c 128
 458 626 458 626 546 626 c 0
 677 626 677 626 751.5 555.5 c 128
 826 485 826 485 826 355 c 0
 826 320 826 320 821.5 295.5 c 128
 817 271 817 271 803 235 c 1
 913 235 l 1
 913 627 l 1
 1018 627 l 1
 1014 -105 l 1
561 445 m 1
 561 488 561 488 545 518 c 128
 529 548 529 548 507 557 c 1
 467 562 467 562 439.5 530.5 c 128
 412 499 412 499 412 453 c 256
 412 407 412 407 435 384 c 128
 458 361 458 361 488 361 c 0
 523 361 523 361 542.5 386 c 128
 562 411 562 411 561 445 c 1
665 185 m 1
 94 185 l 2
 65 185 65 185 65 170 c 0
 65 165 65 165 70 157 c 0
 103 108 103 108 165 80 c 0
 240 47 240 47 352 47 c 0
 550 47 550 47 665 185 c 1
EndSplineSet
EndChar

StartChar: u0B86
Encoding: 101 2950 104
Width: 1414
GlyphClass: 1
Flags: HW
AnchorPoint: "V" 642 621.498 basechar 0
AnchorPoint: "N" 642 -349 basechar 0
LayerCount: 2
Fore
SplineSet
1274 64 m 1
 1274 -134 1274 -134 1144 -244 c 0
 1021 -349 1021 -349 820 -349 c 0
 638 -349 638 -349 539.5 -302.5 c 128
 441 -256 441 -256 441 -170 c 0
 441 -112 441 -112 492.5 -81.5 c 128
 544 -51 544 -51 619 -51 c 0
 673 -51 673 -51 723 -68.5 c 128
 773 -86 773 -86 806 -116 c 1
 792 -141 l 1
 759 -116 759 -116 709.5 -101.5 c 128
 660 -87 660 -87 611 -87 c 0
 551 -87 551 -87 518.5 -108 c 128
 486 -129 486 -129 486 -168 c 0
 486 -238 486 -238 579 -272 c 0
 657 -301 657 -301 776 -301 c 0
 950 -301 950 -301 1058.5 -197 c 128
 1167 -93 1167 -93 1167 58 c 0
 1167 141 1167 141 1131 188 c 0
 1101 228 1101 228 1058 228 c 0
 1032 228 1032 228 1016 212 c 1
 1016 -107 l 1
 911 -107 l 1
 911 187 l 1
 777 187 l 1
 723 98 723 98 617 48.5 c 128
 511 -1 511 -1 378 -1 c 0
 219 -1 219 -1 121 60 c 0
 53 103 53 103 11 178 c 1
 6 189 6 189 6 197 c 0
 6 213 6 213 16.5 223 c 128
 27 233 27 233 50 233 c 2
 695 233 l 1
 737 301 737 301 737 379 c 0
 737 460 737 460 696 504 c 128
 655 548 655 548 581 564 c 1
 642 531 642 531 642 431 c 0
 642 368 642 368 612 331 c 0
 576 287 576 287 501 287 c 0
 436 287 436 287 400 336.5 c 128
 364 386 364 386 364 456 c 0
 364 528 364 528 412 576 c 128
 460 624 460 624 548 624 c 0
 679 624 679 624 753.5 553.5 c 128
 828 483 828 483 828 353 c 0
 828 318 828 318 823.5 293.5 c 128
 819 269 819 269 805 233 c 1
 915 233 l 1
 915 625 l 1
 1020 625 l 1
 1020 257 l 1
 1053 290 1053 290 1102 290 c 0
 1173 290 1173 290 1225.5 228.5 c 128
 1278 167 1278 167 1274 64 c 1
562 442 m 1
 562 485 562 485 546 515 c 128
 530 545 530 545 508 554 c 1
 468 559 468 559 440.5 527.5 c 128
 413 496 413 496 413 450 c 256
 413 404 413 404 436 381 c 128
 459 358 459 358 489 358 c 0
 524 358 524 358 543.5 383 c 128
 563 408 563 408 562 442 c 1
666 182 m 1
 95 182 l 2
 66 182 66 182 66 167 c 0
 66 162 66 162 71 154 c 0
 104 105 104 105 166 77 c 0
 241 44 241 44 353 44 c 0
 551 44 551 44 666 182 c 1
EndSplineSet
EndChar

StartChar: u0B87
Encoding: 102 2951 105
Width: 1078
GlyphClass: 1
Flags: HW
AnchorPoint: "V" 478 899.999 basechar 0
AnchorPoint: "N" 478 -126 basechar 0
LayerCount: 2
Fore
SplineSet
375 448 m 0
 375 491 375 491 359 521 c 128
 343 551 343 551 321 560 c 1
 281 565 281 565 253 533.5 c 128
 225 502 225 502 225 456 c 256
 225 410 225 410 248 387 c 128
 271 364 271 364 301 364 c 0
 336 364 336 364 355.5 389 c 128
 375 414 375 414 375 448 c 0
417 -61 m 1
 471 -77 471 -77 531 -77 c 0
 603 -77 603 -77 642 -38 c 128
 681 1 681 1 681 55 c 0
 681 84 681 84 661 111 c 128
 641 138 641 138 602 160 c 1
 542 18 542 18 417 -61 c 1
114 109 m 1
 49 62 49 62 49 9 c 0
 49 -30 49 -30 85 -53.5 c 128
 121 -77 121 -77 178 -77 c 0
 232 -77 232 -77 282 -55 c 1
 217 -15 217 -15 166 42 c 1
 154 57 154 57 140 74.5 c 128
 126 92 126 92 114 109 c 1
158 136 m 1
 176 110 176 110 183.5 100.5 c 128
 191 91 191 91 213 68 c 0
 267 13 267 13 335 -26 c 1
 458 52 458 52 516 196 c 1
 467 208 467 208 414 208 c 0
 350 208 350 208 282.5 190 c 128
 215 172 215 172 158 136 c 1
532 243 m 1
 548 297 548 297 548 355 c 0
 548 452 548 452 505 505 c 0
 468 551 468 551 393 567 c 1
 454 534 454 534 454 434 c 0
 454 371 454 371 424 334 c 0
 388 290 388 290 313 290 c 0
 248 290 248 290 212 339.5 c 128
 176 389 176 389 176 459 c 0
 176 531 176 531 224 579 c 128
 272 627 272 627 360 627 c 0
 491 627 491 627 565.5 556.5 c 128
 640 486 640 486 640 356 c 0
 640 317 640 317 636.5 288 c 128
 633 259 633 259 622 219 c 1
 692 194 692 194 736 151.5 c 128
 780 109 780 109 780 54 c 0
 780 -35 780 -35 712.5 -79.5 c 128
 645 -124 645 -124 531 -124 c 0
 443 -124 443 -124 358 -90 c 1
 276 -124 276 -124 188 -124 c 0
 103 -124 103 -124 56 -92 c 0
 3 -56 3 -56 3 16 c 0
 3 55 3 55 25 89 c 128
 47 123 47 123 89 155 c 1
 3 309 3 309 3 461 c 0
 3 669 3 669 141 789 c 0
 269 900 269 900 466 900 c 0
 690 900 690 900 821.5 753.5 c 128
 953 607 953 607 953 344 c 0
 953 230 953 230 927 110 c 0
 897 -31 897 -31 848 -126 c 1
 812 -111 l 1
 841 -58 841 -58 869 45 c 0
 905 182 905 182 905 313 c 0
 905 535 905 535 781.5 667 c 128
 658 799 658 799 468 799 c 0
 289 799 289 799 171 699 c 128
 53 599 53 599 53 451 c 0
 53 387 53 387 72.5 319.5 c 128
 92 252 92 252 134 181 c 1
 268 252 268 252 423 252 c 0
 484 252 484 252 532 243 c 1
EndSplineSet
EndChar

StartChar: u0B88
Encoding: 103 2952 106
Width: 728
GlyphClass: 1
Flags: HW
AnchorPoint: "V" 291 629 basechar 0
AnchorPoint: "N" 291 -1 basechar 0
LayerCount: 2
Fore
SplineSet
582 315 m 256
 582 289 582 289 564.5 271.5 c 128
 547 254 547 254 521 254 c 256
 495 254 495 254 477.5 271.5 c 128
 460 289 460 289 460 315 c 256
 460 341 460 341 476.5 359 c 128
 493 377 493 377 521 377 c 0
 546 377 546 377 564 359 c 128
 582 341 582 341 582 315 c 256
539 580 m 1
 399 580 l 1
 399 -1 l 1
 294 -1 l 1
 294 580 l 1
 49 580 l 1
 49 -1 l 1
 0 -1 l 1
 0 629 l 1
 539 629 l 1
 539 580 l 1
233 314 m 256
 233 288 233 288 215.5 270.5 c 128
 198 253 198 253 172 253 c 256
 146 253 146 253 128.5 270.5 c 128
 111 288 111 288 111 314 c 256
 111 340 111 340 127.5 358 c 128
 144 376 144 376 172 376 c 0
 197 376 197 376 215 358 c 128
 233 340 233 340 233 314 c 256
EndSplineSet
EndChar

StartChar: u0B89
Encoding: 104 2953 107
Width: 1134
GlyphClass: 1
Flags: HW
AnchorPoint: "V" 529.5 41 basechar 0
AnchorPoint: "N" 529.5 0 basechar 0
LayerCount: 2
Fore
SplineSet
1029 0 m 1
 111 0 l 2
 61 0 61 0 31 26.5 c 128
 1 53 1 53 1 87 c 0
 1 123 1 123 30 149.5 c 128
 59 176 59 176 110 176 c 2
 287 176 l 2
 350 176 350 176 392 236 c 0
 429 290 429 290 429 358 c 0
 429 463 429 463 385 517 c 0
 336 577 336 577 227 577 c 0
 157 577 157 577 103.5 537.5 c 128
 50 498 50 498 50 449 c 1
 84 507 84 507 153 507 c 0
 213 507 213 507 249 464.5 c 128
 285 422 285 422 285 359 c 0
 285 291 285 291 246 253.5 c 128
 207 216 207 216 140 216 c 0
 64 216 64 216 28 280 c 0
 -1 331 -1 331 -1 422 c 0
 -1 503 -1 503 63 561 c 0
 132 625 132 625 245 625 c 0
 382 625 382 625 454 554 c 128
 526 483 526 483 526 363 c 0
 526 120 526 120 287 120 c 2
 148 120 l 2
 121 120 121 120 105 108.5 c 128
 89 97 89 97 89 81 c 0
 89 41 89 41 147 41 c 2
 1027 41 l 2
 1060 41 1060 41 1060 20 c 256
 1060 -1 1060 -1 1029 0 c 1
195 386 m 1
 190 409 190 409 169 425.5 c 128
 148 442 148 442 123 442 c 0
 76 442 76 442 48 392 c 1
 48 343 48 343 70 310.5 c 128
 92 278 92 278 129 278 c 0
 162 278 162 278 179.5 303.5 c 128
 197 329 197 329 197 362 c 0
 197 370 197 370 195 386 c 1
EndSplineSet
EndChar

StartChar: u0B8A
Encoding: 105 2954 108
Width: 1819
GlyphClass: 1
Flags: HW
AnchorPoint: "V" 846.5 620.108 basechar 0
AnchorPoint: "N" 846.5 1 basechar 0
LayerCount: 2
Fore
SplineSet
1694 581 m 1
 1554 581 l 1
 1554 84 l 1
 1449 84 l 1
 1449 581 l 1
 1288 581 l 1
 1288 84 l 1
 1183 84 l 1
 1183 439 l 2
 1183 502 1183 502 1130 541 c 128
 1077 580 1077 580 985 580 c 0
 878 580 878 580 799 524 c 0
 727 474 727 474 727 423 c 1
 745 446 745 446 780.5 460 c 128
 816 474 816 474 862 474 c 0
 937 474 937 474 987 421 c 128
 1037 368 1037 368 1037 286 c 0
 1037 193 1037 193 999.5 139.5 c 128
 962 86 962 86 885 86 c 0
 789 86 789 86 732 158.5 c 128
 675 231 675 231 675 359 c 0
 675 485 675 485 759 557.5 c 128
 843 630 843 630 974 630 c 0
 1102 630 1102 630 1173 597 c 0
 1231 569 1231 569 1246 526 c 1
 1246 631 l 1
 1694 631 l 1
 1694 581 l 1
1645 1 m 1
 111 1 l 2
 61 1 61 1 31 27.5 c 128
 1 54 1 54 1 88 c 0
 1 124 1 124 30 150.5 c 128
 59 177 59 177 110 177 c 2
 287 177 l 2
 350 177 350 177 392 237 c 0
 429 291 429 291 429 359 c 0
 429 464 429 464 385 518 c 0
 336 578 336 578 227 578 c 0
 157 578 157 578 103.5 538.5 c 128
 50 499 50 499 50 450 c 1
 84 508 84 508 153 508 c 0
 213 508 213 508 249 465.5 c 128
 285 423 285 423 285 360 c 0
 285 292 285 292 246 254.5 c 128
 207 217 207 217 140 217 c 0
 64 217 64 217 28 281 c 0
 -1 332 -1 332 -1 423 c 0
 -1 504 -1 504 63 562 c 0
 132 626 132 626 245 626 c 0
 382 626 382 626 454 555 c 128
 526 484 526 484 526 364 c 0
 526 121 526 121 287 121 c 2
 148 121 l 2
 121 121 121 121 105 109.5 c 128
 89 98 89 98 89 82 c 0
 89 42 89 42 147 42 c 2
 1643 42 l 2
 1676 42 1676 42 1676 21 c 256
 1676 0 1676 0 1645 1 c 1
923 287 m 0
 923 331 923 331 891.5 368 c 128
 860 405 860 405 820 405 c 0
 783 405 783 405 756 385 c 128
 729 365 729 365 721 336 c 1
 721 279 721 279 749 231 c 0
 782 173 782 173 833 173 c 0
 876 173 876 173 899.5 207 c 128
 923 241 923 241 923 287 c 0
195 389 m 1
 190 412 190 412 169 428.5 c 128
 148 445 148 445 123 445 c 0
 76 445 76 445 48 395 c 1
 48 346 48 346 70 313.5 c 128
 92 281 92 281 129 281 c 0
 162 281 162 281 179.5 306.5 c 128
 197 332 197 332 197 365 c 0
 197 373 197 373 195 389 c 1
EndSplineSet
EndChar

StartChar: u0B8E
Encoding: 106 2958 109
Width: 896
GlyphClass: 1
Flags: HW
AnchorPoint: "V" 379.5 631 basechar 0
AnchorPoint: "N" 379.5 0 basechar 0
LayerCount: 2
Fore
SplineSet
756 581 m 1
 616 581 l 1
 616 0 l 1
 511 0 l 1
 511 581 l 1
 313 581 l 2
 187 581 187 581 113 503 c 0
 52 439 52 439 52 358 c 1
 68 383 68 383 105 399 c 128
 142 415 142 415 186 415 c 0
 267 415 267 415 318 360 c 128
 369 305 369 305 369 217 c 0
 369 118 369 118 333 64 c 0
 293 3 293 3 212 3 c 0
 112 3 112 3 57 79 c 128
 2 155 2 155 2 292 c 0
 2 448 2 448 83 539.5 c 128
 164 631 164 631 301 631 c 2
 757 631 l 1
 756 581 l 1
266 214 m 0
 266 264 266 264 233.5 305 c 128
 201 346 201 346 158 346 c 0
 117 346 117 346 90.5 325 c 128
 64 304 64 304 53 268 c 1
 53 190 53 190 83.5 137.5 c 128
 114 85 114 85 171 85 c 0
 217 85 217 85 242 123.5 c 128
 267 162 267 162 266 214 c 0
EndSplineSet
EndChar

StartChar: u0B8F
Encoding: 107 2959 110
Width: 896
GlyphClass: 1
Flags: HW
AnchorPoint: "V" 378.5 631 basechar 0
AnchorPoint: "N" 378.5 -196 basechar 0
LayerCount: 2
Fore
SplineSet
756 581 m 1
 616 581 l 1
 616 0 l 1
 385 -196 l 1
 301 -196 l 1
 510 0 l 1
 510 581 l 1
 312 581 l 2
 186 581 186 581 112 503 c 0
 51 439 51 439 51 358 c 1
 67 383 67 383 104 399 c 128
 141 415 141 415 185 415 c 0
 266 415 266 415 317 360 c 128
 368 305 368 305 368 217 c 0
 368 118 368 118 332 64 c 0
 292 3 292 3 211 3 c 0
 111 3 111 3 56 79 c 128
 1 155 1 155 1 292 c 0
 1 448 1 448 82 539.5 c 128
 163 631 163 631 300 631 c 2
 756 631 l 1
 756 581 l 1
265 214 m 0
 265 264 265 264 232.5 305 c 128
 200 346 200 346 157 346 c 0
 116 346 116 346 89.5 325 c 128
 63 304 63 304 52 268 c 1
 52 190 52 190 82.5 137.5 c 128
 113 85 113 85 170 85 c 0
 216 85 216 85 241 123.5 c 128
 266 162 266 162 265 214 c 0
EndSplineSet
EndChar

StartChar: u0B90
Encoding: 108 2960 111
Width: 909
GlyphClass: 1
Flags: HW
AnchorPoint: "V" 387.5 600.496 basechar 0
AnchorPoint: "N" 387.5 -242 basechar 0
LayerCount: 2
Fore
SplineSet
770 408 m 0
 770 340 770 340 747 283 c 0
 718 214 718 214 662 184 c 1
 590 147 590 147 430 139.5 c 128
 270 132 270 132 217 113 c 0
 185 101 185 101 162 69 c 0
 130 26 130 26 130 -32 c 0
 130 -99 130 -99 159 -144.5 c 128
 188 -190 188 -190 244 -190 c 0
 290 -190 290 -190 328.5 -150.5 c 128
 367 -111 367 -111 367 -72 c 2
 367 16 l 1
 464 16 l 1
 464 -69 l 2
 464 -115 464 -115 494 -151 c 0
 530 -194 530 -194 587 -194 c 0
 640 -194 640 -194 666 -157 c 0
 688 -125 688 -125 688 -69 c 0
 688 -32 688 -32 678.5 -0.5 c 128
 669 31 669 31 651 53 c 1
 712 81 l 1
 754 20 754 20 754 -59 c 0
 754 -137 754 -137 714 -186 c 0
 668 -242 668 -242 579 -242 c 0
 521 -242 521 -242 484 -222 c 128
 447 -202 447 -202 429 -167 c 1
 413 -197 413 -197 365 -219 c 128
 317 -241 317 -241 261 -241 c 0
 147 -241 147 -241 90 -185 c 128
 33 -129 33 -129 33 -32 c 0
 33 40 33 40 67 87 c 0
 96 126 96 126 146 145 c 0
 223 175 223 175 334 184 c 1
 559 205 559 205 598.5 224.5 c 128
 638 244 638 244 659 318 c 0
 673 368 673 368 673 421 c 0
 673 492 673 492 642.5 536.5 c 128
 612 581 612 581 548 581 c 0
 506 581 506 581 483 541 c 0
 465 511 465 511 465 478 c 2
 465 302 l 1
 368 302 l 1
 368 471 l 2
 368 508 368 508 340 538 c 0
 301 581 301 581 233 581 c 0
 163 581 163 581 109.5 541.5 c 128
 56 502 56 502 56 453 c 1
 90 511 90 511 159 511 c 0
 219 511 219 511 255 468.5 c 128
 291 426 291 426 291 363 c 0
 291 295 291 295 252 257.5 c 128
 213 220 213 220 146 220 c 0
 70 220 70 220 34 284 c 0
 5 335 5 335 5 426 c 0
 5 510 5 510 67 567 c 0
 135 630 135 630 251 630 c 0
 332 630 332 630 379 605 c 0
 415 586 415 586 429 551 c 1
 441 583 441 583 466 602 c 0
 502 630 502 630 560 630 c 0
 662 630 662 630 715.5 572 c 128
 769 514 769 514 770 408 c 0
197 388 m 1
 192 411 192 411 171 427.5 c 128
 150 444 150 444 125 444 c 0
 78 444 78 444 50 394 c 1
 50 345 50 345 72 312.5 c 128
 94 280 94 280 131 280 c 0
 164 280 164 280 181.5 305.5 c 128
 199 331 199 331 199 364 c 0
 199 372 199 372 197 388 c 1
EndSplineSet
EndChar

StartChar: u0B92
Encoding: 109 2962 112
Width: 979
GlyphClass: 1
Flags: HW
AnchorPoint: "V" 398.5 629 basechar 0
AnchorPoint: "N" 398.5 -345 basechar 0
LayerCount: 2
Fore
SplineSet
798 298 m 1
 798 195 798 195 753.5 136.5 c 128
 709 78 709 78 634 78 c 0
 564 78 564 78 536 128 c 0
 515 165 515 165 515 236 c 1
 508 211 508 211 504 188 c 128
 500 165 500 165 500 146 c 0
 500 81 500 81 546 55 c 0
 582 34 582 34 659 34 c 2
 765 34 l 1
 765 -20 l 1
 687 -20 l 2
 629 -20 629 -20 600 -111 c 1
 585 -162 585 -162 570 -213 c 1
 548 -277 548 -277 497 -311 c 128
 446 -345 446 -345 353 -345 c 0
 246 -345 246 -345 181 -293.5 c 128
 116 -242 116 -242 116 -165 c 0
 116 -97 116 -97 148.5 -53 c 128
 181 -9 181 -9 239 -9 c 1
 255 -64 l 1
 214 -64 214 -64 189 -89 c 128
 164 -114 164 -114 164 -164 c 0
 164 -218 164 -218 217 -256.5 c 128
 270 -295 270 -295 363 -295 c 0
 442 -295 442 -295 472 -235 c 0
 481 -216 481 -216 502 -110 c 0
 513 -52 513 -52 531 -29 c 0
 544 -11 544 -11 573 -2 c 1
 516 10 516 10 489.5 53 c 128
 463 96 463 96 463 154 c 0
 463 221 463 221 493.5 284.5 c 128
 524 348 524 348 561 362 c 1
 586 347 l 1
 549 315 549 315 549 245 c 0
 549 206 549 206 563.5 179 c 128
 578 152 578 152 604 152 c 0
 650 152 650 152 670 188 c 128
 690 224 690 224 690 294 c 0
 690 414 690 414 592 497 c 128
 494 580 494 580 377 580 c 0
 249 580 249 580 163 529 c 128
 77 478 77 478 52 373 c 1
 67 394 67 394 97.5 407 c 128
 128 420 128 420 165 420 c 0
 239 420 239 420 285 375.5 c 128
 331 331 331 331 331 260 c 0
 331 181 331 181 295 133 c 128
 259 85 259 85 187 85 c 0
 99 85 99 85 49 148.5 c 128
 -1 212 -1 212 -1 304 c 0
 -1 456 -1 456 92 540 c 0
 192 629 192 629 389 629 c 0
 587 629 587 629 696 529 c 0
 794 439 794 439 798 298 c 1
226 259 m 1
 226 302 226 302 203 334 c 128
 180 366 180 366 141 366 c 0
 104 366 104 366 80 349.5 c 128
 56 333 56 333 48 304 c 1
 48 254 48 254 76.5 207.5 c 128
 105 161 105 161 155 161 c 0
 192 161 192 161 209.5 189 c 128
 227 217 227 217 226 259 c 1
EndSplineSet
EndChar

StartChar: u0B93
Encoding: 110 2963 113
Width: 979
GlyphClass: 1
Flags: HW
AnchorPoint: "V" 399.5 628 basechar 0
AnchorPoint: "N" 399.5 -346 basechar 0
LayerCount: 2
Fore
SplineSet
798 298 m 1
 798 195 798 195 753.5 136.5 c 128
 709 78 709 78 634 78 c 0
 564 78 564 78 536 128 c 0
 515 165 515 165 515 236 c 1
 500 186 500 186 500 144 c 0
 500 80 500 80 546 54 c 0
 582 33 582 33 659 33 c 2
 765 33 l 1
 765 -21 l 1
 687 -21 l 2
 629 -21 629 -21 600 -112 c 1
 585 -163 585 -163 570 -214 c 1
 548 -278 548 -278 497 -312 c 128
 446 -346 446 -346 353 -346 c 0
 244 -346 244 -346 180 -295 c 128
 116 -244 116 -244 116 -166 c 0
 116 -98 116 -98 151.5 -55.5 c 128
 187 -13 187 -13 255 -13 c 256
 323 -13 323 -13 361.5 -44 c 128
 400 -75 400 -75 400 -122 c 0
 400 -151 400 -151 389.5 -175.5 c 128
 379 -200 379 -200 354 -219 c 1
 304 -194 l 1
 320 -178 320 -178 327 -161.5 c 128
 334 -145 334 -145 334 -127 c 0
 334 -101 334 -101 312.5 -83.5 c 128
 291 -66 291 -66 256 -66 c 0
 215 -66 215 -66 190 -91 c 128
 165 -116 165 -116 165 -166 c 0
 165 -220 165 -220 218 -258.5 c 128
 271 -297 271 -297 364 -297 c 0
 463 -297 463 -297 489 -195 c 1
 501 -123 501 -123 509 -88.5 c 128
 517 -54 517 -54 531.5 -33 c 128
 546 -12 546 -12 575 -3 c 1
 518 9 518 9 491.5 52 c 128
 465 95 465 95 465 153 c 0
 465 220 465 220 495.5 283.5 c 128
 526 347 526 347 563 361 c 1
 588 346 l 1
 551 314 551 314 551 244 c 0
 551 205 551 205 565.5 178 c 128
 580 151 580 151 606 151 c 0
 652 151 652 151 672 187 c 128
 692 223 692 223 692 293 c 0
 692 413 692 413 594 496 c 128
 496 579 496 579 379 579 c 0
 251 579 251 579 165 528 c 128
 79 477 79 477 54 372 c 1
 69 393 69 393 99.5 406 c 128
 130 419 130 419 167 419 c 0
 241 419 241 419 287 374.5 c 128
 333 330 333 330 333 259 c 0
 333 180 333 180 297 132 c 128
 261 84 261 84 189 84 c 0
 101 84 101 84 51 147.5 c 128
 1 211 1 211 1 303 c 0
 1 455 1 455 94 539 c 0
 194 628 194 628 391 628 c 0
 589 628 589 628 698 528 c 0
 796 438 796 438 798 298 c 1
228 258 m 1
 228 301 228 301 205 333 c 128
 182 365 182 365 143 365 c 0
 106 365 106 365 82 348.5 c 128
 58 332 58 332 50 303 c 1
 50 253 50 253 78.5 206.5 c 128
 107 160 107 160 157 160 c 0
 194 160 194 160 211.5 188 c 128
 229 216 229 216 228 258 c 1
EndSplineSet
EndChar

StartChar: u0B95
Encoding: 112 2965 115
Width: 868
GlyphClass: 1
Flags: HW
AnchorPoint: "V" 357 627 basechar 0
AnchorPoint: "N" 357 -1 basechar 0
LayerCount: 2
Fore
SplineSet
736 169 m 1
 736 88 736 88 689.5 44 c 128
 643 0 643 0 565 0 c 0
 496 0 496 0 460.5 21.5 c 128
 425 43 425 43 417 73 c 1
 395 48 395 48 342 23.5 c 128
 289 -1 289 -1 229 -1 c 0
 130 -1 130 -1 75 45 c 0
 14 96 14 96 14 195 c 0
 14 272 14 272 65 321 c 0
 105 360 105 360 139 360 c 1
 139 627 l 1
 594 627 l 1
 594 578 l 1
 454 578 l 1
 454 361 l 1
 630 361 630 361 687 311 c 0
 738 265 738 265 736 169 c 1
348 361 m 1
 348 578 l 1
 188 578 l 1
 188 361 l 1
 348 361 l 1
641 164 m 0
 641 260 641 260 587 290 c 0
 550 311 550 311 455 311 c 1
 455 145 l 2
 455 95 455 95 475 70.5 c 128
 495 46 495 46 544 46 c 0
 584 46 584 46 612.5 75 c 128
 641 104 641 104 641 164 c 0
349 140 m 1
 349 310 l 1
 166 310 l 2
 132 310 132 310 103 284 c 0
 63 248 63 248 63 181 c 0
 63 113 63 113 102 79.5 c 128
 141 46 141 46 215 46 c 0
 258 46 258 46 304 75 c 128
 350 104 350 104 349 140 c 1
EndSplineSet
EndChar

StartChar: u0B95_u0BBF
Encoding: 175 -1 116
Width: 1021
GlyphClass: 1
Flags: HW
AnchorPoint: "V" 357 1007.24 basechar 0
AnchorPoint: "N" 357 -1 basechar 0
LayerCount: 2
Fore
SplineSet
882 0 m 1
 840 0 l 1
 840 632 l 2
 840 752 840 752 734 830 c 128
 628 908 628 908 466 908 c 0
 257 908 257 908 151 826 c 0
 52 749 52 749 52 614 c 0
 52 547 52 547 71.5 487 c 128
 91 427 91 427 130 391 c 1
 130 630 l 1
 585 630 l 1
 585 581 l 1
 445 581 l 1
 445 364 l 1
 621 364 621 364 678 314 c 0
 729 268 729 268 729 170 c 0
 729 89 729 89 682.5 45 c 128
 636 1 636 1 558 1 c 0
 488 1 488 1 452.5 22.5 c 128
 417 44 417 44 409 74 c 1
 387 49 387 49 334 24.5 c 128
 281 0 281 0 221 0 c 0
 122 0 122 0 66 46 c 0
 5 97 5 97 5 196 c 0
 5 260 5 260 38 303 c 0
 64 336 64 336 103 352 c 1
 50 396 50 396 27 461 c 128
 4 526 4 526 4 602 c 0
 4 778 4 778 107 884 c 0
 228 1008 228 1008 466 1008 c 0
 680 1008 680 1008 782 910.5 c 128
 884 813 884 813 884 617 c 2
 882 0 l 1
340 358 m 1
 340 575 l 1
 179 575 l 1
 179 358 l 1
 340 358 l 1
632 161 m 0
 632 257 632 257 578 287 c 0
 541 308 541 308 446 308 c 1
 446 142 l 2
 446 92 446 92 466 67.5 c 128
 486 43 486 43 535 43 c 0
 575 43 575 43 603.5 72 c 128
 632 101 632 101 632 161 c 0
340 137 m 2
 340 307 l 1
 157 307 l 2
 122 307 122 307 93 281 c 0
 53 245 53 245 53 178 c 0
 53 110 53 110 92 76.5 c 128
 131 43 131 43 205 43 c 0
 248 43 248 43 294 72 c 128
 340 101 340 101 340 137 c 2
EndSplineSet
Ligature2: "sub_ligature_pststaml_0-0 subtable" u0B95 u0BBF
LCarets2: 1 0
EndChar

StartChar: u0B95_u0BC0
Encoding: 176 -1 117
Width: 868
GlyphClass: 1
Flags: HW
AnchorPoint: "V" 357 1044.26 basechar 0
AnchorPoint: "N" 357 -1 basechar 0
LayerCount: 2
Fore
SplineSet
628 842 m 1
 628 882 628 882 601 910.5 c 128
 574 939 574 939 531 939 c 1
 495 932 495 932 473 904 c 128
 451 876 451 876 451 840 c 256
 451 804 451 804 476.5 777 c 128
 502 750 502 750 536 750 c 0
 573 750 573 750 600 777 c 128
 627 804 627 804 628 842 c 1
336 363 m 1
 336 580 l 1
 175 580 l 1
 175 363 l 1
 336 363 l 1
628 166 m 0
 628 262 628 262 574 292 c 0
 537 313 537 313 442 313 c 1
 442 147 l 2
 442 97 442 97 462 72.5 c 128
 482 48 482 48 531 48 c 0
 571 48 571 48 599.5 77 c 128
 628 106 628 106 628 166 c 0
336 142 m 2
 336 312 l 1
 153 312 l 2
 118 312 118 312 89 286 c 0
 49 250 49 250 49 183 c 0
 49 115 49 115 88 81.5 c 128
 127 48 127 48 201 48 c 0
 244 48 244 48 290 77 c 128
 336 106 336 106 336 142 c 2
98 353 m 1
 45 397 45 397 22 462 c 128
 -1 527 -1 527 -1 603 c 0
 -1 799 -1 799 124.5 922 c 128
 250 1045 250 1045 447 1045 c 0
 550 1045 550 1045 617 1009 c 0
 708 960 708 960 708 854 c 0
 708 790 708 790 663.5 747 c 128
 619 704 619 704 548 704 c 0
 479 704 479 704 440.5 743.5 c 128
 402 783 402 783 402 839 c 0
 402 874 402 874 418 909 c 128
 434 944 434 944 462 959 c 1
 411 963 l 1
 253 963 253 963 147 849 c 0
 49 744 49 744 49 611 c 0
 49 544 49 544 68.5 484 c 128
 88 424 88 424 127 388 c 1
 127 627 l 1
 582 627 l 1
 582 578 l 1
 442 578 l 1
 442 361 l 1
 618 361 618 361 675 311 c 0
 726 265 726 265 726 167 c 0
 726 86 726 86 679.5 42 c 128
 633 -2 633 -2 555 -2 c 0
 485 -2 485 -2 449.5 19.5 c 128
 414 41 414 41 406 71 c 1
 384 46 384 46 331 21.5 c 128
 278 -3 278 -3 218 -3 c 0
 119 -3 119 -3 63 43 c 0
 2 94 2 94 2 193 c 0
 2 257 2 257 35 300 c 0
 61 333 61 333 98 353 c 1
EndSplineSet
Ligature2: "sub_ligature_pststaml_0-0 subtable" u0B95 u0BC0
LCarets2: 1 0
EndChar

StartChar: u0B95_u0BC1
Encoding: 177 -1 118
Width: 1099
GlyphClass: 2
Flags: HW
AnchorPoint: "V" 357 630 basechar 0
AnchorPoint: "N" 357 -1 basechar 0
LayerCount: 2
Fore
SplineSet
666 315 m 1
 666 149 l 2
 666 101 666 101 608 55 c 0
 540 2 540 2 442 2 c 0
 343 2 343 2 287 48 c 0
 226 99 226 99 226 198 c 0
 226 275 226 275 277 324 c 0
 317 363 317 363 352 363 c 1
 352 630 l 1
 807 630 l 1
 807 581 l 1
 667 581 l 1
 667 364 l 1
 815 364 815 364 880 321 c 0
 958 270 958 270 958 147 c 0
 958 -49 958 -49 870 -148 c 0
 756 -278 756 -278 476 -278 c 0
 239 -278 239 -278 118 -144 c 0
 2 -17 2 -17 2 211 c 0
 2 344 2 344 40.5 457 c 128
 79 570 79 570 146 630 c 1
 176 602 l 1
 113 539 113 539 81.5 434 c 128
 50 329 50 329 50 206 c 0
 50 15 50 15 155 -104 c 1
 267 -229 267 -229 465 -229 c 0
 693 -229 693 -229 785 -112 c 0
 853 -26 853 -26 853 143 c 0
 853 228 853 228 814 268 c 0
 770 314 770 314 666 315 c 1
562 363 m 1
 562 580 l 1
 401 580 l 1
 401 363 l 1
 562 363 l 1
562 144 m 2
 562 314 l 1
 379 314 l 2
 344 314 344 314 315 288 c 0
 275 252 275 252 275 185 c 0
 275 117 275 117 314 83.5 c 128
 353 50 353 50 427 50 c 0
 470 50 470 50 516 79 c 128
 562 108 562 108 562 144 c 2
EndSplineSet
Ligature2: "sub_ligature_pststaml_6 subtable" u0B95 u0BC1
LCarets2: 1 0
EndChar

StartChar: u0B95_u0BC2.old
Encoding: 97 -1 119
Width: 2695
Flags: HW
AnchorPoint: "V" 357 1292 basechar 0
AnchorPoint: "N" 357 -1 basechar 0
LayerCount: 2
Fore
SplineSet
5 407 m 0
 5 652 201 745 266 745 c 1
 266 1292 l 1
 1197 1292 l 1
 1197 1192 l 1
 910 1192 l 1
 910 749 l 1
 1262 749 l 2
 1287 749 1360 733 1376 659 c 1
 1421 732 1545 768 1749 768 c 0
 1921 768 2162 684 2162 437 c 0
 2162 279 2047 167 1949 102 c 1
 2408 102 l 1
 2408 2 l 1
 1654 2 l 1
 1654 102 l 1
 1829 199 1917 305 1917 422 c 0
 1917 557 1806 647 1675 647 c 0
 1522 647 1427 594 1408 520 c 1
 1408 1 l 1
 1193 1 l 1
 1193 646 l 1
 909 646 l 1
 909 305 l 2
 909 146 676 3 450 3 c 0
 188 3 5 131 5 407 c 0
694 749 m 1
 694 1192 l 1
 364 1192 l 1
 364 749 l 1
 694 749 l 1
319 649 m 2
 250 649 105 590 105 384 c 0
 105 199 209 106 417 106 c 0
 547 106 692 209 694 299 c 1
 694 649 l 1
 319 649 l 2
EndSplineSet
EndChar

StartChar: u0B95_u0BCD
Encoding: 178 -1 120
Width: 868
GlyphClass: 2
Flags: HW
AnchorPoint: "N" 357 -1 basechar 0
LayerCount: 2
Fore
SplineSet
436 814 m 256
 436 782 436 782 412.5 758.5 c 128
 389 735 389 735 357 735 c 256
 325 735 325 735 301.5 758.5 c 128
 278 782 278 782 278 814 c 256
 278 846 278 846 301.5 869.5 c 128
 325 893 325 893 357 893 c 256
 389 893 389 893 412.5 869.5 c 128
 436 846 436 846 436 814 c 256
727 169 m 0
 727 88 727 88 680.5 44 c 128
 634 0 634 0 556 0 c 0
 486 0 486 0 450.5 21.5 c 128
 415 43 415 43 407 73 c 1
 385 48 385 48 332 23.5 c 128
 279 -1 279 -1 219 -1 c 0
 120 -1 120 -1 64 45 c 0
 3 96 3 96 3 195 c 0
 3 272 3 272 54 321 c 0
 94 360 94 360 129 360 c 1
 129 627 l 1
 584 627 l 1
 584 578 l 1
 444 578 l 1
 444 361 l 1
 620 361 620 361 677 311 c 0
 728 265 728 265 727 169 c 0
338 361 m 1
 338 578 l 1
 177 578 l 1
 177 361 l 1
 338 361 l 1
630 164 m 0
 630 260 630 260 576 290 c 0
 539 311 539 311 444 311 c 1
 444 145 l 2
 444 95 444 95 464 70.5 c 128
 484 46 484 46 533 46 c 0
 573 46 573 46 601.5 75 c 128
 630 104 630 104 630 164 c 0
338 140 m 2
 338 310 l 1
 155 310 l 2
 120 310 120 310 91 284 c 0
 51 248 51 248 51 181 c 0
 51 113 51 113 90 79.5 c 128
 129 46 129 46 203 46 c 0
 246 46 246 46 292 75 c 128
 338 104 338 104 338 140 c 2
EndSplineSet
Ligature2: "pstspostbasesubstitution subtable" u0B95 u0BCD
LCarets2: 1 0
EndChar

StartChar: u0B99
Encoding: 113 2969 121
Width: 979
GlyphClass: 1
Flags: HW
AnchorPoint: "V" 417 628 basechar 0
AnchorPoint: "N" 417 -2 basechar 0
LayerCount: 2
Fore
SplineSet
840 0 m 1
 210 0 l 1
 210 42 l 1
 372 42 l 1
 426 64 426 64 453.5 115 c 128
 481 166 481 166 481 231 c 0
 481 287 481 287 452 317.5 c 128
 423 348 423 348 386 348 c 0
 360 348 360 348 341.5 334 c 128
 323 320 323 320 316 292 c 1
 316 180 l 1
 211 180 l 1
 211 579 l 1
 50 579 l 1
 50 -2 l 1
 1 -2 l 1
 1 628 l 1
 455 628 l 1
 455 579 l 1
 316 579 l 1
 316 372 l 1
 349 414 349 414 410 414 c 0
 475 414 475 414 524 367 c 0
 580 313 580 313 580 227 c 0
 580 155 580 155 553.5 109 c 128
 527 63 527 63 481 44 c 1
 741 44 l 1
 741 632 l 1
 839 632 l 1
 840 0 l 1
EndSplineSet
EndChar

StartChar: u0B99_u0BBF
Encoding: 179 -1 122
Width: 1113
GlyphClass: 2
Flags: HW
AnchorPoint: "V" 417 629 basechar 0
AnchorPoint: "N" 417 -2 basechar 0
LayerCount: 2
Fore
SplineSet
972 0 m 1
 930 0 l 1
 930 707 l 2
 930 803 930 803 891 849 c 128
 852 895 852 895 760 895 c 0
 693 895 693 895 647.5 855.5 c 128
 602 816 602 816 602 741 c 0
 602 674 602 674 634.5 641.5 c 128
 667 609 667 609 720 609 c 1
 720 631 l 1
 818 631 l 1
 818 1 l 1
 209 1 l 1
 209 43 l 1
 371 43 l 1
 425 65 425 65 452.5 116 c 128
 480 167 480 167 480 232 c 0
 480 288 480 288 451 318.5 c 128
 422 349 422 349 385 349 c 0
 359 349 359 349 340.5 335 c 128
 322 321 322 321 315 293 c 1
 315 181 l 1
 210 181 l 1
 210 580 l 1
 49 580 l 1
 49 -1 l 1
 0 -1 l 1
 0 629 l 1
 454 629 l 1
 454 580 l 1
 315 580 l 1
 315 373 l 1
 348 415 348 415 409 415 c 0
 474 415 474 415 523 368 c 0
 579 314 579 314 579 228 c 0
 579 156 579 156 552.5 110 c 128
 526 64 526 64 480 45 c 1
 719 45 l 1
 719 561 l 1
 645 561 645 561 598 608 c 0
 545 661 545 661 545 760 c 0
 545 872 545 872 602 933.5 c 128
 659 995 659 995 759 995 c 0
 871 995 871 995 922 924 c 0
 969 859 969 859 969 725 c 2
 972 0 l 1
EndSplineSet
Ligature2: "sub_ligature_pststaml_2 subtable" u0B99 u0BBF
LCarets2: 1 0
EndChar

StartChar: u0B99_u0BC0
Encoding: 180 -1 123
Width: 1113
GlyphClass: 2
Flags: HW
AnchorPoint: "V" 417 627 basechar 0
AnchorPoint: "N" 417 -2 basechar 0
LayerCount: 2
Fore
SplineSet
742 554 m 1
 686 554 686 554 644 604 c 0
 595 662 595 662 595 758 c 0
 595 893 595 893 674 957 c 0
 744 1013 744 1013 864 1013 c 0
 977 1013 977 1013 1041 977 c 0
 1125 930 1125 930 1125 823 c 0
 1125 759 1125 759 1080.5 716 c 128
 1036 673 1036 673 965 673 c 0
 896 673 896 673 857.5 712.5 c 128
 819 752 819 752 819 808 c 0
 819 843 819 843 835 878 c 128
 851 913 851 913 879 928 c 1
 828 932 l 1
 754 932 754 932 702.5 872 c 128
 651 812 651 812 651 742 c 0
 651 671 651 671 679 630 c 128
 707 589 707 589 743 589 c 1
 743 629 l 1
 848 629 l 1
 848 -1 l 1
 211 -1 l 1
 211 41 l 1
 373 41 l 1
 427 63 427 63 454.5 114 c 128
 482 165 482 165 482 230 c 0
 482 286 482 286 453 316.5 c 128
 424 347 424 347 387 347 c 0
 361 347 361 347 342.5 333 c 128
 324 319 324 319 317 291 c 1
 317 179 l 1
 212 179 l 1
 212 578 l 1
 51 578 l 1
 51 -3 l 1
 2 -3 l 1
 2 627 l 1
 456 627 l 1
 456 578 l 1
 317 578 l 1
 317 371 l 1
 350 413 350 413 411 413 c 0
 476 413 476 413 525 366 c 0
 581 312 581 312 581 226 c 0
 581 154 581 154 554.5 108 c 128
 528 62 528 62 482 43 c 1
 742 43 l 1
 742 554 l 1
1044 810 m 0
 1044 850 1044 850 1017 878.5 c 128
 990 907 990 907 947 907 c 1
 911 900 911 900 889 872 c 128
 867 844 867 844 867 808 c 256
 867 772 867 772 892.5 745 c 128
 918 718 918 718 953 718 c 0
 990 718 990 718 1017 745 c 128
 1044 772 1044 772 1044 810 c 0
EndSplineSet
Ligature2: "sub_ligature_pststaml_4 subtable" u0B99 u0BC0
LCarets2: 1 0
EndChar

StartChar: u0B99_u0BC1
Encoding: 181 -1 124
Width: 979
GlyphClass: 2
Flags: HW
AnchorPoint: "V" 417 628 basechar 0
AnchorPoint: "N" 417 -2 basechar 0
LayerCount: 2
Fore
SplineSet
840 -189 m 1
 742 -189 l 1
 742 0 l 1
 210 0 l 1
 210 42 l 1
 372 42 l 1
 426 64 426 64 453.5 115 c 128
 481 166 481 166 481 231 c 0
 481 287 481 287 452 317.5 c 128
 423 348 423 348 386 348 c 0
 360 348 360 348 341.5 334 c 128
 323 320 323 320 316 292 c 1
 316 180 l 1
 211 180 l 1
 211 579 l 1
 50 579 l 1
 50 -2 l 1
 1 -2 l 1
 1 628 l 1
 455 628 l 1
 455 579 l 1
 316 579 l 1
 316 372 l 1
 349 414 349 414 410 414 c 0
 475 414 475 414 524 367 c 0
 580 313 580 313 580 227 c 0
 580 155 580 155 553.5 109 c 128
 527 63 527 63 481 44 c 1
 741 44 l 1
 741 632 l 1
 839 632 l 1
 840 -189 l 1
EndSplineSet
Ligature2: "sub_ligature_pststaml_6 subtable" u0B99 u0BC1
LCarets2: 1 0
EndChar

StartChar: u0B99_u0BC2
Encoding: 182 -1 125
Width: 1295
GlyphClass: 2
Flags: HW
AnchorPoint: "V" 417 627 basechar 0
AnchorPoint: "N" 417 -2 basechar 0
LayerCount: 2
Fore
SplineSet
1050 142 m 0
 1050 226 1050 226 1011 272 c 0
 979 309 979 309 925 309 c 0
 864 309 864 309 842 266 c 1
 842 -155 l 1
 744 -155 l 1
 744 -1 l 1
 212 -1 l 1
 212 41 l 1
 374 41 l 1
 428 63 428 63 455.5 114 c 128
 483 165 483 165 483 230 c 0
 483 286 483 286 454 316.5 c 128
 425 347 425 347 388 347 c 0
 362 347 362 347 343.5 333 c 128
 325 319 325 319 318 291 c 1
 318 179 l 1
 213 179 l 1
 213 578 l 1
 52 578 l 1
 52 -3 l 1
 3 -3 l 1
 3 627 l 1
 457 627 l 1
 457 578 l 1
 318 578 l 1
 318 371 l 1
 351 413 351 413 412 413 c 0
 477 413 477 413 526 366 c 0
 582 312 582 312 582 226 c 0
 582 154 582 154 555.5 108 c 128
 529 62 529 62 483 43 c 1
 743 43 l 1
 743 631 l 1
 841 631 l 1
 841 330 l 1
 855 353 855 353 884 365.5 c 128
 913 378 913 378 946 378 c 0
 1048 378 1048 378 1105 301 c 0
 1154 236 1154 236 1154 147 c 0
 1154 -84 1154 -84 1007 -211 c 0
 848 -348 848 -348 533 -348 c 0
 402 -348 402 -348 329.5 -304 c 128
 257 -260 257 -260 257 -181 c 0
 257 -114 257 -114 294 -78.5 c 128
 331 -43 331 -43 402 -43 c 0
 472 -43 472 -43 510.5 -81.5 c 128
 549 -120 549 -120 549 -180 c 0
 549 -255 549 -255 482 -291 c 1
 507 -300 507 -300 536 -300 c 0
 802 -300 802 -300 936 -159 c 0
 1049 -40 1049 -40 1050 142 c 0
302 -177 m 0
 302 -217 302 -217 329 -245.5 c 128
 356 -274 356 -274 399 -274 c 1
 435 -267 435 -267 457 -239 c 128
 479 -211 479 -211 479 -175 c 0
 479 -138 479 -138 454 -111.5 c 128
 429 -85 429 -85 393 -85 c 0
 356 -85 356 -85 329 -112 c 128
 302 -139 302 -139 302 -177 c 0
EndSplineSet
Ligature2: "sub_ligature_pststaml_8 subtable" u0B99 u0BC2
LCarets2: 1 0
EndChar

StartChar: u0B99_u0BCD
Encoding: 183 -1 126
Width: 951
GlyphClass: 2
Flags: HW
AnchorPoint: "N" 417 -2 basechar 0
LayerCount: 2
Fore
SplineSet
840 0 m 1
 210 0 l 1
 210 42 l 1
 372 42 l 1
 426 64 426 64 453.5 115 c 128
 481 166 481 166 481 231 c 0
 481 287 481 287 452 317.5 c 128
 423 348 423 348 386 348 c 0
 360 348 360 348 341.5 334 c 128
 323 320 323 320 316 292 c 1
 316 180 l 1
 211 180 l 1
 211 579 l 1
 50 579 l 1
 50 -2 l 1
 1 -2 l 1
 1 628 l 1
 455 628 l 1
 455 579 l 1
 316 579 l 1
 316 372 l 1
 349 414 349 414 410 414 c 0
 475 414 475 414 524 367 c 0
 580 313 580 313 580 227 c 0
 580 155 580 155 553.5 109 c 128
 527 63 527 63 481 44 c 1
 741 44 l 1
 741 632 l 1
 839 632 l 1
 840 0 l 1
417 896 m 256
 449 896 449 896 472.5 872.5 c 128
 496 849 496 849 496 817 c 256
 496 785 496 785 472.5 761.5 c 128
 449 738 449 738 417 738 c 256
 385 738 385 738 361.5 761.5 c 128
 338 785 338 785 338 817 c 256
 338 849 338 849 361.5 872.5 c 128
 385 896 385 896 417 896 c 256
EndSplineSet
Ligature2: "pstspostbasesubstitution subtable" u0B99 u0BCD
LCarets2: 1 0
EndChar

StartChar: u0B9A
Encoding: 114 2970 127
Width: 728
GlyphClass: 1
Flags: HW
AnchorPoint: "V" 357 629 basechar 0
AnchorPoint: "N" 357 1 basechar 0
LayerCount: 2
Fore
SplineSet
582 315 m 1
 442 315 l 1
 442 149 l 2
 442 92 442 92 371 46.5 c 128
 300 1 300 1 218 1 c 0
 119 1 119 1 63 47 c 0
 2 98 2 98 2 197 c 0
 2 274 2 274 53 323 c 0
 93 362 93 362 128 362 c 1
 128 629 l 1
 583 629 l 1
 583 580 l 1
 443 580 l 1
 443 363 l 1
 583 363 l 1
 582 315 l 1
338 363 m 1
 338 580 l 1
 177 580 l 1
 177 363 l 1
 338 363 l 1
338 144 m 2
 338 314 l 1
 155 314 l 2
 120 314 120 314 91 288 c 0
 51 252 51 252 51 185 c 0
 51 117 51 117 90 83.5 c 128
 129 50 129 50 203 50 c 0
 246 50 246 50 292 79 c 128
 338 108 338 108 338 144 c 2
EndSplineSet
EndChar

StartChar: u0B9A_u0BBF
Encoding: 184 -1 128
Width: 889
GlyphClass: 1
Flags: HW
AnchorPoint: "V" 357 1008.99 basechar 0
AnchorPoint: "N" 357 1 basechar 0
LayerCount: 2
Fore
SplineSet
742 0 m 1
 700 0 l 1
 700 632 l 2
 700 752 700 752 608 830 c 128
 516 908 516 908 382 908 c 0
 212 908 212 908 127 822 c 0
 52 747 52 747 52 614 c 0
 52 547 52 547 71.5 487 c 128
 91 427 91 427 130 391 c 1
 130 630 l 1
 585 630 l 1
 585 581 l 1
 445 581 l 1
 445 364 l 1
 585 364 l 1
 585 315 l 1
 445 315 l 1
 445 149 l 2
 445 92 445 92 374 46.5 c 128
 303 1 303 1 221 1 c 0
 122 1 122 1 66 47 c 0
 5 98 5 98 5 197 c 0
 5 261 5 261 38 304 c 0
 64 337 64 337 103 353 c 1
 50 397 50 397 27 462 c 128
 4 527 4 527 4 603 c 0
 4 769 4 769 88 878 c 0
 188 1009 188 1009 382 1009 c 0
 555 1009 555 1009 649.5 909 c 128
 744 809 744 809 744 618 c 2
 742 0 l 1
340 359 m 1
 340 576 l 1
 179 576 l 1
 179 359 l 1
 340 359 l 1
340 140 m 2
 340 310 l 1
 157 310 l 2
 122 310 122 310 93 284 c 0
 53 248 53 248 53 181 c 0
 53 113 53 113 92 79.5 c 128
 131 46 131 46 205 46 c 0
 248 46 248 46 294 75 c 128
 340 104 340 104 340 140 c 2
EndSplineSet
Ligature2: "sub_ligature_pststaml_0-0 subtable" u0B9A u0BBF
LCarets2: 1 0
EndChar

StartChar: u0B95_u0BB7
Encoding: 185 -1 129
Width: 2093
GlyphClass: 2
Flags: HW
AnchorPoint: "V" 357 631 basechar 0
AnchorPoint: "N" 357 -1 basechar 0
AnchorPoint: "R" 3311 1243 exit 0
LayerCount: 2
Fore
SplineSet
1952 145 m 0
 1952 82 1952 82 1920 45 c 0
 1881 1 1881 1 1803 1 c 2
 1715 1 l 1
 1715 -300 l 1
 1617 -300 l 1
 1617 1 l 1
 1020 1 l 1
 1141 125 1141 125 1141 287 c 0
 1141 414 1141 414 1073.5 497 c 128
 1006 580 1006 580 894 580 c 0
 770 580 770 580 695 503 c 0
 634 441 634 441 634 364 c 1
 779 364 l 2
 858 364 858 364 901 334 c 0
 951 298 951 298 951 217 c 0
 951 124 951 124 908.5 63.5 c 128
 866 3 866 3 794 3 c 0
 682 3 682 3 632.5 84 c 128
 583 165 583 165 583 317 c 1
 445 317 l 1
 445 151 l 2
 445 94 445 94 374 48.5 c 128
 303 3 303 3 221 3 c 0
 122 3 122 3 66 49 c 0
 5 100 5 100 5 199 c 0
 5 276 5 276 56 325 c 0
 96 364 96 364 131 364 c 1
 131 631 l 1
 586 631 l 1
 586 582 l 1
 446 582 l 1
 446 365 l 1
 588 365 l 1
 607 490 607 490 685 560 c 128
 763 630 763 630 896 630 c 0
 1072 630 1072 630 1161 530 c 0
 1239 442 1239 442 1239 293 c 0
 1239 226 1239 226 1219.5 168 c 128
 1200 110 1200 110 1153 52 c 1
 1617 52 l 1
 1617 271 l 1
 1508 292 1508 292 1450 328 c 0
 1371 378 1371 378 1371 462 c 0
 1371 541 1371 541 1414 585.5 c 128
 1457 630 1457 630 1542 630 c 0
 1626 630 1626 630 1670.5 597.5 c 128
 1715 565 1715 565 1715 511 c 2
 1715 307 l 1
 1818 289 1818 289 1876 256 c 0
 1951 214 1951 214 1952 145 c 0
1616 323 m 1
 1616 495 l 2
 1616 531 1616 531 1586 554.5 c 128
 1556 578 1556 578 1509 578 c 256
 1462 578 1462 578 1437 547.5 c 128
 1412 517 1412 517 1412 464 c 0
 1412 409 1412 409 1480 370 c 0
 1534 340 1534 340 1616 323 c 1
1893 156 m 0
 1893 195 1893 195 1845.5 218 c 128
 1798 241 1798 241 1715 256 c 1
 1715 54 l 1
 1804 54 l 2
 1853 54 1853 54 1875 83 c 0
 1893 106 1893 106 1893 156 c 0
845 216 m 1
 845 318 845 318 732 318 c 2
 629 318 l 1
 629 283 629 283 633.5 235.5 c 128
 638 188 638 188 645 169 c 0
 659 132 659 132 684.5 110.5 c 128
 710 89 710 89 747 89 c 0
 793 89 793 89 818 127.5 c 128
 843 166 843 166 845 216 c 1
335 369 m 1
 335 586 l 1
 174 586 l 1
 174 369 l 1
 335 369 l 1
335 150 m 2
 335 320 l 1
 152 320 l 2
 117 320 117 320 88 294 c 0
 48 258 48 258 48 191 c 0
 48 123 48 123 87 89.5 c 128
 126 56 126 56 200 56 c 0
 243 56 243 56 289 85 c 128
 335 114 335 114 335 150 c 2
EndSplineSet
Ligature2: "akhnAkhandinTamillookup9 subtable" u0B95 u0BCD u0BB7
LCarets2: 2 0 0
EndChar

StartChar: u0B95_u0BB7_u0BBF
Encoding: 186 -1 130
Width: 2247
GlyphClass: 2
Flags: HW
AnchorPoint: "V" 357 637 basechar 0
AnchorPoint: "N" 357 -1 basechar 0
LayerCount: 2
Fore
SplineSet
1617 320 m 1
 1617 492 l 2
 1617 528 1617 528 1587 551.5 c 128
 1557 575 1557 575 1510 575 c 256
 1463 575 1463 575 1438 544.5 c 128
 1413 514 1413 514 1413 461 c 0
 1413 406 1413 406 1481 367 c 0
 1535 337 1535 337 1617 320 c 1
1894 153 m 0
 1894 192 1894 192 1846.5 215 c 128
 1799 238 1799 238 1716 253 c 1
 1716 51 l 1
 1805 51 l 2
 1854 51 1854 51 1876 80 c 0
 1894 103 1894 103 1894 153 c 0
846 213 m 1
 846 315 846 315 733 315 c 2
 630 315 l 1
 630 280 630 280 634.5 232.5 c 128
 639 185 639 185 646 166 c 0
 660 129 660 129 685.5 107.5 c 128
 711 86 711 86 748 86 c 0
 794 86 794 86 819 124.5 c 128
 844 163 844 163 846 213 c 1
336 366 m 1
 336 583 l 1
 175 583 l 1
 175 366 l 1
 336 366 l 1
336 147 m 2
 336 317 l 1
 153 317 l 2
 118 317 118 317 89 291 c 0
 49 255 49 255 49 188 c 0
 49 120 49 120 88 86.5 c 128
 127 53 127 53 201 53 c 0
 244 53 244 53 290 82 c 128
 336 111 336 111 336 147 c 2
1559 633 m 1
 1544 656 1544 656 1534.5 695.5 c 128
 1525 735 1525 735 1525 777 c 0
 1525 894 1525 894 1600.5 955.5 c 128
 1676 1017 1676 1017 1817 1017 c 0
 1987 1017 1987 1017 2055 922 c 0
 2104 855 2104 855 2104 731 c 2
 2104 2 l 1
 2062 2 l 1
 2062 730 l 2
 2062 816 2062 816 2012 863 c 0
 1951 921 1951 921 1816 921 c 0
 1699 921 1699 921 1639.5 871.5 c 128
 1580 822 1580 822 1580 720 c 0
 1580 694 1580 694 1587.5 669.5 c 128
 1595 645 1595 645 1613 623 c 1
 1663 611 1663 611 1688 582 c 128
 1713 553 1713 553 1713 513 c 2
 1713 309 l 1
 1816 291 1816 291 1874 258 c 0
 1949 216 1949 216 1949 151 c 0
 1949 88 1949 88 1917 51 c 0
 1878 7 1878 7 1800 7 c 2
 1712 7 l 1
 1712 -294 l 1
 1614 -294 l 1
 1614 7 l 1
 1017 7 l 1
 1138 131 1138 131 1138 293 c 0
 1138 420 1138 420 1070.5 503 c 128
 1003 586 1003 586 891 586 c 0
 767 586 767 586 692 509 c 0
 631 447 631 447 631 370 c 1
 776 370 l 2
 855 370 855 370 898 340 c 0
 948 304 948 304 948 223 c 0
 948 130 948 130 905.5 69.5 c 128
 863 9 863 9 791 9 c 0
 679 9 679 9 629.5 90 c 128
 580 171 580 171 580 323 c 1
 442 323 l 1
 442 157 l 2
 442 100 442 100 371 54.5 c 128
 300 9 300 9 218 9 c 0
 119 9 119 9 63 55 c 0
 2 106 2 106 2 205 c 0
 2 282 2 282 53 331 c 0
 93 370 93 370 128 370 c 1
 128 637 l 1
 583 637 l 1
 583 588 l 1
 443 588 l 1
 443 371 l 1
 585 371 l 1
 604 496 604 496 682 566 c 128
 760 636 760 636 893 636 c 0
 1069 636 1069 636 1158 536 c 0
 1236 448 1236 448 1236 299 c 0
 1236 232 1236 232 1216.5 174 c 128
 1197 116 1197 116 1150 58 c 1
 1614 58 l 1
 1614 277 l 1
 1505 298 1505 298 1447 334 c 0
 1368 384 1368 384 1368 468 c 0
 1368 547 1368 547 1411 591.5 c 128
 1454 636 1454 636 1539 636 c 1
 1559 633 l 1
EndSplineSet
Ligature2: "sub_ligature_pststaml_2 subtable" u0B95_u0BB7 u0BBF
Ligature2: "akhnligs subtable" u0B95_u0BB7 u0BBF
LCarets2: 1 0
EndChar

StartChar: u0B95_u0BB7_u0BC0
Encoding: 187 -1 131
Width: 2093
GlyphClass: 2
Flags: HW
AnchorPoint: "V" 357 631 basechar 0
AnchorPoint: "N" 357 -1 basechar 0
LayerCount: 2
Fore
SplineSet
1952 145 m 0
 1952 82 1952 82 1920 45 c 0
 1881 1 1881 1 1803 1 c 2
 1715 1 l 1
 1715 -300 l 1
 1617 -300 l 1
 1617 1 l 1
 1020 1 l 1
 1141 125 1141 125 1141 287 c 0
 1141 414 1141 414 1073.5 497 c 128
 1006 580 1006 580 894 580 c 0
 770 580 770 580 695 503 c 0
 634 441 634 441 634 364 c 1
 779 364 l 2
 858 364 858 364 901 334 c 0
 951 298 951 298 951 217 c 0
 951 124 951 124 908.5 63.5 c 128
 866 3 866 3 794 3 c 0
 682 3 682 3 632.5 84 c 128
 583 165 583 165 583 317 c 1
 445 317 l 1
 445 151 l 2
 445 94 445 94 374 48.5 c 128
 303 3 303 3 221 3 c 0
 122 3 122 3 66 49 c 0
 5 100 5 100 5 199 c 0
 5 276 5 276 56 325 c 0
 96 364 96 364 131 364 c 1
 131 631 l 1
 586 631 l 1
 586 582 l 1
 446 582 l 1
 446 365 l 1
 588 365 l 1
 607 490 607 490 685 560 c 128
 763 630 763 630 896 630 c 0
 1072 630 1072 630 1161 530 c 0
 1239 442 1239 442 1239 293 c 0
 1239 226 1239 226 1219.5 168 c 128
 1200 110 1200 110 1153 52 c 1
 1617 52 l 1
 1617 271 l 1
 1508 292 1508 292 1450 328 c 0
 1371 378 1371 378 1371 462 c 0
 1371 538 1371 538 1410.5 583.5 c 128
 1450 629 1450 629 1521 629 c 1
 1489 657 1489 657 1466 696 c 0
 1437 745 1437 745 1437 794 c 0
 1437 925 1437 925 1523 993 c 0
 1594 1049 1594 1049 1692 1049 c 0
 1795 1049 1795 1049 1862 1013 c 0
 1953 964 1953 964 1953 858 c 0
 1953 794 1953 794 1908.5 751 c 128
 1864 708 1864 708 1793 708 c 0
 1723 708 1723 708 1684.5 747.5 c 128
 1646 787 1646 787 1646 843 c 0
 1646 878 1646 878 1662 913 c 128
 1678 948 1678 948 1706 963 c 1
 1655 967 l 1
 1583 967 1583 967 1537.5 908.5 c 128
 1492 850 1492 850 1492 778 c 0
 1492 735 1492 735 1511.5 696.5 c 128
 1531 658 1531 658 1561 632 c 1
 1632 632 1632 632 1674 597 c 128
 1716 562 1716 562 1716 512 c 2
 1716 308 l 1
 1819 290 1819 290 1877 257 c 0
 1952 215 1952 215 1952 145 c 0
1870 846 m 0
 1870 886 1870 886 1843 914.5 c 128
 1816 943 1816 943 1773 943 c 1
 1737 936 1737 936 1715 908 c 128
 1693 880 1693 880 1693 844 c 256
 1693 808 1693 808 1718.5 781 c 128
 1744 754 1744 754 1779 754 c 0
 1816 754 1816 754 1843 781 c 128
 1870 808 1870 808 1870 846 c 0
1617 324 m 1
 1617 496 l 2
 1617 532 1617 532 1587 555.5 c 128
 1557 579 1557 579 1510 579 c 256
 1463 579 1463 579 1438 548.5 c 128
 1413 518 1413 518 1413 465 c 0
 1413 410 1413 410 1481 371 c 0
 1535 341 1535 341 1617 324 c 1
1894 157 m 0
 1894 196 1894 196 1846.5 219 c 128
 1799 242 1799 242 1716 257 c 1
 1716 55 l 1
 1805 55 l 2
 1854 55 1854 55 1876 84 c 0
 1894 107 1894 107 1894 157 c 0
846 217 m 1
 846 319 846 319 733 319 c 2
 630 319 l 1
 630 284 630 284 634.5 236.5 c 128
 639 189 639 189 646 170 c 0
 660 133 660 133 685.5 111.5 c 128
 711 90 711 90 748 90 c 0
 794 90 794 90 819 128.5 c 128
 844 167 844 167 846 217 c 1
336 370 m 1
 336 587 l 1
 175 587 l 1
 175 370 l 1
 336 370 l 1
336 151 m 2
 336 321 l 1
 153 321 l 2
 118 321 118 321 89 295 c 0
 49 259 49 259 49 192 c 0
 49 124 49 124 88 90.5 c 128
 127 57 127 57 201 57 c 0
 244 57 244 57 290 86 c 128
 336 115 336 115 336 151 c 2
EndSplineSet
Ligature2: "sub_ligature_pststaml_4 subtable" u0B9A u0BB7 u0BC0
Ligature2: "akhnligs subtable" u0B95_u0BB7 u0BC0
LCarets2: 2 0 0
EndChar

StartChar: u0B95_u0BB7_u0BCD
Encoding: 188 -1 132
Width: 2093
GlyphClass: 2
Flags: HW
AnchorPoint: "N" 357 -1 basechar 0
LayerCount: 2
Fore
SplineSet
1952 145 m 0
 1952 82 1952 82 1920 45 c 0
 1881 1 1881 1 1803 1 c 2
 1715 1 l 1
 1715 -300 l 1
 1617 -300 l 1
 1617 1 l 1
 1020 1 l 1
 1141 125 1141 125 1141 287 c 0
 1141 414 1141 414 1073.5 497 c 128
 1006 580 1006 580 894 580 c 0
 770 580 770 580 695 503 c 0
 634 441 634 441 634 364 c 1
 779 364 l 2
 858 364 858 364 901 334 c 0
 951 298 951 298 951 217 c 0
 951 124 951 124 908.5 63.5 c 128
 866 3 866 3 794 3 c 0
 682 3 682 3 632.5 84 c 128
 583 165 583 165 583 317 c 1
 445 317 l 1
 445 151 l 2
 445 94 445 94 374 48.5 c 128
 303 3 303 3 221 3 c 0
 122 3 122 3 66 49 c 0
 5 100 5 100 5 199 c 0
 5 276 5 276 56 325 c 0
 96 364 96 364 131 364 c 1
 131 631 l 1
 586 631 l 1
 586 582 l 1
 446 582 l 1
 446 365 l 1
 588 365 l 1
 607 490 607 490 685 560 c 128
 763 630 763 630 896 630 c 0
 1072 630 1072 630 1161 530 c 0
 1239 442 1239 442 1239 293 c 0
 1239 226 1239 226 1219.5 168 c 128
 1200 110 1200 110 1153 52 c 1
 1617 52 l 1
 1617 271 l 1
 1508 292 1508 292 1450 328 c 0
 1371 378 1371 378 1371 462 c 0
 1371 541 1371 541 1414 585.5 c 128
 1457 630 1457 630 1542 630 c 0
 1626 630 1626 630 1670.5 597.5 c 128
 1715 565 1715 565 1715 511 c 2
 1715 307 l 1
 1818 289 1818 289 1876 256 c 0
 1951 214 1951 214 1952 145 c 0
1616 323 m 1
 1616 495 l 2
 1616 531 1616 531 1586 554.5 c 128
 1556 578 1556 578 1509 578 c 256
 1462 578 1462 578 1437 547.5 c 128
 1412 517 1412 517 1412 464 c 0
 1412 409 1412 409 1480 370 c 0
 1534 340 1534 340 1616 323 c 1
1893 156 m 0
 1893 195 1893 195 1845.5 218 c 128
 1798 241 1798 241 1715 256 c 1
 1715 54 l 1
 1804 54 l 2
 1853 54 1853 54 1875 83 c 0
 1893 106 1893 106 1893 156 c 0
845 216 m 1
 845 318 845 318 732 318 c 2
 629 318 l 1
 629 283 629 283 633.5 235.5 c 128
 638 188 638 188 645 169 c 0
 659 132 659 132 684.5 110.5 c 128
 710 89 710 89 747 89 c 0
 793 89 793 89 818 127.5 c 128
 843 166 843 166 845 216 c 1
335 369 m 1
 335 586 l 1
 174 586 l 1
 174 369 l 1
 335 369 l 1
335 150 m 2
 335 320 l 1
 152 320 l 2
 117 320 117 320 88 294 c 0
 48 258 48 258 48 191 c 0
 48 123 48 123 87 89.5 c 128
 126 56 126 56 200 56 c 0
 243 56 243 56 289 85 c 128
 335 114 335 114 335 150 c 2
1226 900 m 256
 1258 900 1258 900 1281.5 876.5 c 128
 1305 853 1305 853 1305 821 c 0
 1305 791 1305 791 1282 772.5 c 128
 1259 754 1259 754 1226 754 c 0
 1196 754 1196 754 1171.5 772.5 c 128
 1147 791 1147 791 1147 821 c 0
 1147 853 1147 853 1170.5 876.5 c 128
 1194 900 1194 900 1226 900 c 256
EndSplineSet
Ligature2: "pstspostbasesubstitution subtable" u0B9A u0BB7 u0BCD
Ligature2: "pstspostbasesubstitution subtable" u0B95_u0BB7 u0BCD
Ligature2: "akhnligs subtable" u0B95_u0BB7 u0BCD
LCarets2: 2 0 0
EndChar

StartChar: u0B9A_u0BC0
Encoding: 189 -1 133
Width: 721
GlyphClass: 1
Flags: HW
AnchorPoint: "V" 357 1046.26 basechar 0
AnchorPoint: "N" 357 1 basechar 0
LayerCount: 2
Fore
SplineSet
628 842 m 1
 628 882 628 882 601 910.5 c 128
 574 939 574 939 531 939 c 1
 495 932 495 932 473 904 c 128
 451 876 451 876 451 840 c 256
 451 804 451 804 476.5 777 c 128
 502 750 502 750 536 750 c 0
 573 750 573 750 600 777 c 128
 627 804 627 804 628 842 c 1
336 363 m 1
 336 580 l 1
 175 580 l 1
 175 363 l 1
 336 363 l 1
336 144 m 2
 336 314 l 1
 153 314 l 2
 118 314 118 314 89 288 c 0
 49 252 49 252 49 185 c 0
 49 117 49 117 88 83.5 c 128
 127 50 127 50 201 50 c 0
 244 50 244 50 290 79 c 128
 336 108 336 108 336 144 c 2
98 355 m 1
 45 399 45 399 22 464 c 128
 -1 529 -1 529 -1 605 c 0
 -1 801 -1 801 124.5 924 c 128
 250 1047 250 1047 447 1047 c 0
 550 1047 550 1047 617 1011 c 0
 708 962 708 962 708 856 c 0
 708 792 708 792 663.5 749 c 128
 619 706 619 706 548 706 c 0
 479 706 479 706 440.5 745.5 c 128
 402 785 402 785 402 841 c 0
 402 876 402 876 418 911 c 128
 434 946 434 946 462 961 c 1
 411 965 l 1
 253 965 253 965 147 851 c 0
 49 746 49 746 49 613 c 0
 49 546 49 546 68.5 486 c 128
 88 426 88 426 127 390 c 1
 127 629 l 1
 580 629 l 1
 580 580 l 1
 442 580 l 1
 442 363 l 1
 580 363 l 1
 580 314 l 1
 442 314 l 1
 442 148 l 2
 442 91 442 91 371 45.5 c 128
 300 0 300 0 218 0 c 0
 119 0 119 0 63 46 c 0
 2 97 2 97 2 196 c 0
 2 260 2 260 35 303 c 0
 61 336 61 336 98 355 c 1
EndSplineSet
Ligature2: "sub_ligature_pststaml_0-0 subtable" u0B9A u0BC0
LCarets2: 1 0
EndChar

StartChar: u0B9A_u0BC1
Encoding: 190 -1 134
Width: 951
GlyphClass: 2
Flags: HW
AnchorPoint: "V" 357 631 basechar 0
AnchorPoint: "N" 357 1 basechar 0
LayerCount: 2
Fore
SplineSet
337 364 m 1
 337 581 l 1
 176 581 l 1
 176 364 l 1
 337 364 l 1
337 145 m 2
 337 315 l 1
 154 315 l 2
 119 315 119 315 90 289 c 0
 50 253 50 253 50 186 c 0
 50 118 50 118 89 84.5 c 128
 128 51 128 51 202 51 c 0
 245 51 245 51 291 80 c 128
 337 109 337 109 337 145 c 2
685 2 m 1
 580 2 l 1
 580 317 l 1
 442 317 l 1
 442 151 l 2
 442 94 442 94 371 48.5 c 128
 300 3 300 3 218 3 c 0
 119 3 119 3 63 49 c 0
 2 100 2 100 2 199 c 0
 2 276 2 276 53 325 c 0
 93 364 93 364 128 364 c 1
 128 631 l 1
 583 631 l 1
 583 582 l 1
 443 582 l 1
 443 365 l 1
 812 365 l 1
 812 316 l 1
 686 316 l 1
 685 2 l 1
EndSplineSet
Ligature2: "sub_ligature_pststaml_6 subtable" u0B9A u0BC1
LCarets2: 1 0
EndChar

StartChar: u0B9A_u0BC2
Encoding: 191 -1 135
Width: 1085
GlyphClass: 2
Flags: HW
AnchorPoint: "V" 357 631 basechar 0
AnchorPoint: "N" 357 1 basechar 0
LayerCount: 2
Fore
SplineSet
337 364 m 1
 337 581 l 1
 176 581 l 1
 176 364 l 1
 337 364 l 1
337 145 m 2
 337 315 l 1
 154 315 l 2
 119 315 119 315 90 289 c 0
 50 253 50 253 50 186 c 0
 50 118 50 118 89 84.5 c 128
 128 51 128 51 202 51 c 0
 245 51 245 51 291 80 c 128
 337 109 337 109 337 145 c 2
685 2 m 1
 580 2 l 1
 580 317 l 1
 442 317 l 1
 442 151 l 2
 442 94 442 94 371 48.5 c 128
 300 3 300 3 218 3 c 0
 119 3 119 3 63 49 c 0
 2 100 2 100 2 199 c 0
 2 276 2 276 53 325 c 0
 93 364 93 364 128 364 c 1
 128 631 l 1
 583 631 l 1
 583 582 l 1
 443 582 l 1
 443 365 l 1
 812 365 l 1
 812 316 l 1
 686 316 l 1
 686 221 l 1
 709 254 709 254 767 254 c 0
 838 254 838 254 890 192.5 c 128
 942 131 942 131 942 24 c 0
 942 -142 942 -142 813.5 -244.5 c 128
 685 -347 685 -347 488 -347 c 0
 307 -347 307 -347 208.5 -300.5 c 128
 110 -254 110 -254 110 -168 c 0
 110 -110 110 -110 161.5 -79.5 c 128
 213 -49 213 -49 288 -49 c 0
 342 -49 342 -49 392 -66.5 c 128
 442 -84 442 -84 475 -114 c 1
 461 -139 l 1
 428 -114 428 -114 378.5 -99.5 c 128
 329 -85 329 -85 280 -85 c 0
 220 -85 220 -85 187.5 -106 c 128
 155 -127 155 -127 155 -166 c 0
 155 -236 155 -236 248 -270 c 0
 326 -299 326 -299 445 -299 c 0
 618 -299 618 -299 730 -201 c 0
 836 -109 836 -109 836 18 c 0
 836 102 836 102 800 149 c 0
 770 189 770 189 727 189 c 0
 701 189 701 189 685 173 c 1
 685 2 l 1
EndSplineSet
Ligature2: "sub_ligature_pststaml_8 subtable" u0B9A u0BC2
LCarets2: 1 0
EndChar

StartChar: u0B9A_u0BCD
Encoding: 192 -1 136
Width: 728
GlyphClass: 2
Flags: HW
AnchorPoint: "N" 357 1 basechar 0
LayerCount: 2
Fore
SplineSet
582 315 m 1
 442 315 l 1
 442 149 l 2
 442 92 442 92 371 46.5 c 128
 300 1 300 1 218 1 c 0
 119 1 119 1 63 47 c 0
 2 98 2 98 2 197 c 0
 2 274 2 274 53 323 c 0
 93 362 93 362 128 362 c 1
 128 629 l 1
 583 629 l 1
 583 580 l 1
 443 580 l 1
 443 363 l 1
 583 363 l 1
 582 315 l 1
338 363 m 1
 338 580 l 1
 177 580 l 1
 177 363 l 1
 338 363 l 1
338 144 m 2
 338 314 l 1
 155 314 l 2
 120 314 120 314 91 288 c 0
 51 252 51 252 51 185 c 0
 51 117 51 117 90 83.5 c 128
 129 50 129 50 203 50 c 0
 246 50 246 50 292 79 c 128
 338 108 338 108 338 144 c 2
357 894 m 256
 389 894 389 894 412.5 870.5 c 128
 436 847 436 847 436 815 c 256
 436 783 436 783 412.5 759.5 c 128
 389 736 389 736 357 736 c 256
 325 736 325 736 301.5 759.5 c 128
 278 783 278 783 278 815 c 256
 278 847 278 847 301.5 870.5 c 128
 325 894 325 894 357 894 c 256
EndSplineSet
Ligature2: "pstspostbasesubstitution subtable" u0B9A u0BCD
LCarets2: 1 0
EndChar

StartChar: u0B9C
Encoding: 115 2972 137
Width: 909
GlyphClass: 1
Flags: HW
AnchorPoint: "V" 416 577.246 basechar 0
AnchorPoint: "N" 416 -230 basechar 0
AnchorPoint: "R" 1265 1245 exit 0
LayerCount: 2
Fore
SplineSet
770 408 m 0
 770 338 770 338 747 275 c 0
 718 197 718 197 662 168 c 0
 590 131 590 131 430 123.5 c 128
 270 116 270 116 217 97 c 1
 182 83 182 83 161 60 c 0
 129 23 129 23 129 -34 c 0
 129 -102 129 -102 151 -139.5 c 128
 173 -177 173 -177 229 -177 c 0
 300 -177 300 -177 349 -133 c 0
 360 -124 360 -124 425 -42.5 c 128
 490 39 490 39 508 48 c 1
 547 70 547 70 614 70 c 0
 686 70 686 70 727 34.5 c 128
 768 -1 768 -1 768 -66 c 0
 768 -133 768 -133 727 -177 c 128
 686 -221 686 -221 602 -221 c 0
 579 -221 579 -221 550.5 -215 c 128
 522 -209 522 -209 506 -201 c 1
 518 -165 l 1
 533 -170 533 -170 550.5 -171 c 128
 568 -172 568 -172 590 -172 c 0
 630 -172 630 -172 650 -145 c 128
 670 -118 670 -118 670 -78 c 0
 670 -25 670 -25 651.5 -5 c 128
 633 15 633 15 579 15 c 0
 550 15 550 15 518 -18 c 0
 507 -29 507 -29 465 -83 c 0
 411 -152 411 -152 379 -180 c 1
 319 -230 319 -230 247 -230 c 0
 133 -230 133 -230 83 -181 c 128
 33 -132 33 -132 33 -35 c 0
 33 36 33 36 67 78 c 1
 93 108 93 108 146 129 c 0
 223 159 223 159 334 168 c 1
 559 189 559 189 598.5 208.5 c 128
 638 228 638 228 659 309 c 0
 673 363 673 363 673 419 c 0
 673 490 673 490 642.5 534.5 c 128
 612 579 612 579 548 579 c 0
 506 579 506 579 483 539 c 0
 465 509 465 509 465 476 c 2
 465 300 l 1
 368 300 l 1
 368 469 l 2
 368 506 368 506 340 536 c 0
 301 579 301 579 233 579 c 0
 163 579 163 579 109.5 539.5 c 128
 56 500 56 500 56 451 c 1
 90 509 90 509 159 509 c 0
 219 509 219 509 255 466.5 c 128
 291 424 291 424 291 361 c 0
 291 293 291 293 252 255.5 c 128
 213 218 213 218 146 218 c 0
 70 218 70 218 34 282 c 0
 5 333 5 333 5 424 c 0
 5 508 5 508 67 565 c 0
 135 628 135 628 251 628 c 0
 332 628 332 628 379 603 c 0
 415 584 415 584 429 549 c 1
 441 581 441 581 466 600 c 0
 502 628 502 628 560 628 c 0
 662 628 662 628 715.5 570 c 128
 769 512 769 512 770 408 c 0
197 386 m 1
 192 409 192 409 171 425.5 c 128
 150 442 150 442 125 442 c 0
 78 442 78 442 50 392 c 1
 50 343 50 343 72 310.5 c 128
 94 278 94 278 131 278 c 0
 164 278 164 278 181.5 303.5 c 128
 199 329 199 329 199 362 c 0
 199 370 199 370 197 386 c 1
EndSplineSet
EndChar

StartChar: u0B9C_u0BBF
Encoding: 193 -1 138
Width: 1092
GlyphClass: 2
Flags: HW
AnchorPoint: "V" 416 570.189 basechar 0
AnchorPoint: "N" 416 -230 basechar 0
LayerCount: 2
Fore
SplineSet
197 387 m 1
 192 410 192 410 171 426.5 c 128
 150 443 150 443 125 443 c 0
 78 443 78 443 50 393 c 1
 50 344 50 344 72 311.5 c 128
 94 279 94 279 131 279 c 0
 164 279 164 279 181.5 304.5 c 128
 199 330 199 330 199 363 c 0
 199 371 199 371 197 387 c 1
530 625 m 1
 515 650 515 650 505.5 688.5 c 128
 496 727 496 727 496 771 c 0
 496 877 496 877 550 939 c 0
 611 1010 611 1010 731 1010 c 0
 861 1010 861 1010 912 911 c 0
 948 842 948 842 948 725 c 2
 948 -4 l 1
 906 -4 l 1
 906 724 l 2
 906 805 906 805 869 855 c 0
 823 916 823 916 730 916 c 0
 550 916 550 916 550 715 c 0
 550 689 550 689 559 665.5 c 128
 568 642 568 642 579 627 c 1
 671 627 671 627 719 567.5 c 128
 767 508 767 508 767 406 c 0
 767 336 767 336 744 273 c 0
 715 195 715 195 659 166 c 0
 587 129 587 129 427 121.5 c 128
 267 114 267 114 214 95 c 1
 179 81 179 81 158 58 c 0
 126 21 126 21 126 -36 c 0
 126 -104 126 -104 148 -141.5 c 128
 170 -179 170 -179 226 -179 c 0
 297 -179 297 -179 346 -135 c 0
 357 -126 357 -126 422 -44.5 c 128
 487 37 487 37 505 46 c 1
 544 68 544 68 611 68 c 0
 683 68 683 68 724 32.5 c 128
 765 -3 765 -3 765 -68 c 0
 765 -135 765 -135 724 -179 c 128
 683 -223 683 -223 599 -223 c 0
 576 -223 576 -223 547.5 -217 c 128
 519 -211 519 -211 503 -203 c 1
 515 -167 l 1
 530 -172 530 -172 547.5 -173 c 128
 565 -174 565 -174 587 -174 c 0
 627 -174 627 -174 647 -147 c 128
 667 -120 667 -120 667 -80 c 0
 667 -27 667 -27 648.5 -7 c 128
 630 13 630 13 576 13 c 0
 547 13 547 13 515 -20 c 0
 504 -31 504 -31 462 -85 c 0
 408 -154 408 -154 376 -182 c 1
 316 -232 316 -232 244 -232 c 0
 130 -232 130 -232 80 -183 c 128
 30 -134 30 -134 30 -37 c 0
 30 34 30 34 64 76 c 1
 90 106 90 106 143 127 c 0
 220 157 220 157 331 166 c 1
 556 187 556 187 595.5 206.5 c 128
 635 226 635 226 656 307 c 0
 670 361 670 361 670 417 c 0
 670 488 670 488 639.5 532.5 c 128
 609 577 609 577 545 577 c 0
 503 577 503 577 480 537 c 0
 462 507 462 507 462 474 c 2
 462 298 l 1
 365 298 l 1
 365 467 l 2
 365 504 365 504 337 534 c 0
 298 577 298 577 230 577 c 0
 160 577 160 577 106.5 537.5 c 128
 53 498 53 498 53 449 c 1
 87 507 87 507 156 507 c 0
 216 507 216 507 252 464.5 c 128
 288 422 288 422 288 359 c 0
 288 291 288 291 249 253.5 c 128
 210 216 210 216 143 216 c 0
 67 216 67 216 31 280 c 0
 2 331 2 331 2 422 c 0
 2 506 2 506 64 563 c 0
 132 626 132 626 248 626 c 0
 329 626 329 626 376 601 c 0
 412 582 412 582 426 547 c 1
 437 575 437 575 456 593 c 0
 484 618 484 618 530 625 c 1
EndSplineSet
Ligature2: "sub_ligature_pststaml_2 subtable" u0B9C u0BBF
LCarets2: 1 0
EndChar

StartChar: u0B9C_u0BC0
Encoding: 194 -1 139
Width: 958
GlyphClass: 2
Flags: HW
AnchorPoint: "V" 416 572.011 basechar 0
AnchorPoint: "N" 416 -230 basechar 0
LayerCount: 2
Fore
SplineSet
197 387 m 1
 192 410 192 410 171 426.5 c 128
 150 443 150 443 125 443 c 0
 78 443 78 443 50 393 c 1
 50 344 50 344 72 311.5 c 128
 94 279 94 279 131 279 c 0
 164 279 164 279 181.5 304.5 c 128
 199 330 199 330 199 363 c 0
 199 371 199 371 197 387 c 1
768 406 m 0
 768 336 768 336 745 273 c 0
 716 195 716 195 660 166 c 0
 588 129 588 129 428 121.5 c 128
 268 114 268 114 215 95 c 1
 180 81 180 81 159 58 c 0
 127 21 127 21 127 -36 c 0
 127 -104 127 -104 149 -141.5 c 128
 171 -179 171 -179 227 -179 c 0
 298 -179 298 -179 347 -135 c 0
 358 -126 358 -126 423 -44.5 c 128
 488 37 488 37 506 46 c 1
 545 68 545 68 612 68 c 0
 684 68 684 68 725 32.5 c 128
 766 -3 766 -3 766 -68 c 0
 766 -135 766 -135 725 -179 c 128
 684 -223 684 -223 600 -223 c 0
 577 -223 577 -223 548.5 -217 c 128
 520 -211 520 -211 504 -203 c 1
 516 -167 l 1
 531 -172 531 -172 548.5 -173 c 128
 566 -174 566 -174 588 -174 c 0
 628 -174 628 -174 648 -147 c 128
 668 -120 668 -120 668 -80 c 0
 668 -27 668 -27 649.5 -7 c 128
 631 13 631 13 577 13 c 0
 548 13 548 13 516 -20 c 0
 505 -31 505 -31 463 -85 c 0
 409 -154 409 -154 377 -182 c 1
 317 -232 317 -232 245 -232 c 0
 131 -232 131 -232 81 -183 c 128
 31 -134 31 -134 31 -37 c 0
 31 34 31 34 65 76 c 1
 91 106 91 106 144 127 c 0
 221 157 221 157 332 166 c 1
 557 187 557 187 596.5 206.5 c 128
 636 226 636 226 657 307 c 0
 671 361 671 361 671 417 c 0
 671 488 671 488 640.5 532.5 c 128
 610 577 610 577 546 577 c 0
 504 577 504 577 481 537 c 0
 463 507 463 507 463 474 c 2
 463 298 l 1
 366 298 l 1
 366 467 l 2
 366 504 366 504 338 534 c 0
 299 577 299 577 231 577 c 0
 161 577 161 577 107.5 537.5 c 128
 54 498 54 498 54 449 c 1
 88 507 88 507 157 507 c 0
 217 507 217 507 253 464.5 c 128
 289 422 289 422 289 359 c 0
 289 291 289 291 250 253.5 c 128
 211 216 211 216 144 216 c 0
 68 216 68 216 32 280 c 0
 3 331 3 331 3 422 c 0
 3 506 3 506 65 563 c 0
 133 626 133 626 249 626 c 0
 330 626 330 626 377 601 c 0
 413 582 413 582 427 547 c 1
 438 577 438 577 460 596 c 1
 490 624 490 624 539 624 c 1
 507 652 507 652 484 691 c 0
 455 740 455 740 455 789 c 0
 455 920 455 920 541 988 c 0
 612 1044 612 1044 710 1044 c 0
 813 1044 813 1044 880 1008 c 0
 970 959 970 959 970 853 c 0
 970 789 970 789 925.5 746 c 128
 881 703 881 703 810 703 c 0
 740 703 740 703 701.5 742.5 c 128
 663 782 663 782 663 838 c 0
 663 873 663 873 679 908 c 128
 695 943 695 943 723 958 c 1
 672 962 l 1
 600 962 600 962 555 903.5 c 128
 510 845 510 845 510 773 c 0
 510 730 510 730 529.5 691.5 c 128
 549 653 549 653 579 627 c 1
 670 627 670 627 719.5 567.5 c 128
 769 508 769 508 768 406 c 0
889 839 m 0
 889 879 889 879 862 907.5 c 128
 835 936 835 936 792 936 c 1
 756 929 756 929 734 901 c 128
 712 873 712 873 712 837 c 256
 712 801 712 801 737.5 774 c 128
 763 747 763 747 798 747 c 0
 835 747 835 747 862 774 c 128
 889 801 889 801 889 839 c 0
EndSplineSet
Ligature2: "sub_ligature_pststaml_4 subtable" u0B9C u0BC0
LCarets2: 1 0
EndChar

StartChar: u0B9C_u0BCD
Encoding: 195 -1 140
Width: 909
GlyphClass: 2
Flags: HW
AnchorPoint: "N" 416 -230 basechar 0
LayerCount: 2
Fore
SplineSet
770 408 m 0
 770 338 770 338 747 275 c 0
 718 197 718 197 662 168 c 0
 590 131 590 131 430 123.5 c 128
 270 116 270 116 217 97 c 1
 182 83 182 83 161 60 c 0
 129 23 129 23 129 -34 c 0
 129 -102 129 -102 151 -139.5 c 128
 173 -177 173 -177 229 -177 c 0
 300 -177 300 -177 349 -133 c 0
 360 -124 360 -124 425 -42.5 c 128
 490 39 490 39 508 48 c 1
 547 70 547 70 614 70 c 0
 686 70 686 70 727 34.5 c 128
 768 -1 768 -1 768 -66 c 0
 768 -133 768 -133 727 -177 c 128
 686 -221 686 -221 602 -221 c 0
 579 -221 579 -221 550.5 -215 c 128
 522 -209 522 -209 506 -201 c 1
 518 -165 l 1
 533 -170 533 -170 550.5 -171 c 128
 568 -172 568 -172 590 -172 c 0
 630 -172 630 -172 650 -145 c 128
 670 -118 670 -118 670 -78 c 0
 670 -25 670 -25 651.5 -5 c 128
 633 15 633 15 579 15 c 0
 550 15 550 15 518 -18 c 0
 507 -29 507 -29 465 -83 c 0
 411 -152 411 -152 379 -180 c 1
 319 -230 319 -230 247 -230 c 0
 133 -230 133 -230 83 -181 c 128
 33 -132 33 -132 33 -35 c 0
 33 36 33 36 67 78 c 1
 93 108 93 108 146 129 c 0
 223 159 223 159 334 168 c 1
 559 189 559 189 598.5 208.5 c 128
 638 228 638 228 659 309 c 0
 673 363 673 363 673 419 c 0
 673 490 673 490 642.5 534.5 c 128
 612 579 612 579 548 579 c 0
 506 579 506 579 483 539 c 0
 465 509 465 509 465 476 c 2
 465 300 l 1
 368 300 l 1
 368 469 l 2
 368 506 368 506 340 536 c 0
 301 579 301 579 233 579 c 0
 163 579 163 579 109.5 539.5 c 128
 56 500 56 500 56 451 c 1
 90 509 90 509 159 509 c 0
 219 509 219 509 255 466.5 c 128
 291 424 291 424 291 361 c 0
 291 293 291 293 252 255.5 c 128
 213 218 213 218 146 218 c 0
 70 218 70 218 34 282 c 0
 5 333 5 333 5 424 c 0
 5 508 5 508 67 565 c 0
 135 628 135 628 251 628 c 0
 332 628 332 628 379 603 c 0
 415 584 415 584 429 549 c 1
 441 581 441 581 466 600 c 0
 502 628 502 628 560 628 c 0
 662 628 662 628 715.5 570 c 128
 769 512 769 512 770 408 c 0
197 386 m 1
 192 409 192 409 171 425.5 c 128
 150 442 150 442 125 442 c 0
 78 442 78 442 50 392 c 1
 50 343 50 343 72 310.5 c 128
 94 278 94 278 131 278 c 0
 164 278 164 278 181.5 303.5 c 128
 199 329 199 329 199 362 c 0
 199 370 199 370 197 386 c 1
416 890 m 256
 448 890 448 890 471.5 866.5 c 128
 495 843 495 843 495 811 c 256
 495 779 495 779 471.5 755.5 c 128
 448 732 448 732 416 732 c 256
 384 732 384 732 360.5 755.5 c 128
 337 779 337 779 337 811 c 256
 337 843 337 843 360.5 866.5 c 128
 384 890 384 890 416 890 c 256
EndSplineSet
Ligature2: "pstspostbasesubstitution subtable" u0B9C u0BCD
LCarets2: 1 0
EndChar

StartChar: u0B9E
Encoding: 116 2974 141
Width: 1239
GlyphClass: 1
Flags: HW
AnchorPoint: "V" 634 630 basechar 0
AnchorPoint: "N" 634 -280 basechar 0
LayerCount: 2
Fore
SplineSet
1099 145 m 0
 1099 -44 1099 -44 973 -154 c 1
 831 -280 831 -280 547 -280 c 0
 291 -280 291 -280 146.5 -150.5 c 128
 2 -21 2 -21 2 210 c 0
 2 343 2 343 40.5 456 c 128
 79 569 79 569 146 629 c 1
 176 601 l 1
 113 538 113 538 81.5 433 c 128
 50 328 50 328 50 205 c 0
 50 10 50 10 185 -110 c 128
 320 -230 320 -230 535 -230 c 0
 768 -230 768 -230 889 -113 c 0
 992 -14 992 -14 992 142 c 0
 992 226 992 226 953 272 c 0
 921 309 921 309 867 309 c 0
 806 309 806 309 784 266 c 1
 784 -1 l 1
 679 -1 l 1
 679 580 l 1
 481 580 l 2
 355 580 355 580 281 502 c 0
 220 438 220 438 220 357 c 1
 236 382 236 382 273 398 c 128
 310 414 310 414 354 414 c 0
 435 414 435 414 486 359 c 128
 537 304 537 304 537 216 c 0
 537 117 537 117 501 63 c 0
 461 2 461 2 380 2 c 0
 280 2 280 2 225 78 c 128
 170 154 170 154 170 291 c 0
 170 447 170 447 251 538.5 c 128
 332 630 332 630 469 630 c 2
 925 630 l 1
 925 581 l 1
 786 581 l 1
 786 329 l 1
 800 352 800 352 829 364.5 c 128
 858 377 858 377 891 377 c 0
 993 377 993 377 1050 300 c 0
 1099 235 1099 235 1099 145 c 0
433 213 m 0
 433 263 433 263 400.5 304 c 128
 368 345 368 345 325 345 c 0
 283 345 283 345 256.5 324 c 128
 230 303 230 303 219 267 c 1
 219 189 219 189 249.5 136.5 c 128
 280 84 280 84 337 84 c 0
 383 84 383 84 408 122.5 c 128
 433 161 433 161 433 213 c 0
EndSplineSet
EndChar

StartChar: u0B9E_u0BBF
Encoding: 196 -1 142
Width: 1372
GlyphClass: 2
Flags: HW
AnchorPoint: "V" 634 632 basechar 0
AnchorPoint: "N" 634 -280 basechar 0
LayerCount: 2
Fore
SplineSet
1232 0 m 1
 1190 0 l 1
 1190 728 l 2
 1190 841 1190 841 1127 884 c 0
 1074 920 1074 920 971 920 c 0
 857 920 857 920 803.5 869 c 128
 750 818 750 818 750 719 c 0
 750 686 750 686 759 663 c 0
 764 648 764 648 778 632 c 1
 924 632 l 1
 924 583 l 1
 785 583 l 1
 785 354 l 1
 825 404 825 404 892 404 c 0
 899 404 899 404 915 402 c 1
 983 388 983 388 1029.5 314 c 128
 1076 240 1076 240 1076 113 c 0
 1076 -57 1076 -57 945 -160 c 0
 800 -274 800 -274 532 -274 c 0
 308 -274 308 -274 159 -144 c 0
 1 -7 1 -7 1 215 c 0
 1 348 1 348 39.5 461 c 128
 78 574 78 574 145 634 c 1
 175 606 l 1
 112 543 112 543 80.5 438 c 128
 49 333 49 333 49 210 c 0
 49 20 49 20 197 -106 c 0
 339 -226 339 -226 533 -226 c 0
 761 -226 761 -226 878 -115 c 0
 977 -22 977 -22 977 123 c 0
 977 204 977 204 955 252 c 128
 933 300 933 300 893 322 c 0
 875 331 875 331 853 331 c 0
 809 331 809 331 784 295 c 1
 784 1 l 1
 679 1 l 1
 679 582 l 1
 481 582 l 2
 355 582 355 582 281 504 c 0
 220 440 220 440 220 359 c 1
 236 384 236 384 273 400 c 128
 310 416 310 416 354 416 c 0
 435 416 435 416 486 361 c 128
 537 306 537 306 537 218 c 0
 537 119 537 119 501 65 c 0
 461 4 461 4 380 4 c 0
 280 4 280 4 225 80 c 128
 170 156 170 156 170 293 c 0
 170 449 170 449 251 540.5 c 128
 332 632 332 632 469 632 c 2
 727 632 l 1
 712 661 712 661 703 695 c 128
 694 729 694 729 694 776 c 0
 694 892 694 892 764 954 c 128
 834 1016 834 1016 972 1016 c 0
 1140 1016 1140 1016 1197 917 c 0
 1232 857 1232 857 1232 730 c 2
 1232 0 l 1
433 214 m 0
 433 264 433 264 400.5 305 c 128
 368 346 368 346 325 346 c 0
 283 346 283 346 256.5 325 c 128
 230 304 230 304 219 268 c 1
 219 190 219 190 249.5 137.5 c 128
 280 85 280 85 337 85 c 0
 383 85 383 85 408 123.5 c 128
 433 162 433 162 433 214 c 0
EndSplineSet
Ligature2: "sub_ligature_pststaml_2 subtable" u0B9E u0BBF
LCarets2: 1 0
EndChar

StartChar: u0B9E_u0BC0
Encoding: 197 -1 143
Width: 1239
GlyphClass: 2
Flags: HW
AnchorPoint: "V" 634 947.416 basechar 0
AnchorPoint: "N" 634 -280 basechar 0
LayerCount: 2
Fore
SplineSet
432 212 m 0
 432 262 432 262 399.5 303 c 128
 367 344 367 344 324 344 c 0
 282 344 282 344 255.5 323 c 128
 229 302 229 302 218 266 c 1
 218 188 218 188 248.5 135.5 c 128
 279 83 279 83 336 83 c 0
 382 83 382 83 407 121.5 c 128
 432 160 432 160 432 212 c 0
1034 841 m 0
 1034 881 1034 881 1007 909.5 c 128
 980 938 980 938 937 938 c 1
 901 931 901 931 879 903 c 128
 857 875 857 875 857 839 c 256
 857 803 857 803 882.5 776 c 128
 908 749 908 749 943 749 c 0
 980 749 980 749 1007 776 c 128
 1034 803 1034 803 1034 841 c 0
924 628 m 1
 924 579 l 1
 785 579 l 1
 785 327 l 1
 799 350 799 350 828 362.5 c 128
 857 375 857 375 890 375 c 0
 992 375 992 375 1049 298 c 0
 1098 233 1098 233 1098 144 c 0
 1098 -45 1098 -45 972 -155 c 1
 830 -281 830 -281 546 -281 c 0
 290 -281 290 -281 145.5 -151.5 c 128
 1 -22 1 -22 1 209 c 0
 1 342 1 342 39.5 455 c 128
 78 568 78 568 145 628 c 1
 175 600 l 1
 112 537 112 537 80.5 432 c 128
 49 327 49 327 49 204 c 0
 49 9 49 9 184 -111 c 128
 319 -231 319 -231 534 -231 c 0
 767 -231 767 -231 888 -114 c 0
 991 -15 991 -15 991 141 c 0
 991 225 991 225 952 271 c 0
 920 308 920 308 866 308 c 0
 805 308 805 308 783 265 c 1
 783 -2 l 1
 678 -2 l 1
 678 579 l 1
 480 579 l 2
 354 579 354 579 280 501 c 0
 219 437 219 437 219 356 c 1
 235 381 235 381 272 397 c 128
 309 413 309 413 353 413 c 0
 434 413 434 413 485 358 c 128
 536 303 536 303 536 215 c 0
 536 116 536 116 500 62 c 0
 460 1 460 1 379 1 c 0
 279 1 279 1 224 77 c 128
 169 153 169 153 169 290 c 0
 169 446 169 446 250 537.5 c 128
 331 629 331 629 468 629 c 2
 680 629 l 1
 648 657 648 657 626 696 c 0
 600 743 600 743 600 792 c 0
 600 923 600 923 686 991 c 0
 757 1047 757 1047 855 1047 c 0
 947 1047 947 1047 1017 1003 c 0
 1098 952 1098 952 1098 868 c 0
 1098 800 1098 800 1065 757 c 0
 1026 707 1026 707 956 707 c 256
 886 707 886 707 847.5 746.5 c 128
 809 786 809 786 809 842 c 0
 809 877 809 877 825 912 c 128
 841 947 841 947 869 962 c 1
 818 966 l 1
 746 966 746 966 700.5 907.5 c 128
 655 849 655 849 655 777 c 0
 655 734 655 734 673.5 695.5 c 128
 692 657 692 657 721 631 c 1
 924 628 l 1
EndSplineSet
Ligature2: "sub_ligature_pststaml_4 subtable" u0B9E u0BC0
LCarets2: 1 0
EndChar

StartChar: u0B9E_u0BC1
Encoding: 198 -1 144
Width: 1505
GlyphClass: 2
Flags: HW
AnchorPoint: "V" 634 628 basechar 0
AnchorPoint: "N" 634 -280 basechar 0
LayerCount: 2
Fore
SplineSet
432 212 m 0
 432 262 432 262 399.5 303 c 128
 367 344 367 344 324 344 c 0
 282 344 282 344 255.5 323 c 128
 229 302 229 302 218 266 c 1
 218 188 218 188 248.5 135.5 c 128
 279 83 279 83 336 83 c 0
 382 83 382 83 407 121.5 c 128
 432 160 432 160 432 212 c 0
917 -106 m 1
 96 -106 l 2
 67 -106 67 -106 67 -121 c 0
 67 -126 67 -126 72 -134 c 0
 105 -187 105 -187 205 -234 c 0
 345 -299 345 -299 532 -299 c 0
 662 -299 662 -299 764 -243 c 0
 855 -193 855 -193 917 -106 c 1
1055 -55 m 1
 1256 -55 l 1
 1256 631 l 1
 1361 631 l 1
 1361 -104 l 1
 1031 -104 l 1
 967 -216 967 -216 848 -279 c 0
 718 -349 718 -349 543 -349 c 0
 311 -349 311 -349 156 -260 c 0
 46 -196 46 -196 6 -114 c 0
 1 -103 1 -103 1 -95 c 0
 1 -79 1 -79 11.5 -68.5 c 128
 22 -58 22 -58 45 -58 c 2
 945 -58 l 1
 992 37 992 37 992 140 c 0
 992 224 992 224 953 270 c 0
 921 307 921 307 867 307 c 0
 806 307 806 307 784 264 c 1
 784 -3 l 1
 679 -3 l 1
 679 578 l 1
 481 578 l 2
 355 578 355 578 281 500 c 0
 220 436 220 436 220 355 c 1
 236 380 236 380 273 396 c 128
 310 412 310 412 354 412 c 0
 435 412 435 412 486 357 c 128
 537 302 537 302 537 214 c 0
 537 115 537 115 501 61 c 0
 461 0 461 0 380 0 c 0
 280 0 280 0 225 76 c 128
 170 152 170 152 170 289 c 0
 170 445 170 445 251 536.5 c 128
 332 628 332 628 469 628 c 2
 925 628 l 1
 925 579 l 1
 786 579 l 1
 786 327 l 1
 800 350 800 350 829 362.5 c 128
 858 375 858 375 891 375 c 0
 993 375 993 375 1050 298 c 0
 1099 233 1099 233 1099 144 c 0
 1099 39 1099 39 1055 -55 c 1
EndSplineSet
Ligature2: "sub_ligature_pststaml_6 subtable" u0B9E u0BC1
LCarets2: 1 0
EndChar

StartChar: u0B9E_u0BC2
Encoding: 199 -1 145
Width: 1854
GlyphClass: 2
Flags: HW
AnchorPoint: "V" 634 631 basechar 0
AnchorPoint: "N" 634 -280 basechar 0
LayerCount: 2
Fore
SplineSet
432 212 m 0
 432 262 432 262 399.5 303 c 128
 367 344 367 344 324 344 c 0
 282 344 282 344 255.5 323 c 128
 229 302 229 302 218 266 c 1
 218 188 218 188 248.5 135.5 c 128
 279 83 279 83 336 83 c 0
 382 83 382 83 407 121.5 c 128
 432 160 432 160 432 212 c 0
917 -106 m 1
 89 -106 l 2
 60 -106 60 -106 60 -121 c 0
 60 -126 60 -126 65 -134 c 0
 98 -187 98 -187 201 -234 c 0
 345 -299 345 -299 532 -299 c 0
 663 -299 663 -299 763 -243 c 0
 854 -193 854 -193 917 -106 c 1
942 -55 m 1
 989 40 989 40 989 143 c 0
 989 227 989 227 950 273 c 0
 918 310 918 310 864 310 c 0
 803 310 803 310 781 267 c 1
 781 0 l 1
 676 0 l 1
 676 581 l 1
 478 581 l 2
 352 581 352 581 278 503 c 0
 217 439 217 439 217 358 c 1
 233 383 233 383 270 399 c 128
 307 415 307 415 351 415 c 0
 432 415 432 415 483 360 c 128
 534 305 534 305 534 217 c 0
 534 118 534 118 498 64 c 0
 458 3 458 3 377 3 c 0
 277 3 277 3 222 79 c 128
 167 155 167 155 167 292 c 0
 167 448 167 448 248 539.5 c 128
 329 631 329 631 466 631 c 2
 922 631 l 1
 922 582 l 1
 783 582 l 1
 783 330 l 1
 797 353 797 353 826 365.5 c 128
 855 378 855 378 888 378 c 0
 990 378 990 378 1047 301 c 0
 1096 236 1096 236 1096 147 c 0
 1096 37 1096 37 1056 -54 c 1
 1257 -54 l 1
 1257 632 l 1
 1712 632 l 1
 1712 583 l 1
 1572 583 l 1
 1572 -103 l 1
 1467 -103 l 1
 1467 583 l 1
 1306 583 l 1
 1306 -103 l 1
 1031 -103 l 1
 967 -215 967 -215 850 -278 c 0
 720 -348 720 -348 545 -348 c 0
 313 -348 313 -348 158 -259 c 0
 48 -195 48 -195 8 -113 c 0
 3 -102 3 -102 3 -94 c 0
 3 -78 3 -78 13.5 -67.5 c 128
 24 -57 24 -57 47 -57 c 2
 942 -55 l 1
EndSplineSet
Ligature2: "sub_ligature_pststaml_8 subtable" u0B9E u0BC2
LCarets2: 1 0
EndChar

StartChar: u0B9E_u0BCD
Encoding: 200 -1 146
Width: 1218
GlyphClass: 2
Flags: HW
AnchorPoint: "N" 634 -280 basechar 0
LayerCount: 2
Fore
SplineSet
1099 145 m 0
 1099 -44 1099 -44 973 -154 c 1
 831 -280 831 -280 547 -280 c 0
 291 -280 291 -280 146.5 -150.5 c 128
 2 -21 2 -21 2 210 c 0
 2 343 2 343 40.5 456 c 128
 79 569 79 569 146 629 c 1
 176 601 l 1
 113 538 113 538 81.5 433 c 128
 50 328 50 328 50 205 c 0
 50 10 50 10 185 -110 c 128
 320 -230 320 -230 535 -230 c 0
 768 -230 768 -230 889 -113 c 0
 992 -14 992 -14 992 142 c 0
 992 226 992 226 953 272 c 0
 921 309 921 309 867 309 c 0
 806 309 806 309 784 266 c 1
 784 -1 l 1
 679 -1 l 1
 679 580 l 1
 481 580 l 2
 355 580 355 580 281 502 c 0
 220 438 220 438 220 357 c 1
 236 382 236 382 273 398 c 128
 310 414 310 414 354 414 c 0
 435 414 435 414 486 359 c 128
 537 304 537 304 537 216 c 0
 537 117 537 117 501 63 c 0
 461 2 461 2 380 2 c 0
 280 2 280 2 225 78 c 128
 170 154 170 154 170 291 c 0
 170 447 170 447 251 538.5 c 128
 332 630 332 630 469 630 c 2
 925 630 l 1
 925 581 l 1
 786 581 l 1
 786 329 l 1
 800 352 800 352 829 364.5 c 128
 858 377 858 377 891 377 c 0
 993 377 993 377 1050 300 c 0
 1099 235 1099 235 1099 145 c 0
433 213 m 0
 433 263 433 263 400.5 304 c 128
 368 345 368 345 325 345 c 0
 283 345 283 345 256.5 324 c 128
 230 303 230 303 219 267 c 1
 219 189 219 189 249.5 136.5 c 128
 280 84 280 84 337 84 c 0
 383 84 383 84 408 122.5 c 128
 433 161 433 161 433 213 c 0
634 894 m 256
 666 894 666 894 689.5 870.5 c 128
 713 847 713 847 713 815 c 256
 713 783 713 783 689.5 759.5 c 128
 666 736 666 736 634 736 c 256
 602 736 602 736 578.5 759.5 c 128
 555 783 555 783 555 815 c 256
 555 847 555 847 578.5 870.5 c 128
 602 894 602 894 634 894 c 256
EndSplineSet
Ligature2: "pstspostbasesubstitution subtable" u0B9E u0BCD
LCarets2: 1 0
EndChar

StartChar: u0B9F
Encoding: 117 2975 147
Width: 1007
GlyphClass: 1
Flags: HW
AnchorPoint: "V" 446 49 basechar 0
AnchorPoint: "N" 446 0 basechar 0
LayerCount: 2
Fore
SplineSet
868 0 m 1
 0 0 l 1
 0 630 l 1
 98 630 l 1
 98 49 l 1
 868 49 l 1
 868 0 l 1
EndSplineSet
EndChar

StartChar: u0B9F_u0BBF
Encoding: 201 -1 148
Width: 896
GlyphClass: 2
Flags: HW
AnchorPoint: "V" 446 623.886 basechar 0
AnchorPoint: "N" 446 0 basechar 0
LayerCount: 2
Fore
SplineSet
756 0 m 1
 616 0 l 1
 616 -301 l 1
 518 -301 l 1
 518 0 l 1
 0 0 l 1
 0 630 l 1
 98 630 l 1
 98 42 l 1
 429 42 l 1
 393 68 393 68 361 107 c 0
 321 157 321 157 293 218 c 0
 277 255 277 255 267 299 c 128
 257 343 257 343 257 390 c 0
 257 441 257 441 270 482.5 c 128
 283 524 283 524 316 560 c 0
 342 589 342 589 381.5 606.5 c 128
 421 624 421 624 468 624 c 0
 538 624 538 624 578 577 c 0
 614 534 614 534 614 470 c 2
 614 38 l 1
 754 38 l 1
 756 0 l 1
516 38 m 1
 516 477 l 2
 516 509 516 509 495 527 c 128
 474 545 474 545 451 545 c 0
 390 545 390 545 355 497 c 1
 315 446 315 446 315 358 c 0
 315 281 315 281 347 219 c 128
 379 157 379 157 423.5 109.5 c 128
 468 62 468 62 516 38 c 1
EndSplineSet
Ligature2: "sub_ligature_pststaml_2 subtable" u0B9F u0BBF
LCarets2: 1 0
EndChar

StartChar: u0B9F_u0BC0
Encoding: 202 -1 149
Width: 840
GlyphClass: 2
Flags: HW
AnchorPoint: "V" 446 467 basechar 0
AnchorPoint: "N" 446 0 basechar 0
LayerCount: 2
Fore
SplineSet
316 42 m 1
 699 42 l 1
 699 0 l 1
 -1 0 l 1
 -1 630 l 1
 97 630 l 1
 97 42 l 1
 276 42 l 1
 241 65 241 65 215 108 c 0
 185 158 185 158 185 212 c 0
 185 343 185 343 271 411 c 0
 342 467 342 467 440 467 c 0
 543 467 543 467 610 431 c 0
 701 382 701 382 701 276 c 0
 701 212 701 212 656.5 169 c 128
 612 126 612 126 541 126 c 0
 471 126 471 126 432.5 165.5 c 128
 394 205 394 205 394 261 c 0
 394 296 394 296 410 331 c 128
 426 366 426 366 453 381 c 1
 402 385 l 1
 330 385 330 385 284.5 326.5 c 128
 239 268 239 268 239 196 c 0
 239 146 239 146 260 106.5 c 128
 281 67 281 67 316 42 c 1
619 263 m 0
 619 303 619 303 592 331.5 c 128
 565 360 565 360 522 360 c 1
 486 353 486 353 464 325 c 128
 442 297 442 297 442 261 c 256
 442 225 442 225 467.5 198 c 128
 493 171 493 171 528 171 c 0
 565 171 565 171 592 198 c 128
 619 225 619 225 619 263 c 0
EndSplineSet
Ligature2: "sub_ligature_pststaml_4 subtable" u0B9F u0BC0
LCarets2: 1 0
EndChar

StartChar: u0B9F_u0BC1
Encoding: 203 -1 150
Width: 1057
GlyphClass: 2
Flags: HW
AnchorPoint: "V" 446 918 basechar 0
AnchorPoint: "N" 446 0 basechar 0
LayerCount: 2
Fore
SplineSet
875 0 m 1
 833 0 l 1
 863 120 863 120 863 279 c 0
 863 374 863 374 852.5 449.5 c 128
 842 525 842 525 819 583 c 0
 770 703 770 703 678.5 756 c 128
 587 809 587 809 446 809 c 0
 259 809 259 809 155 672 c 128
 51 535 51 535 51 309 c 0
 51 80 51 80 123 -50 c 0
 206 -201 206 -201 378 -201 c 0
 505 -201 505 -201 579 -91 c 0
 643 5 643 5 643 140 c 0
 643 197 643 197 615 244 c 0
 579 306 579 306 511 306 c 256
 443 306 443 306 421 263 c 1
 421 -4 l 1
 316 -4 l 1
 316 626 l 1
 421 626 l 1
 421 325 l 1
 435 347 435 347 467 360 c 128
 499 373 499 373 534 373 c 0
 636 373 636 373 696 296 c 0
 749 228 749 228 749 142 c 0
 749 -51 749 -51 655.5 -151.5 c 128
 562 -252 562 -252 390 -252 c 0
 186 -252 186 -252 89 -89 c 0
 3 55 3 55 3 319 c 0
 3 586 3 586 110 744 c 0
 228 918 228 918 451 918 c 0
 609 918 609 918 719 846 c 0
 824 778 824 778 868 654 c 0
 887 598 887 598 897 516.5 c 128
 907 435 907 435 907 342 c 0
 907 251 907 251 897.5 157.5 c 128
 888 64 888 64 875 0 c 1
EndSplineSet
Ligature2: "sub_ligature_pststaml_6 subtable" u0B9F u0BC1
LCarets2: 1 0
EndChar

StartChar: u0B9F_u0BC2
Encoding: 204 -1 151
Width: 1050
GlyphClass: 2
Flags: HW
AnchorPoint: "V" 446 920.986 basechar 0
AnchorPoint: "N" 446 0 basechar 0
LayerCount: 2
Fore
SplineSet
937 530 m 1
 937 462 937 462 901 418 c 0
 861 368 861 368 783 368 c 0
 702 368 702 368 657.5 408.5 c 128
 613 449 613 449 613 514 c 0
 613 574 613 574 646 613 c 0
 686 660 686 660 760 660 c 0
 785 660 785 660 799 658 c 1
 759 737 759 737 670 786 c 0
 574 839 574 839 454 839 c 0
 258 839 258 839 151 685 c 0
 52 543 52 543 52 311 c 0
 52 82 52 82 124 -48 c 0
 207 -199 207 -199 379 -199 c 0
 506 -199 506 -199 580 -89 c 0
 644 7 644 7 644 142 c 0
 644 199 644 199 616 246 c 0
 580 308 580 308 512 308 c 256
 444 308 444 308 422 265 c 1
 422 -2 l 1
 317 -2 l 1
 317 628 l 1
 422 628 l 1
 422 327 l 1
 436 349 436 349 468 362 c 128
 500 375 500 375 535 375 c 0
 637 375 637 375 697 298 c 0
 750 230 750 230 750 144 c 0
 750 -49 750 -49 656.5 -149.5 c 128
 563 -250 563 -250 391 -250 c 0
 187 -250 187 -250 90 -87 c 0
 4 57 4 57 4 321 c 0
 4 601 4 601 120 756 c 0
 243 921 243 921 475 921 c 0
 683 921 683 921 816 801 c 0
 940 688 940 688 937 530 c 1
834 474 m 0
 843 495 843 495 843 520 c 0
 843 566 843 566 808 596 c 1
 783 604 783 604 762 604 c 0
 702 604 702 604 673 550 c 0
 664 532 664 532 664 511 c 0
 664 453 664 453 713 433 c 1
 727 426 727 426 749 426 c 0
 778 426 778 426 801 438.5 c 128
 824 451 824 451 834 474 c 0
EndSplineSet
Ligature2: "sub_ligature_pststaml_8 subtable" u0B9F u0BC2
LCarets2: 1 0
EndChar

StartChar: u0B9F_u0BCD
Encoding: 205 -1 152
Width: 1007
GlyphClass: 2
Flags: HW
AnchorPoint: "N" 446 0 basechar 0
LayerCount: 2
Fore
SplineSet
868 0 m 1
 0 0 l 1
 0 630 l 1
 98 630 l 1
 98 49 l 1
 868 49 l 1
 868 0 l 1
446 894 m 256
 478 894 478 894 501.5 870.5 c 128
 525 847 525 847 525 815 c 0
 525 785 525 785 502 766.5 c 128
 479 748 479 748 446 748 c 0
 416 748 416 748 391.5 766.5 c 128
 367 785 367 785 367 815 c 0
 367 847 367 847 390.5 870.5 c 128
 414 894 414 894 446 894 c 256
EndSplineSet
Ligature2: "pstspostbasesubstitution subtable" u0B9F u0BCD
EndChar

StartChar: u0BA3
Encoding: 118 2979 153
Width: 1819
GlyphClass: 1
Flags: HW
AnchorPoint: "V" 872 629.989 basechar 0
AnchorPoint: "N" 872 1 basechar 0
LayerCount: 2
Fore
SplineSet
264 212 m 0
 264 262 264 262 231.5 303 c 128
 199 344 199 344 156 344 c 0
 115 344 115 344 88.5 323 c 128
 62 302 62 302 51 266 c 1
 51 188 51 188 81.5 135.5 c 128
 112 83 112 83 169 83 c 0
 215 83 215 83 240 121.5 c 128
 265 160 265 160 264 212 c 0
1093 504 m 1
 980 415 980 415 980 267 c 0
 980 169 980 169 1009 109 c 128
 1038 49 1038 49 1087 49 c 0
 1147 49 1147 49 1170.5 105.5 c 128
 1194 162 1194 162 1194 282 c 0
 1194 343 1194 343 1169 402.5 c 128
 1144 462 1144 462 1093 504 c 1
631 504 m 1
 518 415 518 415 518 267 c 0
 518 169 518 169 547 109 c 128
 576 49 576 49 625 49 c 0
 685 49 685 49 708.5 105.5 c 128
 732 162 732 162 732 282 c 0
 732 343 732 343 707 402.5 c 128
 682 462 682 462 631 504 c 1
1044 537 m 1
 1007 556 1007 556 961 567 c 128
 915 578 915 578 858 578 c 0
 770 578 770 578 700 545 c 1
 770 498 770 498 803.5 429.5 c 128
 837 361 837 361 837 282 c 0
 837 136 837 136 795 68.5 c 128
 753 1 753 1 654 1 c 0
 559 1 559 1 514.5 71 c 128
 470 141 470 141 470 268 c 0
 470 353 470 353 499 420.5 c 128
 528 488 528 488 584 538 c 1
 547 557 547 557 501 568 c 128
 455 579 455 579 398 579 c 0
 261 579 261 579 156 502 c 0
 61 433 61 433 53 356 c 1
 69 381 69 381 106 397 c 128
 143 413 143 413 187 413 c 0
 268 413 268 413 319 358 c 128
 370 303 370 303 370 215 c 0
 370 116 370 116 331 62 c 0
 288 1 288 1 199 1 c 0
 114 1 114 1 58 78.5 c 128
 2 156 2 156 2 290 c 0
 2 446 2 446 118 541 c 0
 225 629 225 629 386 629 c 0
 465 629 465 629 528 616.5 c 128
 591 604 591 604 642 581 c 1
 733 630 733 630 846 630 c 0
 998 630 998 630 1103 580 c 1
 1191 630 1191 630 1307 630 c 2
 1678 630 l 1
 1678 581 l 1
 1538 581 l 1
 1538 0 l 1
 1433 0 l 1
 1433 581 l 1
 1319 581 l 2
 1235 581 1235 581 1160 548 c 1
 1228 501 1228 501 1263 431 c 128
 1298 361 1298 361 1298 284 c 0
 1298 138 1298 138 1256 70.5 c 128
 1214 3 1214 3 1115 3 c 0
 1020 3 1020 3 975.5 73 c 128
 931 143 931 143 931 270 c 0
 931 355 931 355 960 422.5 c 128
 989 490 989 490 1044 537 c 1
EndSplineSet
EndChar

StartChar: u0BA3_u0BBE.old
Encoding: 207 -1 155
Width: 1966
GlyphClass: 1
Flags: HW
AnchorPoint: "V" 872 612.824 basechar 0
AnchorPoint: "N" 872 1 basechar 0
LayerCount: 2
Fore
SplineSet
432 212 m 0
 432 262 432 262 399.5 303 c 128
 367 344 367 344 324 344 c 0
 282 344 282 344 255.5 323 c 128
 229 302 229 302 218 266 c 1
 218 188 218 188 248.5 135.5 c 128
 279 83 279 83 336 83 c 0
 382 83 382 83 407 121.5 c 128
 432 160 432 160 432 212 c 0
1260 505 m 1
 1209 462 1209 462 1178.5 400.5 c 128
 1148 339 1148 339 1148 267 c 0
 1148 169 1148 169 1177 109 c 128
 1206 49 1206 49 1255 49 c 0
 1315 49 1315 49 1338.5 105.5 c 128
 1362 162 1362 162 1362 282 c 0
 1362 343 1362 343 1337 402.5 c 128
 1312 462 1312 462 1260 505 c 1
799 504 m 1
 686 415 686 415 686 267 c 0
 686 169 686 169 715 109 c 128
 744 49 744 49 793 49 c 0
 853 49 853 49 876.5 105.5 c 128
 900 162 900 162 900 282 c 0
 900 343 900 343 875 402.5 c 128
 850 462 850 462 799 504 c 1
1212 537 m 1
 1175 556 1175 556 1129 567 c 128
 1083 578 1083 578 1026 578 c 0
 938 578 938 578 869 545 c 1
 938 498 938 498 971.5 429.5 c 128
 1005 361 1005 361 1005 282 c 0
 1005 136 1005 136 963 68.5 c 128
 921 1 921 1 822 1 c 0
 727 1 727 1 682.5 71 c 128
 638 141 638 141 638 268 c 0
 638 353 638 353 667 420.5 c 128
 696 488 696 488 752 538 c 1
 715 557 715 557 669 568 c 128
 623 579 623 579 566 579 c 0
 429 579 429 579 324 502 c 0
 229 433 229 433 221 356 c 1
 237 381 237 381 274 397 c 128
 311 413 311 413 355 413 c 0
 436 413 436 413 487 358 c 128
 538 303 538 303 538 215 c 0
 538 116 538 116 499 62 c 0
 456 1 456 1 367 1 c 0
 282 1 282 1 226 78.5 c 128
 170 156 170 156 170 290 c 0
 170 446 170 446 286 541 c 0
 393 629 393 629 554 629 c 0
 633 629 633 629 696 616.5 c 128
 759 604 759 604 810 581 c 1
 901 630 901 630 1014 630 c 0
 1091 630 1091 630 1154 617.5 c 128
 1217 605 1217 605 1270 582 c 1
 1355 631 1355 631 1461 631 c 0
 1630 631 1630 631 1730 522 c 0
 1823 420 1823 420 1823 266 c 0
 1823 -15 1823 -15 1594 -178 c 0
 1356 -347 1356 -347 927 -347 c 0
 684 -347 684 -347 497 -300 c 0
 271 -243 271 -243 146 -125 c 0
 1 12 1 12 1 224 c 0
 1 355 1 355 39.5 461 c 128
 78 567 78 567 145 628 c 1
 175 600 l 1
 112 537 112 537 80.5 438.5 c 128
 49 340 49 340 49 219 c 0
 49 25 49 25 194 -101 c 0
 317 -207 317 -207 535 -258 c 0
 711 -300 711 -300 922 -300 c 0
 1284 -300 1284 -300 1501.5 -138 c 128
 1719 24 1719 24 1719 280 c 0
 1719 410 1719 410 1648.5 495 c 128
 1578 580 1578 580 1465 580 c 0
 1394 580 1394 580 1326 548 c 1
 1397 499 1397 499 1431 430 c 128
 1465 361 1465 361 1465 283 c 0
 1465 137 1465 137 1423 69.5 c 128
 1381 2 1381 2 1282 2 c 0
 1187 2 1187 2 1142.5 72 c 128
 1098 142 1098 142 1098 269 c 0
 1098 353 1098 353 1128 422 c 128
 1158 491 1158 491 1212 537 c 1
EndSplineSet
EndChar

StartChar: u0BA3_u0BBF
Encoding: 208 -1 156
Width: 1973
GlyphClass: 2
Flags: HW
AnchorPoint: "V" 872 629.989 basechar 0
AnchorPoint: "N" 872 1 basechar 0
LayerCount: 2
Fore
SplineSet
264 212 m 0
 264 262 264 262 231.5 303 c 128
 199 344 199 344 156 344 c 0
 115 344 115 344 88.5 323 c 128
 62 302 62 302 51 266 c 1
 51 188 51 188 81.5 135.5 c 128
 112 83 112 83 169 83 c 0
 215 83 215 83 240 121.5 c 128
 265 160 265 160 264 212 c 0
1093 504 m 1
 980 415 980 415 980 267 c 0
 980 169 980 169 1009 109 c 128
 1038 49 1038 49 1087 49 c 0
 1147 49 1147 49 1170.5 105.5 c 128
 1194 162 1194 162 1194 282 c 0
 1194 343 1194 343 1169 402.5 c 128
 1144 462 1144 462 1093 504 c 1
631 504 m 1
 518 415 518 415 518 267 c 0
 518 169 518 169 547 109 c 128
 576 49 576 49 625 49 c 0
 685 49 685 49 708.5 105.5 c 128
 732 162 732 162 732 282 c 0
 732 343 732 343 707 402.5 c 128
 682 462 682 462 631 504 c 1
1044 537 m 1
 1007 556 1007 556 961 567 c 128
 915 578 915 578 858 578 c 0
 770 578 770 578 700 545 c 1
 770 498 770 498 803.5 429.5 c 128
 837 361 837 361 837 282 c 0
 837 136 837 136 795 68.5 c 128
 753 1 753 1 654 1 c 0
 559 1 559 1 514.5 71 c 128
 470 141 470 141 470 268 c 0
 470 353 470 353 499 420.5 c 128
 528 488 528 488 584 538 c 1
 547 557 547 557 501 568 c 128
 455 579 455 579 398 579 c 0
 261 579 261 579 156 502 c 0
 61 433 61 433 53 356 c 1
 69 381 69 381 106 397 c 128
 143 413 143 413 187 413 c 0
 268 413 268 413 319 358 c 128
 370 303 370 303 370 215 c 0
 370 116 370 116 331 62 c 0
 288 1 288 1 199 1 c 0
 114 1 114 1 58 78.5 c 128
 2 156 2 156 2 290 c 0
 2 446 2 446 118 541 c 0
 225 629 225 629 386 629 c 0
 465 629 465 629 528 616.5 c 128
 591 604 591 604 642 581 c 1
 733 630 733 630 846 630 c 0
 998 630 998 630 1103 580 c 1
 1191 630 1191 630 1307 630 c 2
 1480 630 l 1
 1466 656 1466 656 1456.5 691 c 128
 1447 726 1447 726 1447 754 c 0
 1447 867 1447 867 1496.5 929.5 c 128
 1546 992 1546 992 1641 992 c 0
 1747 992 1747 992 1791 920 c 0
 1830 857 1830 857 1830 722 c 2
 1830 0 l 1
 1789 0 l 1
 1789 707 l 2
 1789 805 1789 805 1760 847 c 0
 1727 896 1727 896 1641 896 c 0
 1578 896 1578 896 1537.5 855.5 c 128
 1497 815 1497 815 1497 741 c 0
 1497 705 1497 705 1506.5 676 c 128
 1516 647 1516 647 1531 632 c 1
 1678 632 l 1
 1678 583 l 1
 1538 583 l 1
 1538 2 l 1
 1433 2 l 1
 1433 583 l 1
 1319 583 l 2
 1235 583 1235 583 1160 550 c 1
 1228 503 1228 503 1263 433 c 128
 1298 363 1298 363 1298 286 c 0
 1298 140 1298 140 1256 72.5 c 128
 1214 5 1214 5 1115 5 c 0
 1020 5 1020 5 975.5 75 c 128
 931 145 931 145 931 272 c 0
 931 357 931 357 960 424.5 c 128
 989 492 989 492 1044 537 c 1
EndSplineSet
Ligature2: "sub_ligature_pststaml_2 subtable" u0BA3 u0BBF
LCarets2: 1 0
EndChar

StartChar: u0BA3_u0BC0
Encoding: 209 -1 157
Width: 1861
GlyphClass: 2
Flags: HW
AnchorPoint: "V" 872 629.99 basechar 0
AnchorPoint: "N" 872 1 basechar 0
LayerCount: 2
Fore
SplineSet
264 212 m 0
 264 262 264 262 231.5 303 c 128
 199 344 199 344 156 344 c 0
 115 344 115 344 88.5 323 c 128
 62 302 62 302 51 266 c 1
 51 188 51 188 81.5 135.5 c 128
 112 83 112 83 169 83 c 0
 215 83 215 83 240 121.5 c 128
 265 160 265 160 264 212 c 0
1791 841 m 0
 1791 881 1791 881 1764 909.5 c 128
 1737 938 1737 938 1694 938 c 1
 1658 931 1658 931 1636 903 c 128
 1614 875 1614 875 1614 839 c 256
 1614 803 1614 803 1639.5 776 c 128
 1665 749 1665 749 1700 749 c 0
 1737 749 1737 749 1764 776 c 128
 1791 803 1791 803 1791 841 c 0
1094 504 m 1
 981 415 981 415 981 267 c 0
 981 169 981 169 1010 109 c 128
 1039 49 1039 49 1088 49 c 0
 1148 49 1148 49 1171.5 105.5 c 128
 1195 162 1195 162 1195 282 c 0
 1195 343 1195 343 1170 402.5 c 128
 1145 462 1145 462 1094 504 c 1
632 504 m 1
 519 415 519 415 519 267 c 0
 519 169 519 169 548 109 c 128
 577 49 577 49 626 49 c 0
 686 49 686 49 709.5 105.5 c 128
 733 162 733 162 733 282 c 0
 733 343 733 343 708 402.5 c 128
 683 462 683 462 632 504 c 1
1045 537 m 1
 1008 556 1008 556 962 567 c 128
 916 578 916 578 859 578 c 0
 771 578 771 578 701 545 c 1
 771 498 771 498 804.5 429.5 c 128
 838 361 838 361 838 282 c 0
 838 136 838 136 796 68.5 c 128
 754 1 754 1 655 1 c 0
 560 1 560 1 515.5 71 c 128
 471 141 471 141 471 268 c 0
 471 353 471 353 500 420.5 c 128
 529 488 529 488 585 538 c 1
 548 557 548 557 502 568 c 128
 456 579 456 579 399 579 c 0
 262 579 262 579 157 502 c 0
 62 433 62 433 54 356 c 1
 70 381 70 381 107 397 c 128
 144 413 144 413 188 413 c 0
 269 413 269 413 320 358 c 128
 371 303 371 303 371 215 c 0
 371 116 371 116 332 62 c 0
 289 1 289 1 200 1 c 0
 115 1 115 1 59 78.5 c 128
 3 156 3 156 3 290 c 0
 3 446 3 446 119 541 c 0
 226 629 226 629 387 629 c 0
 466 629 466 629 529 616.5 c 128
 592 604 592 604 643 581 c 1
 734 630 734 630 847 630 c 0
 999 630 999 630 1104 580 c 1
 1192 630 1192 630 1308 630 c 2
 1435 630 l 1
 1403 658 1403 658 1381 697 c 0
 1355 744 1355 744 1355 793 c 0
 1355 924 1355 924 1441 992 c 0
 1512 1048 1512 1048 1610 1048 c 0
 1713 1048 1713 1048 1780 1012 c 0
 1871 963 1871 963 1871 857 c 0
 1871 793 1871 793 1826.5 750 c 128
 1782 707 1782 707 1711 707 c 0
 1641 707 1641 707 1602.5 746.5 c 128
 1564 786 1564 786 1564 842 c 0
 1564 877 1564 877 1580 912 c 128
 1596 947 1596 947 1624 962 c 1
 1573 966 l 1
 1501 966 1501 966 1455.5 907.5 c 128
 1410 849 1410 849 1410 777 c 0
 1410 734 1410 734 1428.5 695.5 c 128
 1447 657 1447 657 1476 631 c 1
 1679 631 l 1
 1679 582 l 1
 1539 582 l 1
 1539 1 l 1
 1434 1 l 1
 1434 582 l 1
 1320 582 l 2
 1236 582 1236 582 1161 549 c 1
 1229 502 1229 502 1264 432 c 128
 1299 362 1299 362 1299 285 c 0
 1299 139 1299 139 1257 71.5 c 128
 1215 4 1215 4 1116 4 c 0
 1021 4 1021 4 976.5 74 c 128
 932 144 932 144 932 271 c 0
 932 356 932 356 961 423.5 c 128
 990 491 990 491 1045 537 c 1
EndSplineSet
Ligature2: "sub_ligature_pststaml_4 subtable" u0BA3 u0BC0
LCarets2: 1 0
EndChar

StartChar: u0BA3_u0BC1
Encoding: 210 -1 158
Width: 2065
GlyphClass: 2
Flags: HW
AnchorPoint: "V" 872 632.976 basechar 0
AnchorPoint: "N" 872 1 basechar 0
LayerCount: 2
Fore
SplineSet
264 212 m 0
 264 262 264 262 231.5 303 c 128
 199 344 199 344 156 344 c 0
 115 344 115 344 88.5 323 c 128
 62 302 62 302 51 266 c 1
 51 188 51 188 81.5 135.5 c 128
 112 83 112 83 169 83 c 0
 215 83 215 83 240 121.5 c 128
 265 160 265 160 264 212 c 0
1392 -106 m 1
 104 -106 l 2
 75 -106 75 -106 75 -121 c 0
 75 -126 75 -126 80 -134 c 1
 144 -204 144 -204 346.5 -252 c 128
 549 -300 549 -300 813 -300 c 0
 1000 -300 1000 -300 1145.5 -249 c 128
 1291 -198 1291 -198 1392 -106 c 1
1091 507 m 1
 1040 464 1040 464 1009.5 402.5 c 128
 979 341 979 341 979 269 c 0
 979 171 979 171 1008 111 c 128
 1037 51 1037 51 1086 51 c 0
 1146 51 1146 51 1169.5 107.5 c 128
 1193 164 1193 164 1193 284 c 0
 1193 345 1193 345 1168 404.5 c 128
 1143 464 1143 464 1091 507 c 1
630 506 m 1
 517 417 517 417 517 269 c 0
 517 171 517 171 546 111 c 128
 575 51 575 51 624 51 c 0
 684 51 684 51 707.5 107.5 c 128
 731 164 731 164 731 284 c 0
 731 345 731 345 706 404.5 c 128
 681 464 681 464 630 506 c 1
1434 -55 m 1
 1551 90 1551 90 1551 280 c 0
 1551 410 1551 410 1480.5 495 c 128
 1410 580 1410 580 1297 580 c 0
 1226 580 1226 580 1158 548 c 1
 1229 499 1229 499 1263 430 c 128
 1297 361 1297 361 1297 283 c 0
 1297 137 1297 137 1255 69.5 c 128
 1213 2 1213 2 1114 2 c 0
 1019 2 1019 2 974.5 72 c 128
 930 142 930 142 930 269 c 0
 930 353 930 353 960 422 c 128
 990 491 990 491 1044 540 c 1
 1007 559 1007 559 961 570 c 128
 915 581 915 581 858 581 c 0
 770 581 770 581 700 548 c 1
 770 501 770 501 803.5 432.5 c 128
 837 364 837 364 837 285 c 0
 837 139 837 139 795 71.5 c 128
 753 4 753 4 654 4 c 0
 559 4 559 4 514.5 74 c 128
 470 144 470 144 470 271 c 0
 470 356 470 356 499 423.5 c 128
 528 491 528 491 584 541 c 1
 547 560 547 560 501 571 c 128
 455 582 455 582 398 582 c 0
 263 582 263 582 157 504 c 0
 62 434 62 434 54 359 c 1
 70 384 70 384 107 400 c 128
 144 416 144 416 188 416 c 0
 269 416 269 416 320 361 c 128
 371 306 371 306 371 218 c 0
 371 119 371 119 332 65 c 0
 289 4 289 4 200 4 c 0
 115 4 115 4 59 81.5 c 128
 3 159 3 159 3 293 c 0
 3 449 3 449 119 544 c 0
 226 632 226 632 387 632 c 0
 466 632 466 632 529 619.5 c 128
 592 607 592 607 643 584 c 1
 734 633 734 633 847 633 c 0
 923 633 923 633 986 620.5 c 128
 1049 608 1049 608 1102 585 c 1
 1187 634 1187 634 1293 634 c 0
 1462 634 1462 634 1562 525 c 0
 1655 423 1655 423 1655 269 c 0
 1655 83 1655 83 1574 -51 c 1
 1816 -51 l 1
 1816 635 l 1
 1921 635 l 1
 1921 -100 l 1
 1539 -100 l 1
 1341 -345 1341 -345 823 -345 c 0
 499 -345 499 -345 279.5 -278.5 c 128
 60 -212 60 -212 6 -109 c 0
 1 -98 1 -98 1 -90 c 0
 1 -74 1 -74 11.5 -63.5 c 128
 22 -53 22 -53 45 -53 c 2
 1434 -55 l 1
EndSplineSet
Ligature2: "sub_ligature_pststaml_6 subtable" u0BA3 u0BC1
LCarets2: 1 0
EndChar

StartChar: u0BA3_u0BC2
Encoding: 211 -1 159
Width: 2415
GlyphClass: 2
Flags: HW
AnchorPoint: "V" 872 632.976 basechar 0
AnchorPoint: "N" 872 1 basechar 0
LayerCount: 2
Fore
SplineSet
264 212 m 0
 264 262 264 262 231.5 303 c 128
 199 344 199 344 156 344 c 0
 115 344 115 344 88.5 323 c 128
 62 302 62 302 51 266 c 1
 51 188 51 188 81.5 135.5 c 128
 112 83 112 83 169 83 c 0
 215 83 215 83 240 121.5 c 128
 265 160 265 160 264 212 c 0
1392 -106 m 1
 104 -106 l 2
 75 -106 75 -106 75 -121 c 0
 75 -126 75 -126 80 -134 c 1
 144 -204 144 -204 346.5 -252 c 128
 549 -300 549 -300 813 -300 c 0
 1000 -300 1000 -300 1145.5 -249 c 128
 1291 -198 1291 -198 1392 -106 c 1
1091 507 m 1
 1040 464 1040 464 1009.5 402.5 c 128
 979 341 979 341 979 269 c 0
 979 171 979 171 1008 111 c 128
 1037 51 1037 51 1086 51 c 0
 1146 51 1146 51 1169.5 107.5 c 128
 1193 164 1193 164 1193 284 c 0
 1193 345 1193 345 1168 404.5 c 128
 1143 464 1143 464 1091 507 c 1
630 506 m 1
 517 417 517 417 517 269 c 0
 517 171 517 171 546 111 c 128
 575 51 575 51 624 51 c 0
 684 51 684 51 707.5 107.5 c 128
 731 164 731 164 731 284 c 0
 731 345 731 345 706 404.5 c 128
 681 464 681 464 630 506 c 1
1434 -55 m 1
 1551 90 1551 90 1551 280 c 0
 1551 410 1551 410 1480.5 495 c 128
 1410 580 1410 580 1297 580 c 0
 1226 580 1226 580 1158 548 c 1
 1229 499 1229 499 1263 430 c 128
 1297 361 1297 361 1297 283 c 0
 1297 137 1297 137 1255 69.5 c 128
 1213 2 1213 2 1114 2 c 0
 1019 2 1019 2 974.5 72 c 128
 930 142 930 142 930 269 c 0
 930 353 930 353 960 422 c 128
 990 491 990 491 1044 540 c 1
 1007 559 1007 559 961 570 c 128
 915 581 915 581 858 581 c 0
 770 581 770 581 700 548 c 1
 770 501 770 501 803.5 432.5 c 128
 837 364 837 364 837 285 c 0
 837 139 837 139 795 71.5 c 128
 753 4 753 4 654 4 c 0
 559 4 559 4 514.5 74 c 128
 470 144 470 144 470 271 c 0
 470 356 470 356 499 423.5 c 128
 528 491 528 491 584 541 c 1
 547 560 547 560 501 571 c 128
 455 582 455 582 398 582 c 0
 263 582 263 582 157 504 c 0
 62 434 62 434 54 359 c 1
 70 384 70 384 107 400 c 128
 144 416 144 416 188 416 c 0
 269 416 269 416 320 361 c 128
 371 306 371 306 371 218 c 0
 371 119 371 119 332 65 c 0
 289 4 289 4 200 4 c 0
 115 4 115 4 59 81.5 c 128
 3 159 3 159 3 293 c 0
 3 449 3 449 119 544 c 0
 226 632 226 632 387 632 c 0
 466 632 466 632 529 619.5 c 128
 592 607 592 607 643 584 c 1
 734 633 734 633 847 633 c 0
 923 633 923 633 986 620.5 c 128
 1049 608 1049 608 1102 585 c 1
 1187 634 1187 634 1293 634 c 0
 1462 634 1462 634 1562 525 c 0
 1655 423 1655 423 1655 269 c 0
 1655 83 1655 83 1574 -51 c 1
 1816 -51 l 1
 1816 635 l 1
 2271 635 l 1
 2271 586 l 1
 2131 586 l 1
 2131 -100 l 1
 2026 -100 l 1
 2026 586 l 1
 1865 586 l 1
 1865 -100 l 1
 1539 -100 l 1
 1341 -345 1341 -345 823 -345 c 0
 499 -345 499 -345 279.5 -278.5 c 128
 60 -212 60 -212 6 -109 c 0
 1 -98 1 -98 1 -90 c 0
 1 -74 1 -74 11.5 -63.5 c 128
 22 -53 22 -53 45 -53 c 2
 1434 -55 l 1
EndSplineSet
Ligature2: "sub_ligature_pststaml_8 subtable" u0BA3 u0BC2
LCarets2: 1 0
EndChar

StartChar: u0BA3_u0BCD
Encoding: 214 -1 162
Width: 1819
GlyphClass: 2
Flags: HW
AnchorPoint: "N" 872 1 basechar 0
LayerCount: 2
Fore
SplineSet
264 212 m 0
 264 262 264 262 231.5 303 c 128
 199 344 199 344 156 344 c 0
 115 344 115 344 88.5 323 c 128
 62 302 62 302 51 266 c 1
 51 188 51 188 81.5 135.5 c 128
 112 83 112 83 169 83 c 0
 215 83 215 83 240 121.5 c 128
 265 160 265 160 264 212 c 0
1093 504 m 1
 980 415 980 415 980 267 c 0
 980 169 980 169 1009 109 c 128
 1038 49 1038 49 1087 49 c 0
 1147 49 1147 49 1170.5 105.5 c 128
 1194 162 1194 162 1194 282 c 0
 1194 343 1194 343 1169 402.5 c 128
 1144 462 1144 462 1093 504 c 1
631 504 m 1
 518 415 518 415 518 267 c 0
 518 169 518 169 547 109 c 128
 576 49 576 49 625 49 c 0
 685 49 685 49 708.5 105.5 c 128
 732 162 732 162 732 282 c 0
 732 343 732 343 707 402.5 c 128
 682 462 682 462 631 504 c 1
1044 537 m 1
 1007 556 1007 556 961 567 c 128
 915 578 915 578 858 578 c 0
 770 578 770 578 700 545 c 1
 770 498 770 498 803.5 429.5 c 128
 837 361 837 361 837 282 c 0
 837 136 837 136 795 68.5 c 128
 753 1 753 1 654 1 c 0
 559 1 559 1 514.5 71 c 128
 470 141 470 141 470 268 c 0
 470 353 470 353 499 420.5 c 128
 528 488 528 488 584 538 c 1
 547 557 547 557 501 568 c 128
 455 579 455 579 398 579 c 0
 261 579 261 579 156 502 c 0
 61 433 61 433 53 356 c 1
 69 381 69 381 106 397 c 128
 143 413 143 413 187 413 c 0
 268 413 268 413 319 358 c 128
 370 303 370 303 370 215 c 0
 370 116 370 116 331 62 c 0
 288 1 288 1 199 1 c 0
 114 1 114 1 58 78.5 c 128
 2 156 2 156 2 290 c 0
 2 446 2 446 118 541 c 0
 225 629 225 629 386 629 c 0
 465 629 465 629 528 616.5 c 128
 591 604 591 604 642 581 c 1
 733 630 733 630 846 630 c 0
 998 630 998 630 1103 580 c 1
 1191 630 1191 630 1307 630 c 2
 1678 630 l 1
 1678 581 l 1
 1538 581 l 1
 1538 0 l 1
 1433 0 l 1
 1433 581 l 1
 1319 581 l 2
 1235 581 1235 581 1160 548 c 1
 1228 501 1228 501 1263 431 c 128
 1298 361 1298 361 1298 284 c 0
 1298 138 1298 138 1256 70.5 c 128
 1214 3 1214 3 1115 3 c 0
 1020 3 1020 3 975.5 73 c 128
 931 143 931 143 931 270 c 0
 931 355 931 355 960 422.5 c 128
 989 490 989 490 1044 537 c 1
872 895 m 256
 904 895 904 895 927.5 871.5 c 128
 951 848 951 848 951 816 c 256
 951 784 951 784 927.5 760.5 c 128
 904 737 904 737 872 737 c 256
 840 737 840 737 816.5 760.5 c 128
 793 784 793 784 793 816 c 256
 793 848 793 848 816.5 871.5 c 128
 840 895 840 895 872 895 c 256
EndSplineSet
Ligature2: "pstspostbasesubstitution subtable" u0BA3 u0BCD
LCarets2: 1 0
EndChar

StartChar: u0BA4
Encoding: 119 2980 163
Width: 909
GlyphClass: 1
Flags: HW
AnchorPoint: "V" 360 625 basechar 0
AnchorPoint: "N" 360 -346 basechar 0
LayerCount: 2
Fore
SplineSet
770 123 m 1
 770 39 770 39 719 -27.5 c 128
 668 -94 668 -94 583 -123 c 0
 509 -148 509 -148 361.5 -151.5 c 128
 214 -155 214 -155 158 -192 c 0
 128 -213 128 -213 122 -234.5 c 128
 116 -256 116 -256 116 -293 c 0
 116 -322 116 -322 109 -331 c 0
 98 -346 98 -346 59 -346 c 0
 36 -346 36 -346 21 -317.5 c 128
 6 -289 6 -289 6 -249 c 0
 6 -220 6 -220 15 -195.5 c 128
 24 -171 24 -171 44 -155 c 0
 115 -98 115 -98 294 -94 c 128
 473 -90 473 -90 552 -64 c 0
 594 -51 594 -51 633.5 -1 c 128
 673 49 673 49 673 106 c 0
 673 159 673 159 668.5 191.5 c 128
 664 224 664 224 650 247 c 0
 632 277 632 277 591 293.5 c 128
 550 310 550 310 487 310 c 1
 487 144 l 2
 487 96 487 96 429 50 c 0
 361 -3 361 -3 263 -3 c 0
 164 -3 164 -3 108 43 c 0
 47 94 47 94 47 193 c 0
 47 270 47 270 98 319 c 0
 138 358 138 358 173 358 c 1
 173 625 l 1
 628 625 l 1
 628 576 l 1
 488 576 l 1
 488 359 l 1
 651 359 651 359 719 285 c 0
 772 228 772 228 770 123 c 1
382 359 m 1
 382 576 l 1
 221 576 l 1
 221 359 l 1
 382 359 l 1
382 140 m 2
 382 310 l 1
 199 310 l 2
 164 310 164 310 135 284 c 0
 95 248 95 248 95 181 c 0
 95 113 95 113 134 79.5 c 128
 173 46 173 46 247 46 c 0
 290 46 290 46 336 75 c 128
 382 104 382 104 382 140 c 2
EndSplineSet
EndChar

